<svg width="80" height="80" viewBox="0 0 80 80" fill="none" xmlns="http://www.w3.org/2000/svg">
<circle cx="40" cy="40" r="40" fill="url(#paint0_linear_4_4579)"/>
<g clip-path="url(#clip0_4_4579)">
<path d="M52.7564 57.5084H51.2561C51.0572 57.5084 50.8663 57.5875 50.7257 57.7281C50.585 57.8688 50.506 58.0596 50.506 58.2586C50.506 58.4575 50.4269 58.6483 50.2862 58.789C50.1456 58.9297 49.9547 59.0087 49.7558 59.0087H30.2517C30.0528 59.0087 29.862 58.9297 29.7213 58.789C29.5806 58.6483 29.5016 58.4575 29.5016 58.2586C29.5016 58.0596 29.4225 57.8688 29.2819 57.7281C29.1412 57.5875 28.9504 57.5084 28.7514 57.5084H27.2511C26.6542 57.5084 26.0818 57.7455 25.6598 58.1676C25.2377 58.5896 25.0006 59.162 25.0006 59.7589C24.9974 60.571 25.2609 61.3617 25.7508 62.0094C26.1002 62.4752 26.5532 62.8533 27.074 63.1137C27.5948 63.3741 28.1691 63.5097 28.7514 63.5097H51.2561C51.7495 63.5096 52.2381 63.4121 52.6938 63.2229C53.1494 63.0337 53.5633 62.7564 53.9117 62.4069C54.0368 62.2836 54.1522 62.1507 54.2567 62.0094C54.7481 61.3625 55.0119 60.5712 55.0069 59.7589C55.0069 59.162 54.7698 58.5896 54.3477 58.1676C53.9257 57.7455 53.3533 57.5084 52.7564 57.5084ZM28.7514 62.0094C28.1546 62.0094 27.5821 61.7723 27.1601 61.3502C26.7381 60.9282 26.501 60.3558 26.501 59.7589C26.5023 59.6591 26.5236 59.5606 26.5636 59.4692C26.6035 59.3777 26.6613 59.2951 26.7335 59.2263C26.8 59.1561 26.8804 59.1006 26.9695 59.0631C27.0586 59.0257 27.1545 59.0072 27.2511 59.0087H28.1288C28.1407 59.0426 28.1557 59.0753 28.1738 59.1063C28.2017 59.1832 28.2343 59.2583 28.2713 59.3313C28.322 59.4191 28.3771 59.5042 28.4364 59.5864C28.5818 59.7818 28.7564 59.9539 28.954 60.0965C29.0421 60.1586 29.1349 60.2138 29.2315 60.2615C29.3444 60.3199 29.4624 60.3676 29.5841 60.404C29.6745 60.4344 29.7674 60.457 29.8617 60.4715C29.9903 60.4954 30.1209 60.5079 30.2517 60.509H49.7558C49.8856 60.5203 50.0161 60.5203 50.1459 60.509C50.2402 60.4945 50.333 60.4719 50.4234 60.4415C50.5451 60.4051 50.6632 60.3574 50.776 60.299C50.8727 60.2513 50.9655 60.1961 51.0536 60.134C51.2511 59.9914 51.4257 59.8193 51.5712 59.6239C51.6305 59.5417 51.6855 59.4566 51.7362 59.3688C51.7732 59.2958 51.8058 59.2207 51.8337 59.1438C51.8518 59.1128 51.8669 59.0801 51.8787 59.0462H52.7564C52.9554 59.0462 53.1462 59.1253 53.2869 59.266C53.4275 59.4066 53.5066 59.5974 53.5066 59.7964C53.5066 60.3933 53.2695 60.9657 52.8474 61.3877C52.4254 61.8098 51.853 62.0469 51.2561 62.0469L28.7514 62.0094Z" fill="#161617"/>
<path d="M49.7559 41.7552H30.2518C29.655 41.7552 29.0825 41.9923 28.6605 42.4143C28.2385 42.8364 28.0014 43.4088 28.0014 44.0056V58.2586C28.0005 58.55 28.0592 58.8384 28.1739 59.1063C28.2018 59.1832 28.2344 59.2583 28.2714 59.3313C28.3221 59.4191 28.3772 59.5042 28.4364 59.5864C28.5819 59.7818 28.7565 59.9539 28.9541 60.0965C29.0421 60.1586 29.1349 60.2138 29.2316 60.2615C29.3444 60.3199 29.4625 60.3676 29.5842 60.404C29.6746 60.4345 29.7675 60.457 29.8617 60.4716C29.9904 60.4954 30.121 60.5079 30.2518 60.5091H49.7559C49.8857 60.5204 50.0162 60.5204 50.146 60.5091C50.2402 60.4946 50.3331 60.472 50.4235 60.4416C50.5452 60.4051 50.6633 60.3574 50.7761 60.299C50.8728 60.2513 50.9656 60.1961 51.0537 60.134C51.2512 59.9914 51.4258 59.8194 51.5713 59.6239C51.6305 59.5417 51.6856 59.4566 51.7363 59.3688C51.7733 59.2958 51.8059 59.2207 51.8338 59.1438C51.9536 58.8643 52.0124 58.5626 52.0064 58.2586V44.0056C52.0064 43.4088 51.7692 42.8364 51.3472 42.4143C50.9252 41.9923 50.3527 41.7552 49.7559 41.7552ZM49.7559 59.0088H30.2518C30.0529 59.0088 29.8621 58.9297 29.7214 58.789C29.5807 58.6484 29.5017 58.4576 29.5017 58.2586V44.0056C29.5017 43.8067 29.5807 43.6159 29.7214 43.4752C29.8621 43.3345 30.0529 43.2555 30.2518 43.2555H49.7559C49.9548 43.2555 50.1456 43.3345 50.2863 43.4752C50.427 43.6159 50.506 43.8067 50.506 44.0056V58.2586C50.506 58.4576 50.427 58.6484 50.2863 58.789C50.1456 58.9297 49.9548 59.0088 49.7559 59.0088Z" fill="#161617"/>
<path opacity="0.5" d="M42.6969 51.1096C42.8928 50.7747 42.9987 50.3948 43.0045 50.0069C43.0032 49.5426 42.8583 49.09 42.5897 48.7113C42.3211 48.3326 41.9419 48.0462 41.5041 47.8914V47.0063C41.5041 46.8073 41.4251 46.6165 41.2844 46.4758C41.1437 46.3351 40.9529 46.2561 40.754 46.2561C40.555 46.2561 40.3642 46.3351 40.2235 46.4758C40.0829 46.6165 40.0038 46.8073 40.0038 47.0063V47.7564H39.2537V47.0063C39.2537 46.8073 39.1746 46.6165 39.034 46.4758C38.8933 46.3351 38.7025 46.2561 38.5035 46.2561C38.3046 46.2561 38.1138 46.3351 37.9731 46.4758C37.8324 46.6165 37.7534 46.8073 37.7534 47.0063V47.7564H37.0032C36.8043 47.7564 36.6134 47.8355 36.4728 47.9761C36.3321 48.1168 36.2531 48.3076 36.2531 48.5066C36.2531 48.7055 36.3321 48.8963 36.4728 49.037C36.6134 49.1777 36.8043 49.2567 37.0032 49.2567V53.7577C36.8043 53.7577 36.6134 53.8367 36.4728 53.9774C36.3321 54.1181 36.2531 54.3089 36.2531 54.5078C36.2531 54.7068 36.3321 54.8976 36.4728 55.0383C36.6134 55.1789 36.8043 55.258 37.0032 55.258H37.7534V56.0081C37.7534 56.2071 37.8324 56.3979 37.9731 56.5386C38.1138 56.6793 38.3046 56.7583 38.5035 56.7583C38.7025 56.7583 38.8933 56.6793 39.034 56.5386C39.1746 56.3979 39.2537 56.2071 39.2537 56.0081V55.258H40.0038V56.0081C40.0038 56.2071 40.0829 56.3979 40.2235 56.5386C40.3642 56.6793 40.555 56.7583 40.754 56.7583C40.9529 56.7583 41.1437 56.6793 41.2844 56.5386C41.4251 56.3979 41.5041 56.2071 41.5041 56.0081V55.258C41.9897 55.2544 42.4611 55.0939 42.8479 54.8004C43.2348 54.5069 43.5163 54.0961 43.6505 53.6294C43.7846 53.1628 43.7643 52.6652 43.5924 52.2111C43.4206 51.7569 43.1064 51.3705 42.6969 51.1096ZM40.754 49.2567C40.9529 49.2567 41.1437 49.3358 41.2844 49.4764C41.4251 49.6171 41.5041 49.8079 41.5041 50.0069C41.5041 50.2058 41.4251 50.3966 41.2844 50.5373C41.1437 50.678 40.9529 50.757 40.754 50.757H38.5035V49.2567H40.754ZM41.5041 53.7577H38.5035V52.2574H41.5041C41.7031 52.2574 41.8939 52.3364 42.0346 52.4771C42.1753 52.6178 42.2543 52.8086 42.2543 53.0075C42.2543 53.2065 42.1753 53.3973 42.0346 53.538C41.8939 53.6786 41.7031 53.7577 41.5041 53.7577Z" fill="#161617"/>
<path d="M56.1997 45.5659C55.8865 42.8776 54.6705 40.375 52.7506 38.4673C50.8306 36.5596 48.3203 35.3597 45.63 35.0638C45.5507 35.0487 45.4692 35.0487 45.3899 35.0638C44.6492 35.2557 43.8977 35.4035 43.1395 35.5063L42.7419 35.5589H42.4343C42.1192 35.5589 41.8042 35.6189 41.5116 35.6339H41.2791H41.1891H41.129C40.994 35.6339 40.8665 35.6789 40.7165 35.7014C40.6165 35.707 40.5163 35.707 40.4164 35.7014H39.7187H39.3437L38.9086 35.7539H38.6685H38.406L37.9859 35.7164C37.6708 35.7164 37.3708 35.6714 37.0632 35.6264L36.0955 35.4838H36.0505C35.7204 35.4238 35.4053 35.3563 35.0978 35.2813L34.6627 35.1763C34.5737 35.1574 34.4817 35.1574 34.3926 35.1763C33.511 35.2709 32.6428 35.4647 31.8046 35.7539C29.6841 36.4769 27.8098 37.7819 26.3957 39.5196C24.9816 41.2573 24.0849 43.3578 23.8079 45.5809L22.0001 62.6845C21.9893 62.7885 22.0005 62.8937 22.0328 62.9931C22.0651 63.0926 22.1178 63.1842 22.1876 63.2621C22.2586 63.3408 22.3454 63.4035 22.4424 63.4462C22.5394 63.4888 22.6443 63.5105 22.7502 63.5097H57.2574C57.3621 63.5094 57.4655 63.4873 57.5611 63.4446C57.6568 63.402 57.7424 63.3398 57.8125 63.2621C57.8836 63.1849 57.9378 63.0935 57.9714 62.994C58.005 62.8945 58.0173 62.7891 58.0076 62.6845L56.1997 45.5659ZM39.0286 35.8139C39.0908 35.8496 39.1487 35.8924 39.2011 35.9414C39.1453 35.8955 39.085 35.8552 39.0211 35.8214L39.0286 35.8139ZM23.5829 62.0094L25.2932 45.746C25.5641 43.4199 26.6095 41.2524 28.2613 39.5924C29.9132 37.9324 32.0754 36.8764 34.4001 36.5941L34.7602 36.6766C35.0603 36.7516 35.3603 36.8116 35.6379 36.8641H35.8179H35.9905H36.0655H36.208L36.6806 36.9316L37.0407 36.9767H37.1382H37.3633L37.8584 37.0142H38.0234H38.646L39.1261 37.0967L39.6062 37.1342H40.4239C40.5896 37.1276 40.7548 37.1126 40.919 37.0892L41.3241 37.0217H41.4141H41.4591H41.5041C41.8567 37.0217 42.2018 36.9767 42.4643 36.9466H42.7344H42.8094L43.297 36.8791H43.357L44.0021 36.7816H44.1522L44.3547 36.7441C44.476 36.7257 44.5962 36.7007 44.7148 36.6691C45.0098 36.6091 45.3024 36.5416 45.5925 36.4665C47.9354 36.7545 50.112 37.8267 51.7682 39.5088C53.4244 41.1909 54.4627 43.3838 54.7144 45.731L56.4247 62.0094H23.5829ZM41.3841 37.2092C41.1851 37.2291 40.9864 37.1691 40.8317 37.0425C40.6769 36.9159 40.5788 36.733 40.5589 36.5341C40.539 36.3351 40.599 36.1364 40.7256 35.9816C40.8522 35.8269 41.0351 35.7288 41.2341 35.7089H41.144H41.084C40.949 35.7089 40.8215 35.7539 40.6714 35.7764C40.5715 35.782 40.4713 35.782 40.3714 35.7764H39.6737H39.2987L38.9086 35.7539H38.7585C38.9292 35.7905 39.0817 35.8854 39.1898 36.0223C39.298 36.1593 39.355 36.3296 39.3512 36.5041C39.3325 36.6897 39.2453 36.8618 39.1066 36.9866C38.9679 37.1115 38.7876 37.1801 38.601 37.1792H38.6385L39.1186 37.2617L39.5987 37.2992H40.4164C40.5821 37.2927 40.7473 37.2777 40.9115 37.2542L41.3166 37.1867H41.4066L41.3841 37.2092ZM39.0211 35.8064C39.0833 35.8421 39.1412 35.8849 39.1936 35.9339C39.1405 35.8858 39.0827 35.843 39.0211 35.8064ZM42.7719 36.8266H42.7344C42.3469 36.9741 41.948 37.0895 41.5416 37.1717H41.5041C41.8567 37.1717 42.2018 37.1267 42.4643 37.0967H42.7344H42.8094L42.7719 36.8266Z" fill="#161617"/>
<path opacity="0.5" d="M54.2568 62.0094C54.7482 61.3625 55.0119 60.5713 55.0069 59.7589C55.0069 59.1621 54.7698 58.5896 54.3478 58.1676C53.9257 57.7455 53.3533 57.5084 52.7565 57.5084H52.0063V44.0056C52.0063 43.4088 51.7692 42.8364 51.3472 42.4143C50.9251 41.9923 50.3527 41.7552 49.7558 41.7552H30.2518C29.6549 41.7552 29.0825 41.9923 28.6605 42.4143C28.2384 42.8364 28.0013 43.4088 28.0013 44.0056V57.5084H27.2512C26.6543 57.5084 26.0819 57.7455 25.6598 58.1676C25.2378 58.5896 25.0007 59.1621 25.0007 59.7589C24.9974 60.571 25.261 61.3617 25.7508 62.0094H23.5829L25.2932 45.746C25.5641 43.4199 26.6095 41.2525 28.2613 39.5925C29.9132 37.9325 32.0754 36.8764 34.4001 36.5941L34.7602 36.6766C35.0603 36.7516 35.3603 36.8116 35.6379 36.8641H35.8179H35.9605H36.0355H36.178L36.6506 36.9317L37.0107 36.9767H37.1082H37.3333H37.4458L37.9934 37.0217H38.1284H38.2784H38.616L39.0961 37.1042L39.5762 37.1417H40.3939C40.5596 37.1352 40.7248 37.1201 40.889 37.0967L41.2941 37.0292C41.3388 37.0363 41.3844 37.0363 41.4291 37.0292C41.4291 37.0292 41.4291 37.0292 41.4666 37.0292C41.8192 37.0292 42.1643 36.9842 42.4268 36.9542H42.6969H42.7719L43.2595 36.8866H43.3195L43.8821 36.8116H43.9496C44.0681 36.7977 44.1858 36.7777 44.3022 36.7516C44.4235 36.7332 44.5437 36.7082 44.6623 36.6766L45.1799 36.5716L45.54 36.4741C47.8912 36.7506 50.0791 37.8169 51.7457 39.4985C53.4122 41.18 54.4589 43.3773 54.7144 45.731L56.4247 62.0094H54.2568Z" fill="#161617"/>
<path d="M47.1828 26.3695L47.2803 26.4595C47.3512 26.529 47.4075 26.6118 47.4462 26.7032C47.4848 26.7947 47.5049 26.8928 47.5053 26.9921V29.8427C47.5112 30.587 47.4049 31.3279 47.1903 32.0406C47.1528 32.1607 47.1077 32.2957 47.0627 32.4232C46.9398 32.7637 46.7918 33.0947 46.6201 33.4134L46.6201 33.4136C46.5526 33.5336 46.4851 33.6535 46.4101 33.7735C46.3271 33.918 46.237 34.0582 46.14 34.1936C45.9389 34.4785 45.7183 34.7492 45.4799 35.0038C45.357 35.0161 45.2328 35.0085 45.1123 34.9813C44.9452 35.1645 44.7647 35.335 44.5722 35.4914C44.1251 35.8634 43.6368 36.1831 43.1169 36.4441L43.0419 36.4816L42.5093 36.7066C42.1218 36.8541 41.7229 36.9695 41.3165 37.0517H41.279H41.234H41.144L40.7389 37.1192C40.5748 37.1427 40.4095 37.1577 40.2438 37.1642H39.4261L38.946 37.1267L38.4659 37.0442H38.3909H38.2784C38.0834 37.0067 37.9033 36.9617 37.7158 36.9092H37.5883L37.4082 36.8491L37.1007 36.7366L37.0181 36.6991L36.5981 36.5266H36.5455H36.478C36.3355 36.4591 36.193 36.3765 36.0504 36.294C35.9378 36.2351 35.8299 36.1673 35.7279 36.0915L35.6529 36.039L35.5103 35.949L35.3603 35.8364L35.1277 35.6564L34.9627 35.5214L34.7977 35.3788C34.7302 35.3263 34.6252 35.2213 34.5202 35.1163L34.5201 35.1163L34.4826 35.0713L34.3701 34.9438C34.2951 34.8687 34.2201 34.7862 34.1525 34.7037L34.025 34.5612C33.7449 34.2283 33.4939 33.8719 33.2749 33.4959C33.1859 33.3457 33.1057 33.1904 33.0348 33.0309V32.9858C32.9691 32.8519 32.9115 32.7141 32.8623 32.5733L32.7798 32.3782C32.7798 32.3332 32.8173 32.3632 32.7798 32.3332C32.7422 32.3032 32.7422 32.2657 32.7422 32.2207V32.1532C32.7214 32.1018 32.7038 32.0492 32.6897 31.9956C32.6875 31.9732 32.6875 31.9506 32.6897 31.9281C32.687 31.8932 32.687 31.8581 32.6897 31.8231C32.6678 31.7619 32.6502 31.6992 32.6372 31.6356C32.6175 31.5717 32.6025 31.5065 32.5922 31.4405C32.5397 31.358 32.5397 31.283 32.5397 31.208C32.5366 31.173 32.5366 31.1379 32.5397 31.103V31.0279C32.5236 30.9561 32.511 30.8835 32.5022 30.8104V30.5028C32.5034 30.2569 32.521 30.0113 32.5547 29.7677V26.9171C32.5551 26.8178 32.5752 26.7196 32.6139 26.6282C32.6525 26.5368 32.7089 26.4539 32.7798 26.3845L32.8173 26.347C33.093 26.1049 33.3809 25.877 33.6799 25.6643C33.9207 25.4902 34.1711 25.3299 34.4301 25.1842C35.4066 24.5959 36.4699 24.1655 37.5808 23.909C37.8958 23.8339 38.2709 23.8039 38.541 23.7289C38.811 23.6539 39.0811 23.6539 39.3511 23.6539H40.0038C42.6472 23.6567 45.1992 24.622 47.1828 26.3695Z" fill="#161617"/>
<path d="M50.9486 31.9131L49.5833 29.3701C49.4558 29.1375 49.3207 28.905 49.1782 28.6874C49.0357 28.4774 48.9006 28.2673 48.7506 28.0723C48.6006 27.8773 48.4805 27.7122 48.3305 27.5397C48.1805 27.3671 48.0455 27.2096 47.8954 27.0521C47.8292 26.9784 47.7591 26.9083 47.6854 26.842C47.5579 26.7145 47.4303 26.587 47.2953 26.4745C47.187 26.3793 47.0536 26.3174 46.911 26.2961C46.7684 26.2748 46.6227 26.2951 46.4913 26.3544C46.36 26.4138 46.2485 26.5097 46.1702 26.6308C46.0919 26.7519 46.0502 26.8929 46.05 27.0371V29.8877C46.0527 30.4748 45.9667 31.059 45.795 31.6205C45.795 31.7256 45.7275 31.8306 45.6825 31.9581C45.3123 32.9493 44.6921 33.8279 43.8821 34.5086C43.5373 34.8013 43.1597 35.0531 42.7569 35.2588H42.6893H42.6443C42.5148 35.3284 42.3792 35.3862 42.2392 35.4313C41.9496 35.5456 41.651 35.6359 41.3466 35.7014H41.2866C41.0876 35.7213 40.9047 35.8194 40.7781 35.9741C40.6515 36.1289 40.5915 36.3276 40.6114 36.5266C40.6313 36.7255 40.7294 36.9084 40.8842 37.035C41.0389 37.1616 41.2376 37.2216 41.4366 37.2017H41.5116H41.5041C41.8567 37.2017 42.2017 37.1567 42.4643 37.1267H42.7344V36.8641H42.7719L42.8319 37.1342L43.3195 37.0667H43.3795L43.9421 36.9917H44.0096H44.1597L44.3622 36.9541C44.4835 36.9358 44.6037 36.9107 44.7223 36.8791L45.2399 36.7741L45.5999 36.6766L45.7425 36.6391L46.5451 36.4065C46.8152 36.3165 47.0703 36.234 47.2953 36.144L47.5654 36.039L48.2105 35.7539L48.2855 35.7164L48.4055 35.6564L48.6606 35.5213L48.9606 35.3413L49.2307 35.1688C49.4126 35.0429 49.5879 34.9077 49.7558 34.7637C49.784 34.748 49.8093 34.7277 49.8308 34.7037C50.3171 34.311 50.6857 33.7919 50.8961 33.2034C50.937 33.0909 50.9696 32.9756 50.9936 32.8583C51.0184 32.7449 51.031 32.6293 51.0311 32.5132C51.0347 32.4708 51.0347 32.4281 51.0311 32.3857C51.0597 32.2234 51.0305 32.0561 50.9486 31.9131ZM49.4483 32.5957C49.3187 32.9528 49.0928 33.267 48.7956 33.5034L48.7281 33.5634L48.428 33.8035C48.3247 33.8606 48.2245 33.9232 48.128 33.991L47.9329 34.1036L47.7154 34.2236L47.6179 34.2686C47.4153 34.3661 47.2053 34.4561 46.9727 34.5536L46.7627 34.6362C46.5526 34.7187 46.3276 34.8012 46.1026 34.8687C45.8775 34.9362 45.63 35.0112 45.3524 35.0788L45.4799 35.0037C45.7183 34.7492 45.9389 34.4785 46.1401 34.1936C46.237 34.0581 46.3272 33.9179 46.4101 33.7735C46.4851 33.6535 46.5526 33.5334 46.6202 33.4134C46.7918 33.0947 46.9398 32.7637 47.0628 32.4232C47.1078 32.2957 47.1528 32.1606 47.1903 32.0406C47.405 31.3279 47.5112 30.587 47.5053 29.8427V28.9125L47.5654 28.9875C47.6629 29.115 47.7454 29.2425 47.8354 29.3701C47.9254 29.4976 48.128 29.8352 48.263 30.1202L49.5233 32.4682C49.5121 32.512 49.4971 32.5547 49.4783 32.5957H49.4483Z" fill="#161617"/>
<path opacity="0.5" d="M49.5233 32.4307C49.5141 32.4847 49.499 32.5375 49.4783 32.5882C49.3417 32.9517 49.105 33.269 48.7956 33.5034L48.7281 33.5634L48.4281 33.8035C48.3247 33.8606 48.2246 33.9232 48.128 33.991L47.933 34.1036L47.7154 34.2236L47.6179 34.2686C47.4153 34.3661 47.2053 34.4561 46.9728 34.5537L46.7627 34.6362C46.5527 34.7187 46.3276 34.8012 46.1026 34.8687C45.8775 34.9362 45.63 35.0112 45.3524 35.0788L45.4799 35.0037C45.7183 34.7492 45.9389 34.4785 46.1401 34.1936C46.2371 34.0581 46.3272 33.9179 46.4101 33.7735C46.4852 33.6535 46.5527 33.5334 46.6202 33.4134C46.7919 33.0947 46.9398 32.7637 47.0628 32.4232C47.1078 32.2957 47.1528 32.1607 47.1903 32.0406C47.405 31.3279 47.5112 30.587 47.5054 29.8427V28.9125L47.5654 28.9875C47.6554 29.1075 47.7454 29.235 47.8354 29.3701C47.9855 29.6026 48.128 29.8352 48.263 30.1202L49.5233 32.4307Z" fill="#161617"/>
<path d="M32.5623 30.7954C32.5711 30.8685 32.5837 30.9411 32.5998 31.0129C32.5998 31.0354 32.5623 31.0879 32.5623 31.0879C32.5587 31.058 32.5587 31.0278 32.5623 30.9979C32.5587 30.9305 32.5587 30.8628 32.5623 30.7954Z" fill="#161617"/>
<path opacity="0.5" d="M34.6477 35.1013L33.8976 34.8912C33.6575 34.8162 33.4325 34.7337 33.2149 34.6512C32.9974 34.5687 32.6373 34.4186 32.4047 34.3061L32.2997 34.2536C32.2327 34.2108 32.1625 34.1731 32.0897 34.1411L31.9997 34.0886L31.7521 33.9385L31.4971 33.766L31.3245 33.6385L31.227 33.5034H31.1895L30.9644 33.2859C30.885 33.2022 30.8099 33.1146 30.7394 33.0233C30.7142 32.973 30.684 32.9252 30.6494 32.8808C30.5927 32.7672 30.5451 32.6493 30.5068 32.5282C30.5026 32.4959 30.5026 32.4631 30.5068 32.4307L31.7521 30.0902C31.8496 29.9102 31.9546 29.7302 32.0672 29.5576C32.1797 29.3851 32.2097 29.3326 32.2847 29.22C32.3522 29.115 32.4272 29.0175 32.5023 28.92V29.8502C32.4895 30.0675 32.4895 30.2855 32.5023 30.5028C32.5023 30.6078 32.5023 30.7129 32.5023 30.8104C32.4986 30.8778 32.4986 30.9455 32.5023 31.0129C32.4986 31.0428 32.4986 31.073 32.5023 31.1029C32.4991 31.1379 32.4991 31.173 32.5023 31.208C32.5023 31.283 32.5023 31.358 32.5548 31.4405C32.5651 31.5065 32.5801 31.5717 32.5998 31.6355C32.6128 31.6992 32.6303 31.7619 32.6523 31.8231C32.6495 31.858 32.6495 31.8932 32.6523 31.9281C32.6501 31.9506 32.6501 31.9732 32.6523 31.9956C32.6664 32.0492 32.6839 32.1018 32.7048 32.1532V32.2207C32.7048 32.2657 32.7048 32.3032 32.7423 32.3332C32.7798 32.3632 32.7423 32.3332 32.7423 32.3782L32.8248 32.5732C32.8741 32.7141 32.9317 32.8519 32.9974 32.9858V33.0308C33.0683 33.1904 33.1484 33.3457 33.2374 33.4959C33.4565 33.8719 33.7075 34.2282 33.9876 34.5612L34.1151 34.7037C34.1826 34.7862 34.2576 34.8687 34.3326 34.9437L34.6477 35.1013Z" fill="#161617"/>
<path d="M49.1632 23.8789L48.5556 22.5887C48.4731 22.4161 48.3831 22.2436 48.293 22.0636C47.2129 20.0396 45.4509 18.4636 43.3195 17.6151C43.1418 17.5394 42.9588 17.4767 42.7719 17.4276C42.6218 17.3747 42.4691 17.3296 42.3143 17.2926C42.2488 17.2681 42.1809 17.2505 42.1118 17.2401L41.8642 17.1875L41.6617 17.1425H41.4366C41.1966 17.1425 40.964 17.0825 40.6865 17.0525C40.2569 17.0225 39.8258 17.0225 39.3962 17.0525H39.2537C39.0211 17.0525 38.7811 17.0975 38.586 17.135C38.4447 17.1485 38.3044 17.171 38.1659 17.2025L37.8659 17.2626C37.7967 17.273 37.7288 17.2906 37.6633 17.3151C37.5287 17.3446 37.3959 17.3822 37.2658 17.4276C37.072 17.4811 36.8816 17.5462 36.6956 17.6226C34.5592 18.4234 32.7971 19.9904 31.7521 22.0185C31.681 22.1287 31.6183 22.244 31.5646 22.3636L30.8144 23.8639C29.5935 26.4963 28.9636 29.364 28.969 32.2657C28.9654 32.3081 28.9654 32.3508 28.969 32.3932C28.9942 32.5372 29.0608 32.6707 29.1607 32.7773C29.2607 32.8839 29.3896 32.959 29.5316 32.9933C29.6935 33.033 29.8639 33.0176 30.016 32.9497C30.1681 32.8818 30.2933 32.7652 30.3718 32.6183L30.4768 32.4307L31.7521 30.0902C31.8496 29.9102 31.9546 29.7302 32.0672 29.5576C32.1336 29.4413 32.2062 29.3286 32.2847 29.22C32.3522 29.115 32.4272 29.0175 32.5023 28.92C32.8734 28.4015 33.3011 27.926 33.7775 27.5022L33.2524 26.9771L33.83 27.4647L33.9876 27.3297C34.2857 27.0829 34.5989 26.8549 34.9253 26.647C35.0603 26.557 35.2028 26.467 35.3529 26.3845C35.8473 26.1034 36.3672 25.8698 36.9057 25.6868L37.1832 25.5893C37.3109 25.5439 37.4411 25.5063 37.5733 25.4768C37.8199 25.4031 38.0703 25.343 38.3235 25.2967L38.7286 25.2367C38.9298 25.2056 39.1327 25.1855 39.3362 25.1767C39.5387 25.1767 39.7488 25.1767 39.9513 25.1767C40.1539 25.1767 40.3639 25.1767 40.5664 25.1767C40.7724 25.1852 40.9778 25.2052 41.1816 25.2367L41.5641 25.2967C41.7055 25.317 41.8457 25.3445 41.9842 25.3792L42.3818 25.4768C42.8974 25.6169 43.3995 25.8027 43.8821 26.0319L44.1822 26.1744L44.3922 26.2869C44.9005 26.5587 45.3805 26.8803 45.825 27.2471L45.9301 27.3372L46.0501 27.4347L46.1851 27.5547C46.6718 27.954 47.1144 28.4041 47.5054 28.8975L47.5654 28.9725C47.6629 29.1 47.7454 29.2275 47.8355 29.3551C47.9255 29.4826 48.128 29.8202 48.263 30.1052L49.5233 32.4532L49.6283 32.6333C49.6921 32.753 49.7872 32.8533 49.9034 32.9233C50.0197 32.9933 50.1528 33.0305 50.2885 33.0308C50.3483 33.0381 50.4087 33.0381 50.4685 33.0308C50.6105 32.9965 50.7395 32.9214 50.8394 32.8148C50.9394 32.7082 51.006 32.5747 51.0311 32.4307C51.0347 32.3883 51.0347 32.3456 51.0311 32.3032C51.0343 29.3921 50.3965 26.5159 49.1632 23.8789ZM48.3306 27.5022C48.1955 27.3297 48.0455 27.1721 47.8955 27.0146C47.8293 26.9409 47.7591 26.8708 47.6854 26.8045C47.5579 26.677 47.4304 26.5495 47.2953 26.437L47.1978 26.3469C45.2071 24.6042 42.6495 23.6468 40.0038 23.6539H39.3512C39.0811 23.6539 38.8111 23.6539 38.541 23.7289C38.271 23.8039 37.8959 23.8339 37.5808 23.9089C36.47 24.1655 35.4067 24.5959 34.4302 25.1842C34.1751 25.3342 33.9276 25.4918 33.68 25.6643C33.381 25.877 33.0931 26.1048 32.8173 26.3469L33.3199 26.8871L32.7423 26.3995C32.5698 26.5495 32.3972 26.707 32.2397 26.8721C32.0822 27.0371 31.9396 27.1871 31.7896 27.3522L31.6996 27.4572C31.5871 27.5922 31.482 27.7272 31.377 27.8698L31.257 28.0273C31.107 28.2223 30.9719 28.4249 30.8444 28.6274C31.1292 27.2034 31.5825 25.8184 32.1947 24.5016L32.9449 23.0013C32.9806 22.9216 33.0207 22.844 33.0649 22.7687C33.959 21.0297 35.4747 19.6907 37.3108 19.0179C37.4531 18.9458 37.6011 18.8856 37.7534 18.8379L38.1359 18.7329H38.2034L38.5035 18.6503L38.8411 18.5978C39.0361 18.5978 39.2312 18.5453 39.4412 18.5228C39.8157 18.4928 40.192 18.4928 40.5664 18.5228C40.769 18.5228 40.9715 18.5603 41.2116 18.5978H41.3241H41.4591H41.5792C41.6542 18.5978 41.7217 18.5978 41.7967 18.6428H41.8642L42.3068 18.7704C42.4479 18.8067 42.5859 18.8544 42.7194 18.9129C44.5246 19.6274 46.02 20.9555 46.9428 22.6637C47.0178 22.8062 47.0928 22.9487 47.1678 23.1138L47.8054 24.5016C48.4303 25.8285 48.8913 27.2266 49.1782 28.6649C49.0357 28.4549 48.9007 28.2448 48.7506 28.0498C48.6006 27.8548 48.4806 27.7047 48.3306 27.5022Z" fill="#161617"/>
<path opacity="0.5" d="M49.1783 28.6799C49.0357 28.4699 48.9007 28.2599 48.7507 28.0648C48.6006 27.8698 48.4806 27.7047 48.3306 27.5322C48.1806 27.3597 48.0455 27.2021 47.8955 27.0446C47.8293 26.9709 47.7592 26.9008 47.6855 26.8346C47.5579 26.707 47.4304 26.5795 47.2954 26.467L47.1979 26.377C45.2116 24.6234 42.6535 23.6551 40.0039 23.6539H39.3512C39.0812 23.6539 38.8111 23.6539 38.5411 23.7289C38.271 23.8039 37.8959 23.8339 37.5809 23.909C36.47 24.1655 35.4067 24.5959 34.4302 25.1842C34.1712 25.3299 33.9208 25.4902 33.68 25.6643C33.381 25.877 33.0931 26.1049 32.8174 26.347L32.7799 26.3845C32.6073 26.5345 32.4348 26.692 32.2772 26.8571C32.1197 27.0221 31.9772 27.1721 31.8272 27.3372L31.7371 27.4422C31.6246 27.5772 31.5196 27.7122 31.4146 27.8548L31.2945 28.0123C31.1445 28.2074 31.0095 28.4099 30.882 28.6124C31.1559 27.1952 31.5965 25.8153 32.1947 24.5016L32.9449 23.0013C32.9806 22.9216 33.0207 22.844 33.0649 22.7687C33.959 21.0297 35.4747 19.6907 37.3108 19.0179C37.4531 18.9458 37.6012 18.8856 37.7534 18.8379L38.136 18.7329H38.2035L38.5035 18.6504L38.8411 18.5978C39.0362 18.5978 39.2312 18.5453 39.4412 18.5228C39.8157 18.4928 40.192 18.4928 40.5665 18.5228C40.769 18.5228 40.9716 18.5603 41.2116 18.5978H41.3241H41.4592H41.5792C41.6542 18.5978 41.7217 18.5978 41.7967 18.6429H41.8642L42.3068 18.7704C42.448 18.8067 42.586 18.8544 42.7194 18.9129C44.5246 19.6274 46.0201 20.9555 46.9428 22.6637C47.0178 22.8062 47.0928 22.9488 47.1678 23.1138L47.8055 24.5016C48.4315 25.8333 48.8925 27.2365 49.1783 28.6799Z" fill="#161617"/>
</g>
<defs>
<linearGradient id="paint0_linear_4_4579" x1="80" y1="40" x2="-2.62962e-07" y2="40" gradientUnits="userSpaceOnUse">
<stop stop-color="#FF9085"/>
<stop offset="1" stop-color="#FB6FBB"/>
</linearGradient>
<clipPath id="clip0_4_4579">
<rect width="36" height="46.5097" fill="white" transform="translate(22 17)"/>
</clipPath>
</defs>
</svg>
