
<svg width="80" height="80" viewBox="0 0 80 80" fill="none" xmlns="http://www.w3.org/2000/svg">
<circle cx="40" cy="40" r="40" fill="url(#paint0_linear_4_4601)"/>
<g clip-path="url(#clip0_4_4601)">
<path d="M38.0715 43.6964C38.0772 43.6667 38.0772 43.6362 38.0715 43.6064C38.0401 43.5298 37.9943 43.46 37.9365 43.4007C37.8704 43.3346 37.7908 43.2837 37.7031 43.2515C37.6154 43.2193 37.5217 43.2066 37.4286 43.2143H26.5C26.3295 43.2143 26.166 43.282 26.0455 43.4026C25.9249 43.5231 25.8572 43.6866 25.8572 43.8571V57.3571C25.8572 57.5276 25.9249 57.6912 26.0455 57.8117C26.166 57.9323 26.3295 58 26.5 58H37.4286C37.5991 58 37.7626 57.9323 37.8832 57.8117C38.0037 57.6912 38.0715 57.5276 38.0715 57.3571V43.8571C38.0812 43.804 38.0812 43.7496 38.0715 43.6964ZM27.1429 56.7143V44.5H36.7857V56.7143H27.1429Z" fill="#161617"/>
<path opacity="0.5" d="M36.7857 44.5V56.7143H33.5714V54.1429C33.5714 53.9724 33.5037 53.8088 33.3831 53.6883C33.2625 53.5677 33.099 53.5 32.9285 53.5H31C30.8295 53.5 30.666 53.5677 30.5454 53.6883C30.4248 53.8088 30.3571 53.9724 30.3571 54.1429V56.7143H27.1428V44.5H36.7857Z" fill="#161617"/>
<path d="M38.0715 43.6964C38.0772 43.6667 38.0772 43.6361 38.0715 43.6064C38.0401 43.5298 37.9943 43.4599 37.9365 43.4007L37.6986 43.2143L37.4286 42.9443L34.0279 39.5436C33.9678 39.484 33.8966 39.4368 33.8183 39.4048C33.74 39.3729 33.6561 39.3566 33.5715 39.3571H22.6429C22.516 39.3578 22.3921 39.3959 22.2869 39.4669C22.1816 39.5378 22.0997 39.6383 22.0515 39.7557C22.0023 39.8728 21.9888 40.0018 22.0128 40.1265C22.0369 40.2512 22.0973 40.366 22.1865 40.4564L25.8572 44.1271L26.0436 44.3136C26.1037 44.3731 26.1749 44.4203 26.2533 44.4523C26.3316 44.4843 26.4155 44.5005 26.5001 44.5H37.4286C37.5991 44.5 37.7626 44.4323 37.8832 44.3117C38.0038 44.1911 38.0715 44.0276 38.0715 43.8571C38.0813 43.804 38.0813 43.7495 38.0715 43.6964ZM26.7636 43.2143L24.1922 40.6428H33.3079L35.8793 43.2143H26.7636Z" fill="#161617"/>
<path opacity="0.5" d="M35.8793 43.2143H26.7636L24.1921 40.6429H33.3079L35.8793 43.2143Z" fill="#161617"/>
<path d="M53.5002 43.2143H37.4287C37.3441 43.2138 37.2603 43.23 37.1819 43.262C37.1036 43.294 37.0324 43.3412 36.9723 43.4007C36.9145 43.46 36.8687 43.5298 36.8373 43.6064C36.8316 43.6362 36.8316 43.6667 36.8373 43.6964C36.81 43.7462 36.7926 43.8008 36.7859 43.8572V57.3572C36.7859 57.5277 36.8536 57.6912 36.9742 57.8117C37.0947 57.9323 37.2582 58 37.4287 58H53.5002C53.6707 58 53.8342 57.9323 53.9547 57.8117C54.0753 57.6912 54.143 57.5277 54.143 57.3572V43.8572C54.143 43.6867 54.0753 43.5232 53.9547 43.4026C53.8342 43.282 53.6707 43.2143 53.5002 43.2143ZM52.8573 56.7143H38.0716V44.5H52.8573V56.7143Z" fill="#161617"/>
<path opacity="0.5" d="M52.8572 44.5H38.0715V56.7143H52.8572V44.5Z" fill="#161617"/>
<path d="M57.9487 39.7557C57.9005 39.6383 57.8186 39.5378 57.7134 39.4669C57.6081 39.3959 57.4842 39.3578 57.3573 39.3571H41.2859C41.2013 39.3566 41.1174 39.3729 41.0391 39.4048C40.9608 39.4368 40.8895 39.484 40.8295 39.5436L37.4287 42.9443L37.1587 43.2143L36.9723 43.4007C36.9145 43.4599 36.8687 43.5298 36.8373 43.6064C36.8316 43.6361 36.8316 43.6667 36.8373 43.6964C36.81 43.7462 36.7926 43.8008 36.7859 43.8571C36.7859 44.0276 36.8536 44.1911 36.9742 44.3117C37.0947 44.4323 37.2582 44.5 37.4287 44.5H53.5002C53.5848 44.5005 53.6686 44.4843 53.747 44.4523C53.8253 44.4203 53.8965 44.3731 53.9566 44.3136L54.143 44.1271L57.8137 40.4564C57.9029 40.366 57.9634 40.2512 57.9874 40.1265C58.0114 40.0018 57.998 39.8728 57.9487 39.7557ZM53.2366 43.2143H38.978L41.5495 40.6428H55.808L53.2366 43.2143Z" fill="#161617"/>
<path opacity="0.5" d="M55.808 40.6429L53.2366 43.2143H38.978L41.5495 40.6429H55.808Z" fill="#161617"/>
<path d="M33.5715 56.7143H30.3572V57.3572H33.5715V56.7143Z" fill="#161617"/>
<path d="M48.3186 29.5214C48.1683 27.9821 47.5938 26.5146 46.659 25.2823C45.7241 24.0501 44.4657 23.1015 43.0237 22.542C41.5817 21.9826 40.0128 21.8343 38.4915 22.1136C36.9703 22.393 35.5564 23.089 34.4072 24.1243C33.2581 25.1596 32.4188 26.4934 31.9828 27.9774C31.5467 29.4614 31.5311 31.0372 31.9375 32.5296C32.344 34.0219 33.1566 35.3722 34.285 36.43C35.4133 37.4879 36.8131 38.2119 38.3286 38.5214C38.878 38.6407 39.4378 38.7053 40 38.7143C42.2164 38.7143 44.3421 37.8338 45.9094 36.2665C47.4766 34.6993 48.3571 32.5736 48.3571 30.3572C48.3571 30.0743 48.3571 29.8043 48.3186 29.5214ZM40 37.4286C39.525 37.4299 39.051 37.3826 38.5857 37.2872C37.3043 37.0261 36.1204 36.4147 35.1656 35.5212C34.2108 34.6276 33.5225 33.4868 33.1772 32.2255C32.8319 30.9642 32.843 29.6318 33.2095 28.3765C33.5759 27.1212 34.2833 25.9921 35.253 25.1147C36.2226 24.2373 37.4166 23.6459 38.7022 23.4063C39.9878 23.1668 41.3146 23.2884 42.5352 23.7577C43.7558 24.227 44.8224 25.0255 45.6164 26.0646C46.4104 27.1037 46.9007 28.3426 47.0328 29.6436C47.0589 29.8805 47.0718 30.1188 47.0714 30.3572C47.0714 32.2326 46.3264 34.0313 45.0002 35.3574C43.6741 36.6836 41.8754 37.4286 40 37.4286Z" fill="#161617"/>
<path opacity="0.5" d="M42.3273 30.0165C42.4868 29.727 42.5709 29.402 42.5716 29.0715C42.5705 28.6736 42.4463 28.2858 42.2161 27.9612C41.986 27.6367 41.661 27.3912 41.2859 27.2586V26.5C41.2859 26.3295 41.2182 26.166 41.0976 26.0455C40.977 25.9249 40.8135 25.8572 40.643 25.8572C40.4725 25.8572 40.309 25.9249 40.1885 26.0455C40.0679 26.166 40.0002 26.3295 40.0002 26.5V27.1429H39.3573V26.5C39.3573 26.3295 39.2896 26.166 39.169 26.0455C39.0485 25.9249 38.885 25.8572 38.7145 25.8572C38.544 25.8572 38.3805 25.9249 38.2599 26.0455C38.1393 26.166 38.0716 26.3295 38.0716 26.5V27.1429H37.4287C37.2582 27.1429 37.0947 27.2106 36.9742 27.3312C36.8536 27.4517 36.7859 27.6153 36.7859 27.7857C36.7859 27.9562 36.8536 28.1198 36.9742 28.2403C37.0947 28.3609 37.2582 28.4286 37.4287 28.4286V32.2857C37.2582 32.2857 37.0947 32.3535 36.9742 32.474C36.8536 32.5946 36.7859 32.7581 36.7859 32.9286C36.7859 33.0991 36.8536 33.2626 36.9742 33.3832C37.0947 33.5037 37.2582 33.5715 37.4287 33.5715H38.0716V34.2143C38.0716 34.3848 38.1393 34.5483 38.2599 34.6689C38.3805 34.7894 38.544 34.8572 38.7145 34.8572C38.885 34.8572 39.0485 34.7894 39.169 34.6689C39.2896 34.5483 39.3573 34.3848 39.3573 34.2143V33.5715H40.0002V34.2143C40.0002 34.3848 40.0679 34.5483 40.1885 34.6689C40.309 34.7894 40.4725 34.8572 40.643 34.8572C40.8135 34.8572 40.977 34.7894 41.0976 34.6689C41.2182 34.5483 41.2859 34.3848 41.2859 34.2143V33.5715C41.7036 33.5726 42.1105 33.438 42.4451 33.1879C42.7798 32.9379 43.0243 32.586 43.1417 32.1851C43.2592 31.7842 43.2433 31.356 43.0964 30.9649C42.9495 30.5738 42.6796 30.241 42.3273 30.0165ZM38.7145 28.4286H40.643C40.8135 28.4286 40.977 28.4963 41.0976 28.6169C41.2182 28.7375 41.2859 28.901 41.2859 29.0715C41.2859 29.242 41.2182 29.4055 41.0976 29.526C40.977 29.6466 40.8135 29.7143 40.643 29.7143H38.7145V28.4286ZM41.2859 32.2857H38.7145V31H41.2859C41.4564 31 41.6199 31.0678 41.7405 31.1883C41.861 31.3089 41.9287 31.4724 41.9287 31.6429C41.9287 31.8134 41.861 31.9769 41.7405 32.0975C41.6199 32.218 41.4564 32.2857 41.2859 32.2857Z" fill="#161617"/>
</g>
<defs>
<linearGradient id="paint0_linear_4_4601" x1="80" y1="40" x2="-2.62962e-07" y2="40" gradientUnits="userSpaceOnUse">
<stop stop-color="#FF9085"/>
<stop offset="1" stop-color="#FB6FBB"/>
</linearGradient>
<clipPath id="clip0_4_4601">
<rect width="36" height="36" fill="white" transform="translate(22 22)"/>
</clipPath>
</defs>
</svg>
