<svg width="22" height="22" viewBox="0 0 22 22" fill="none" xmlns="http://www.w3.org/2000/svg">
<g clip-path="url(#clip0_4_4401)">
<path d="M19.2783 0H8.27828C6.77249 0 5.55655 1.22618 5.55655 2.74465V5.41802H2.72879C1.23008 5.41802 0.00706941 6.63707 0 8.14841V19.2553C0 20.7667 1.22301 21.9929 2.72172 22H13.7217C15.2275 22 16.4434 20.7738 16.4434 19.2553V16.582H19.2712C20.7699 16.582 21.9929 15.3629 22 13.8516V2.74465C22 1.23331 20.777 0.00712897 19.2783 0ZM14.2661 19.2482C14.2661 19.5548 14.0257 19.7971 13.7217 19.7971H2.72172C2.42481 19.7971 2.18445 19.5476 2.17738 19.2482V8.14841C2.17738 7.84187 2.41774 7.59948 2.72172 7.59948H13.7217C14.0186 7.59948 14.259 7.83474 14.2661 8.13415C14.2661 8.13415 14.2661 8.14128 14.2661 8.14841V19.2553V19.2482ZM19.8226 13.8516C19.8226 14.1581 19.5823 14.4005 19.2783 14.4005H16.4505V8.14841C16.4505 6.62994 15.2346 5.40376 13.7288 5.40376H7.73393V2.74465C7.73393 2.43811 7.97429 2.19572 8.27828 2.19572H19.2783C19.5752 2.19572 19.8156 2.44524 19.8226 2.74465V13.8516Z" fill="white"/>
</g>
<defs>
<clipPath id="clip0_4_4401">
<rect width="22" height="22" fill="white"/>
</clipPath>
</defs>
</svg>
