<svg width="80" height="80" viewBox="0 0 80 80" fill="none" xmlns="http://www.w3.org/2000/svg">
<circle cx="40" cy="40" r="40" fill="url(#paint0_linear_4_4622)"/>
<g clip-path="url(#clip0_4_4622)">
<path d="M52.1564 38.7978C51.8727 35.8882 50.5548 33.1768 48.4422 31.1562C46.3295 29.1355 43.5622 27.9396 40.6428 27.7857H39.9999H39.3571C36.2112 27.9587 33.2538 29.3407 31.1028 31.6428C30.7204 32.045 30.368 32.4748 30.0485 32.9286C28.6371 34.8973 27.8488 37.2442 27.7856 39.6657C27.7856 39.775 27.7856 39.8907 27.7856 40C27.7856 40.405 27.7856 40.81 27.8435 41.2021C28.1272 44.1118 29.445 46.8232 31.5577 48.8438C33.6704 50.8645 36.4377 52.0604 39.3571 52.2143H39.9999H40.6428C43.7887 52.0413 46.7461 50.6593 48.8971 48.3571C49.2795 47.955 49.6319 47.5252 49.9514 47.0714C51.3628 45.1027 52.151 42.7558 52.2142 40.3343C52.2142 40.225 52.2142 40.1093 52.2142 40C52.2142 39.595 52.2142 39.19 52.1564 38.7978ZM39.9999 50.9286C37.8385 50.9286 35.7255 50.2876 33.9283 49.0868C32.1311 47.8859 30.7304 46.1791 29.9032 44.1822C29.0761 42.1852 28.8597 39.9879 29.2813 37.8679C29.703 35.748 30.7439 33.8007 32.2723 32.2723C33.8007 30.7439 35.7479 29.7031 37.8679 29.2814C39.9878 28.8597 42.1852 29.0762 44.1821 29.9033C46.1791 30.7305 47.8859 32.1312 49.0867 33.9284C50.2876 35.7256 50.9285 37.8385 50.9285 40C50.9285 42.8984 49.7771 45.6782 47.7276 47.7277C45.6781 49.7772 42.8984 50.9286 39.9999 50.9286Z" fill="#161617"/>
<path d="M52.1564 38.7978C51.8727 35.8882 50.5548 33.1768 48.4422 31.1562C46.3295 29.1355 43.5622 27.9396 40.6428 27.7857H39.9999H39.3571C36.2112 27.9587 33.2538 29.3407 31.1028 31.6428C30.7204 32.045 30.368 32.4748 30.0485 32.9286C28.6371 34.8973 27.8488 37.2442 27.7856 39.6657C27.7856 39.775 27.7856 39.8907 27.7856 40C27.7856 40.405 27.7856 40.81 27.8435 41.2021C28.1272 44.1118 29.445 46.8232 31.5577 48.8438C33.6704 50.8645 36.4377 52.0604 39.3571 52.2143H39.9999H40.6428C43.7887 52.0413 46.7461 50.6593 48.8971 48.3571C49.2795 47.955 49.6319 47.5252 49.9514 47.0714C51.3628 45.1027 52.151 42.7558 52.2142 40.3343C52.2142 40.225 52.2142 40.1093 52.2142 40C52.2142 39.595 52.2142 39.19 52.1564 38.7978ZM39.9999 50.9286C37.8385 50.9286 35.7255 50.2876 33.9283 49.0868C32.1311 47.8859 30.7304 46.1791 29.9032 44.1822C29.0761 42.1852 28.8597 39.9879 29.2813 37.8679C29.703 35.748 30.7439 33.8007 32.2723 32.2723C33.8007 30.7439 35.7479 29.7031 37.8679 29.2814C39.9878 28.8597 42.1852 29.0762 44.1821 29.9033C46.1791 30.7305 47.8859 32.1312 49.0867 33.9284C50.2876 35.7256 50.9285 37.8385 50.9285 40C50.9285 42.8984 49.7771 45.6782 47.7276 47.7277C45.6781 49.7772 42.8984 50.9286 39.9999 50.9286Z" fill="#161617"/>
<g opacity="0.5">
<path opacity="0.5" d="M41.0029 37.4286H38.0714V39.3571H41.0029C41.2479 39.3555 41.4823 39.2574 41.6556 39.0841C41.8288 38.9109 41.9269 38.6764 41.9286 38.4314V38.3543C41.9269 38.1093 41.8288 37.8748 41.6556 37.7016C41.4823 37.5283 41.2479 37.4303 41.0029 37.4286ZM41.0029 37.4286H38.0714V39.3571H41.0029C41.2479 39.3555 41.4823 39.2574 41.6556 39.0841C41.8288 38.9109 41.9269 38.6764 41.9286 38.4314V38.3543C41.9269 38.1093 41.8288 37.8748 41.6556 37.7016C41.4823 37.5283 41.2479 37.4303 41.0029 37.4286ZM41.0029 37.4286H38.0714V39.3571H41.0029C41.2479 39.3555 41.4823 39.2574 41.6556 39.0841C41.8288 38.9109 41.9269 38.6764 41.9286 38.4314V38.3543C41.9269 38.1093 41.8288 37.8748 41.6556 37.7016C41.4823 37.5283 41.2479 37.4303 41.0029 37.4286ZM41.6071 40.6429H38.0714V42.5714H41.6071C41.8629 42.5714 42.1082 42.4698 42.289 42.289C42.4698 42.1082 42.5714 41.8629 42.5714 41.6071C42.5714 41.3514 42.4698 41.1061 42.289 40.9253C42.1082 40.7445 41.8629 40.6429 41.6071 40.6429ZM41.6071 40.6429H38.0714V42.5714H41.6071C41.8629 42.5714 42.1082 42.4698 42.289 42.289C42.4698 42.1082 42.5714 41.8629 42.5714 41.6071C42.5714 41.3514 42.4698 41.1061 42.289 40.9253C42.1082 40.7445 41.8629 40.6429 41.6071 40.6429ZM41.0029 37.4286H38.0714V39.3571H41.0029C41.2479 39.3555 41.4823 39.2574 41.6556 39.0841C41.8288 38.9109 41.9269 38.6764 41.9286 38.4314V38.3543C41.9269 38.1093 41.8288 37.8748 41.6556 37.7016C41.4823 37.5283 41.2479 37.4303 41.0029 37.4286ZM41.9286 38.4314V38.3543C41.9269 38.1093 41.8288 37.8748 41.6556 37.7016C41.4823 37.5283 41.2479 37.4303 41.0029 37.4286H38.0714V39.3571H41.0029C41.2479 39.3555 41.4823 39.2574 41.6556 39.0841C41.8288 38.9109 41.9269 38.6764 41.9286 38.4314ZM41.6071 40.6429H38.0714V42.5714H41.6071C41.8629 42.5714 42.1082 42.4698 42.289 42.289C42.4698 42.1082 42.5714 41.8629 42.5714 41.6071C42.5714 41.3514 42.4698 41.1061 42.289 40.9253C42.1082 40.7445 41.8629 40.6429 41.6071 40.6429ZM40 31C38.22 31 36.4799 31.5278 34.9999 32.5168C33.5198 33.5057 32.3663 34.9113 31.6851 36.5558C31.0039 38.2004 30.8257 40.01 31.1729 41.7558C31.5202 43.5016 32.3774 45.1053 33.636 46.364C34.8947 47.6226 36.4984 48.4798 38.2442 48.8271C39.99 49.1743 41.7996 48.9961 43.4442 48.3149C45.0887 47.6337 46.4943 46.4802 47.4832 45.0001C48.4722 43.5201 49 41.78 49 40C49 37.6131 48.0518 35.3239 46.364 33.636C44.6761 31.9482 42.387 31 40 31ZM41.6071 43.8571H41.2857V44.5C41.2857 44.6705 41.218 44.834 41.0974 44.9546C40.9769 45.0751 40.8134 45.1429 40.6429 45.1429C40.4724 45.1429 40.3089 45.0751 40.1883 44.9546C40.0677 44.834 40 44.6705 40 44.5V43.8571H38.7143V44.5C38.7143 44.6705 38.6466 44.834 38.526 44.9546C38.4054 45.0751 38.2419 45.1429 38.0714 45.1429C37.9009 45.1429 37.7374 45.0751 37.6169 44.9546C37.4963 44.834 37.4286 44.6705 37.4286 44.5V43.8571H36.7857C36.6152 43.8571 36.4517 43.7894 36.3311 43.6689C36.2106 43.5483 36.1429 43.3848 36.1429 43.2143C36.1429 43.0438 36.2106 42.8803 36.3311 42.7597C36.4517 42.6392 36.6152 42.5714 36.7857 42.5714V37.4286C36.6152 37.4286 36.4517 37.3608 36.3311 37.2403C36.2106 37.1197 36.1429 36.9562 36.1429 36.7857C36.1429 36.6152 36.2106 36.4517 36.3311 36.3311C36.4517 36.2106 36.6152 36.1429 36.7857 36.1429H37.4286V35.5C37.4286 35.3295 37.4963 35.166 37.6169 35.0454C37.7374 34.9249 37.9009 34.8571 38.0714 34.8571C38.2419 34.8571 38.4054 34.9249 38.526 35.0454C38.6466 35.166 38.7143 35.3295 38.7143 35.5V36.1429H40V35.5C40 35.3295 40.0677 35.166 40.1883 35.0454C40.3089 34.9249 40.4724 34.8571 40.6429 34.8571C40.8134 34.8571 40.9769 34.9249 41.0974 35.0454C41.218 35.166 41.2857 35.3295 41.2857 35.5V36.1429C41.8186 36.2116 42.3083 36.472 42.6632 36.8754C43.0181 37.2788 43.214 37.7977 43.2143 38.335V38.4121C43.2185 38.8737 43.0743 39.3245 42.8029 39.6979C43.1282 39.8983 43.3962 40.1794 43.5809 40.5139C43.7656 40.8485 43.8608 41.225 43.8571 41.6071C43.8571 42.2039 43.6201 42.7762 43.1981 43.1981C42.7762 43.6201 42.2039 43.8571 41.6071 43.8571ZM41.9286 38.4314V38.3543C41.9269 38.1093 41.8288 37.8748 41.6556 37.7016C41.4823 37.5283 41.2479 37.4303 41.0029 37.4286H38.0714V39.3571H41.0029C41.2479 39.3555 41.4823 39.2574 41.6556 39.0841C41.8288 38.9109 41.9269 38.6764 41.9286 38.4314ZM41.6071 40.6429H38.0714V42.5714H41.6071C41.8629 42.5714 42.1082 42.4698 42.289 42.289C42.4698 42.1082 42.5714 41.8629 42.5714 41.6071C42.5714 41.3514 42.4698 41.1061 42.289 40.9253C42.1082 40.7445 41.8629 40.6429 41.6071 40.6429ZM41.6071 40.6429H38.0714V42.5714H41.6071C41.8629 42.5714 42.1082 42.4698 42.289 42.289C42.4698 42.1082 42.5714 41.8629 42.5714 41.6071C42.5714 41.3514 42.4698 41.1061 42.289 40.9253C42.1082 40.7445 41.8629 40.6429 41.6071 40.6429ZM41.0029 37.4286H38.0714V39.3571H41.0029C41.2479 39.3555 41.4823 39.2574 41.6556 39.0841C41.8288 38.9109 41.9269 38.6764 41.9286 38.4314V38.3543C41.9269 38.1093 41.8288 37.8748 41.6556 37.7016C41.4823 37.5283 41.2479 37.4303 41.0029 37.4286ZM41.0029 37.4286H38.0714V39.3571H41.0029C41.2479 39.3555 41.4823 39.2574 41.6556 39.0841C41.8288 38.9109 41.9269 38.6764 41.9286 38.4314V38.3543C41.9269 38.1093 41.8288 37.8748 41.6556 37.7016C41.4823 37.5283 41.2479 37.4303 41.0029 37.4286ZM41.6071 40.6429H38.0714V42.5714H41.6071C41.8629 42.5714 42.1082 42.4698 42.289 42.289C42.4698 42.1082 42.5714 41.8629 42.5714 41.6071C42.5714 41.3514 42.4698 41.1061 42.289 40.9253C42.1082 40.7445 41.8629 40.6429 41.6071 40.6429ZM41.0029 37.4286H38.0714V39.3571H41.0029C41.2479 39.3555 41.4823 39.2574 41.6556 39.0841C41.8288 38.9109 41.9269 38.6764 41.9286 38.4314V38.3543C41.9269 38.1093 41.8288 37.8748 41.6556 37.7016C41.4823 37.5283 41.2479 37.4303 41.0029 37.4286ZM41.0029 37.4286H38.0714V39.3571H41.0029C41.2479 39.3555 41.4823 39.2574 41.6556 39.0841C41.8288 38.9109 41.9269 38.6764 41.9286 38.4314V38.3543C41.9269 38.1093 41.8288 37.8748 41.6556 37.7016C41.4823 37.5283 41.2479 37.4303 41.0029 37.4286Z" fill="#161617"/>
</g>
<g opacity="0.5">
<path opacity="0.5" d="M40 29.0714C39.8295 29.0714 39.666 29.0037 39.5455 28.8831C39.4249 28.7626 39.3572 28.5991 39.3572 28.4286V23.9286C39.3572 23.7581 39.4249 23.5946 39.5455 23.474C39.666 23.3534 39.8295 23.2857 40 23.2857H45.7857C45.9562 23.2857 46.1198 23.3534 46.2403 23.474C46.3609 23.5946 46.4286 23.7581 46.4286 23.9286C46.4286 24.0991 46.3609 24.2626 46.2403 24.3831C46.1198 24.5037 45.9562 24.5714 45.7857 24.5714H40.6429V28.4286C40.6429 28.5991 40.5752 28.7626 40.4546 28.8831C40.334 29.0037 40.1705 29.0714 40 29.0714Z" fill="#161617"/>
</g>
<path d="M47.0714 22C46.6735 22.0011 46.2857 22.1253 45.9612 22.3555C45.6366 22.5856 45.3912 22.9106 45.2586 23.2857C45.1807 23.491 45.1415 23.709 45.1429 23.9286C45.1415 24.1482 45.1807 24.3661 45.2586 24.5714C45.3765 24.905 45.5839 25.1997 45.8581 25.4233C46.1323 25.6468 46.4628 25.7907 46.8132 25.839C47.1637 25.8874 47.5207 25.8384 47.8452 25.6975C48.1697 25.5565 48.4492 25.329 48.6531 25.0398C48.8569 24.7507 48.9773 24.411 49.0011 24.058C49.0248 23.705 48.951 23.3523 48.7877 23.0384C48.6244 22.7245 48.3779 22.4617 48.0752 22.2785C47.7725 22.0954 47.4252 21.999 47.0714 22ZM47.0714 24.5714C46.9443 24.5714 46.82 24.5337 46.7143 24.4631C46.6086 24.3925 46.5262 24.2921 46.4775 24.1746C46.4289 24.0571 46.4161 23.9279 46.4409 23.8032C46.4657 23.6785 46.527 23.5639 46.6169 23.474C46.7068 23.3841 46.8213 23.3229 46.946 23.2981C47.0707 23.2733 47.2 23.286 47.3174 23.3347C47.4349 23.3833 47.5353 23.4657 47.6059 23.5714C47.6766 23.6771 47.7143 23.8014 47.7143 23.9286C47.7143 24.0991 47.6466 24.2626 47.526 24.3831C47.4054 24.5037 47.2419 24.5714 47.0714 24.5714Z" fill="#161617"/>
<g opacity="0.5">
<path opacity="0.5" d="M40.0001 56.7143H34.2144C34.0439 56.7143 33.8804 56.6465 33.7598 56.526C33.6393 56.4054 33.5715 56.2419 33.5715 56.0714C33.5715 55.9009 33.6393 55.7374 33.7598 55.6168C33.8804 55.4963 34.0439 55.4286 34.2144 55.4286H39.3572V51.5714C39.3572 51.4009 39.425 51.2374 39.5455 51.1168C39.6661 50.9963 39.8296 50.9286 40.0001 50.9286C40.1706 50.9286 40.3341 50.9963 40.4547 51.1168C40.5752 51.2374 40.643 51.4009 40.643 51.5714V56.0714C40.643 56.2419 40.5752 56.4054 40.4547 56.526C40.3341 56.6465 40.1706 56.7143 40.0001 56.7143Z" fill="#161617"/>
</g>
<path d="M34.7415 55.4286C34.5898 54.9996 34.2914 54.6381 33.899 54.408C33.5066 54.1778 33.0455 54.0937 32.5971 54.1706C32.1487 54.2476 31.7419 54.4805 31.4487 54.8284C31.1555 55.1762 30.9946 55.6165 30.9946 56.0714C30.9946 56.5264 31.1555 56.9667 31.4487 57.3145C31.7419 57.6623 32.1487 57.8953 32.5971 57.9722C33.0455 58.0492 33.5066 57.9651 33.899 57.7349C34.2914 57.5047 34.5898 57.1432 34.7415 56.7143C34.8956 56.2996 34.8956 55.8433 34.7415 55.4286ZM32.9286 56.7143C32.8015 56.7143 32.6772 56.6766 32.5715 56.6059C32.4657 56.5353 32.3834 56.4349 32.3347 56.3174C32.286 56.2 32.2733 56.0707 32.2981 55.946C32.3229 55.8213 32.3841 55.7068 32.474 55.6169C32.564 55.527 32.6785 55.4657 32.8032 55.4409C32.9279 55.4161 33.0572 55.4289 33.1746 55.4775C33.2921 55.5262 33.3925 55.6086 33.4631 55.7143C33.5338 55.82 33.5715 55.9443 33.5715 56.0714C33.5715 56.2419 33.5037 56.4054 33.3832 56.526C33.2626 56.6466 33.0991 56.7143 32.9286 56.7143Z" fill="#161617"/>
<path d="M54.1428 23.9286C53.6313 23.9286 53.1407 24.1317 52.7791 24.4934C52.4174 24.8551 52.2142 25.3456 52.2142 25.8571C52.2115 26.1429 52.2777 26.4252 52.407 26.68C52.5924 27.0836 52.9163 27.4075 53.3199 27.5928C53.5747 27.7222 53.857 27.7884 54.1428 27.7857C54.6542 27.7857 55.1448 27.5825 55.5065 27.2208C55.8681 26.8592 56.0713 26.3686 56.0713 25.8571C56.0713 25.3456 55.8681 24.8551 55.5065 24.4934C55.1448 24.1317 54.6542 23.9286 54.1428 23.9286ZM54.1428 26.5C53.9865 26.4998 53.8357 26.4426 53.7185 26.3393L53.6606 26.2814C53.5573 26.1642 53.5001 26.0134 53.4999 25.8571C53.4999 25.73 53.5376 25.6057 53.6082 25.5C53.6789 25.3943 53.7793 25.3119 53.8968 25.2632C54.0142 25.2146 54.1435 25.2018 54.2682 25.2266C54.3929 25.2514 54.5074 25.3127 54.5973 25.4026C54.6872 25.4925 54.7485 25.607 54.7733 25.7317C54.7981 25.8564 54.7853 25.9857 54.7367 26.1031C54.688 26.2206 54.6056 26.321 54.4999 26.3916C54.3942 26.4623 54.2699 26.5 54.1428 26.5Z" fill="#161617"/>
<g opacity="0.5">
<path opacity="0.5" d="M48.1836 32.4593C48.0978 32.4632 48.012 32.4498 47.9314 32.42C47.8508 32.3902 47.777 32.3445 47.7143 32.2857C47.6541 32.2259 47.6062 32.1548 47.5736 32.0765C47.541 31.9982 47.5242 31.9141 47.5242 31.8293C47.5242 31.7444 47.541 31.6604 47.5736 31.582C47.6062 31.5037 47.6541 31.4326 47.7143 31.3728L52.78 26.3071C52.84 26.2472 52.9111 26.1996 52.9895 26.1672C53.0678 26.1348 53.1517 26.1181 53.2365 26.1181C53.3212 26.1181 53.4052 26.1348 53.4835 26.1672C53.5618 26.1996 53.633 26.2472 53.6929 26.3071C53.7528 26.3671 53.8004 26.4382 53.8328 26.5165C53.8653 26.5949 53.882 26.6788 53.882 26.7636C53.882 26.8483 53.8653 26.9323 53.8328 27.0106C53.8004 27.0889 53.7528 27.16 53.6929 27.22L48.64 32.2857C48.5166 32.4013 48.3527 32.4637 48.1836 32.4593Z" fill="#161617"/>
</g>
<path d="M27.5928 53.32C27.4074 52.9164 27.0835 52.5925 26.6799 52.4071C26.4251 52.2778 26.1428 52.2116 25.857 52.2143C25.4756 52.2143 25.1027 52.3274 24.7856 52.5393C24.4684 52.7512 24.2212 53.0524 24.0753 53.4048C23.9293 53.7572 23.8911 54.145 23.9655 54.5191C24.0399 54.8932 24.2236 55.2368 24.4933 55.5066C24.763 55.7763 25.1067 55.96 25.4808 56.0344C25.8549 56.1088 26.2427 56.0706 26.5951 55.9246C26.9475 55.7787 27.2487 55.5315 27.4606 55.2143C27.6725 54.8972 27.7856 54.5243 27.7856 54.1429C27.7883 53.8571 27.7221 53.5748 27.5928 53.32ZM25.857 54.7857C25.6865 54.7857 25.523 54.718 25.4025 54.5974C25.2819 54.4769 25.2142 54.3133 25.2142 54.1429C25.2142 53.9724 25.2819 53.8088 25.4025 53.6883C25.523 53.5677 25.6865 53.5 25.857 53.5C26.0133 53.5002 26.1641 53.5574 26.2813 53.6607C26.3499 53.721 26.4049 53.7951 26.4425 53.8782C26.4802 53.9614 26.4998 54.0516 26.4999 54.1429C26.4999 54.3133 26.4322 54.4769 26.3116 54.5974C26.191 54.718 26.0275 54.7857 25.857 54.7857Z" fill="#161617"/>
<g opacity="0.5">
<path opacity="0.5" d="M26.7635 53.8793C26.6789 53.8798 26.5951 53.8635 26.5167 53.8316C26.4384 53.7996 26.3672 53.7524 26.3071 53.6928C26.2468 53.6331 26.199 53.562 26.1664 53.4836C26.1337 53.4053 26.1169 53.3213 26.1169 53.2364C26.1169 53.1516 26.1337 53.0675 26.1664 52.9892C26.199 52.9109 26.2468 52.8398 26.3071 52.78L31.36 47.7143C31.4827 47.5915 31.6492 47.5226 31.8228 47.5226C31.9964 47.5226 32.1629 47.5915 32.2857 47.7143C32.4084 47.837 32.4774 48.0035 32.4774 48.1771C32.4774 48.3507 32.4084 48.5172 32.2857 48.64L27.22 53.6928C27.1599 53.7524 27.0886 53.7996 27.0103 53.8316C26.932 53.8635 26.8481 53.8798 26.7635 53.8793Z" fill="#161617"/>
</g>
<g opacity="0.5">
<path opacity="0.5" d="M31.3793 32.9286H27.1429C26.9724 32.9286 26.8088 32.8609 26.6883 32.7403C26.5677 32.6197 26.5 32.4562 26.5 32.2857V25.2143C26.5 25.0438 26.5677 24.8803 26.6883 24.7597C26.8088 24.6392 26.9724 24.5714 27.1429 24.5714C27.3134 24.5714 27.4769 24.6392 27.5974 24.7597C27.718 24.8803 27.7857 25.0438 27.7857 25.2143V31.6429H31.3793C31.5498 31.6429 31.7133 31.7106 31.8339 31.8312C31.9544 31.9517 32.0221 32.1152 32.0221 32.2857C32.0221 32.4562 31.9544 32.6197 31.8339 32.7403C31.7133 32.8609 31.5498 32.9286 31.3793 32.9286Z" fill="#161617"/>
</g>
<path d="M27.1429 22C26.6906 22.0035 26.2539 22.1659 25.9092 22.4587C25.5645 22.7515 25.3337 23.1562 25.2571 23.6019C25.1805 24.0477 25.263 24.5062 25.4902 24.8973C25.7174 25.2884 26.0748 25.5872 26.5 25.7414C26.9147 25.8956 27.371 25.8956 27.7857 25.7414C28.2109 25.5872 28.5683 25.2884 28.7955 24.8973C29.0227 24.5062 29.1052 24.0477 29.0286 23.6019C28.952 23.1562 28.7212 22.7515 28.3765 22.4587C28.0318 22.1659 27.5951 22.0035 27.1429 22ZM27.1429 24.5714C27.0157 24.5714 26.8914 24.5337 26.7857 24.4631C26.68 24.3924 26.5976 24.292 26.5489 24.1746C26.5003 24.0571 26.4876 23.9279 26.5124 23.8032C26.5372 23.6785 26.5984 23.5639 26.6883 23.474C26.7782 23.3841 26.8927 23.3229 27.0174 23.2981C27.1421 23.2733 27.2714 23.286 27.3889 23.3346C27.5063 23.3833 27.6067 23.4657 27.6774 23.5714C27.748 23.6771 27.7857 23.8014 27.7857 23.9286C27.7857 24.0991 27.718 24.2626 27.5974 24.3831C27.4769 24.5037 27.3134 24.5714 27.1429 24.5714Z" fill="#161617"/>
<g opacity="0.5">
<path opacity="0.5" d="M52.8571 55.4286C52.6866 55.4286 52.5231 55.3609 52.4025 55.2403C52.2819 55.1197 52.2142 54.9562 52.2142 54.7857V48.3572H48.6206C48.4501 48.3572 48.2866 48.2894 48.1661 48.1689C48.0455 48.0483 47.9778 47.8848 47.9778 47.7143C47.9778 47.5438 48.0455 47.3803 48.1661 47.2597C48.2866 47.1392 48.4501 47.0714 48.6206 47.0714H52.8571C53.0276 47.0714 53.1911 47.1392 53.3116 47.2597C53.4322 47.3803 53.4999 47.5438 53.4999 47.7143V54.7857C53.4999 54.9562 53.4322 55.1197 53.3116 55.2403C53.1911 55.3609 53.0276 55.4286 52.8571 55.4286Z" fill="#161617"/>
</g>
<path d="M53.4999 54.2586C53.0852 54.1044 52.6289 54.1044 52.2142 54.2586C51.7853 54.4102 51.4238 54.7086 51.1936 55.101C50.9634 55.4934 50.8793 55.9546 50.9562 56.403C51.0332 56.8514 51.2661 57.2581 51.614 57.5513C51.9618 57.8446 52.4021 58.0054 52.857 58.0054C53.312 58.0054 53.7523 57.8446 54.1001 57.5513C54.4479 57.2581 54.6809 56.8514 54.7578 56.403C54.8348 55.9546 54.7507 55.4934 54.5205 55.101C54.2903 54.7086 53.9288 54.4102 53.4999 54.2586ZM52.857 56.7143C52.7299 56.7143 52.6056 56.6766 52.4999 56.6059C52.3942 56.5353 52.3118 56.4349 52.2631 56.3174C52.2145 56.2 52.2017 56.0707 52.2265 55.946C52.2513 55.8213 52.3126 55.7068 52.4025 55.6169C52.4924 55.5269 52.6069 55.4657 52.7316 55.4409C52.8563 55.4161 52.9856 55.4288 53.1031 55.4775C53.2205 55.5262 53.3209 55.6086 53.3916 55.7143C53.4622 55.82 53.4999 55.9443 53.4999 56.0714C53.4999 56.2419 53.4322 56.4054 53.3116 56.526C53.1911 56.6466 53.0275 56.7143 52.857 56.7143Z" fill="#161617"/>
<path d="M24.5714 44.6157C24.3661 44.5378 24.1482 44.4986 23.9286 44.5C23.709 44.4986 23.491 44.5378 23.2857 44.6157C22.8568 44.7674 22.4953 45.0658 22.2651 45.4582C22.0349 45.8506 21.9508 46.3117 22.0278 46.7601C22.1047 47.2085 22.3377 47.6153 22.6855 47.9085C23.0333 48.2017 23.4736 48.3626 23.9286 48.3626C24.3835 48.3626 24.8238 48.2017 25.1716 47.9085C25.5195 47.6153 25.7524 47.2085 25.8294 46.7601C25.9063 46.3117 25.8222 45.8506 25.5921 45.4582C25.3619 45.0658 25.0004 44.7674 24.5714 44.6157ZM23.9286 47.0714C23.8014 47.0714 23.6771 47.0337 23.5714 46.9631C23.4657 46.8925 23.3833 46.7921 23.3347 46.6746C23.286 46.5571 23.2733 46.4279 23.2981 46.3032C23.3229 46.1785 23.3841 46.0639 23.474 45.974C23.5639 45.8841 23.6785 45.8229 23.8032 45.7981C23.9279 45.7733 24.0571 45.786 24.1746 45.8347C24.2921 45.8833 24.3925 45.9657 24.4631 46.0714C24.5337 46.1771 24.5714 46.3014 24.5714 46.4286C24.5714 46.5991 24.5037 46.7626 24.3831 46.8831C24.2626 47.0037 24.0991 47.0714 23.9286 47.0714Z" fill="#161617"/>
<g opacity="0.5">
<path opacity="0.5" d="M23.9285 45.7857C23.758 45.7857 23.5945 45.718 23.4739 45.5974C23.3534 45.4769 23.2856 45.3134 23.2856 45.1429V43.2143C23.2861 43.1123 23.3108 43.0119 23.3578 42.9213C23.4047 42.8308 23.4726 42.7527 23.5556 42.6936L28.0556 39.4793C28.1941 39.3973 28.3582 39.3702 28.5156 39.4033C28.673 39.4364 28.8123 39.5274 28.9059 39.6582C28.9996 39.7889 29.0408 39.9501 29.0214 40.1098C29.0021 40.2695 28.9235 40.4161 28.8014 40.5207L24.5714 43.5421V45.1429C24.5714 45.3134 24.5036 45.4769 24.3831 45.5974C24.2625 45.718 24.099 45.7857 23.9285 45.7857Z" fill="#161617"/>
</g>
<path d="M56.0713 31.6429C55.6191 31.6464 55.1824 31.8087 54.8377 32.1015C54.493 32.3944 54.2622 32.799 54.1856 33.2448C54.109 33.6905 54.1915 34.149 54.4187 34.5401C54.6459 34.9312 55.0033 35.23 55.4285 35.3843C55.8432 35.5384 56.2995 35.5384 56.7142 35.3843C57.1394 35.23 57.4968 34.9312 57.724 34.5401C57.9512 34.149 58.0337 33.6905 57.9571 33.2448C57.8805 32.799 57.6497 32.3944 57.305 32.1015C56.9603 31.8087 56.5236 31.6464 56.0713 31.6429ZM56.0713 34.2143C55.9442 34.2143 55.8199 34.1766 55.7142 34.1059C55.6085 34.0353 55.5261 33.9349 55.4774 33.8174C55.4288 33.7 55.416 33.5707 55.4408 33.446C55.4656 33.3213 55.5269 33.2068 55.6168 33.1169C55.7067 33.027 55.8212 32.9657 55.9459 32.9409C56.0706 32.9161 56.1999 32.9288 56.3173 32.9775C56.4348 33.0262 56.5352 33.1086 56.6058 33.2143C56.6765 33.32 56.7142 33.4443 56.7142 33.5714C56.7142 33.7419 56.6465 33.9054 56.5259 34.026C56.4053 34.1466 56.2418 34.2143 56.0713 34.2143Z" fill="#161617"/>
<g opacity="0.5">
<path opacity="0.5" d="M51.5714 40.6429C51.4359 40.642 51.3041 40.5983 51.1949 40.5181C51.0857 40.4379 51.0046 40.3252 50.9633 40.1962C50.9219 40.0672 50.9224 39.9284 50.9647 39.7996C51.0069 39.6709 51.0887 39.5588 51.1985 39.4793L55.4285 36.4579V34.8572C55.4285 34.6867 55.4962 34.5231 55.6168 34.4026C55.7374 34.282 55.9009 34.2143 56.0714 34.2143C56.2419 34.2143 56.4054 34.282 56.5259 34.4026C56.6465 34.5231 56.7142 34.6867 56.7142 34.8572V36.7857C56.7137 36.8877 56.689 36.9881 56.6421 37.0787C56.5951 37.1692 56.5273 37.2473 56.4442 37.3064L51.9442 40.5207C51.8357 40.5993 51.7053 40.642 51.5714 40.6429Z" fill="#161617"/>
</g>
</g>
<defs>
<linearGradient id="paint0_linear_4_4622" x1="80" y1="40" x2="-2.62962e-07" y2="40" gradientUnits="userSpaceOnUse">
<stop stop-color="#FF9085"/>
<stop offset="1" stop-color="#FB6FBB"/>
</linearGradient>
<clipPath id="clip0_4_4622">
<rect width="36" height="36" fill="white" transform="translate(22 22)"/>
</clipPath>
</defs>
</svg>
