<svg width="98" height="100" viewBox="0 0 98 100" fill="none" xmlns="http://www.w3.org/2000/svg">
<g clip-path="url(#clip0_429_889)">
<path d="M50.3529 94.6492C76.4895 94.6492 97.6775 73.4612 97.6775 47.3246C97.6775 21.1879 76.4895 0 50.3529 0C24.2163 0 3.02832 21.1879 3.02832 47.3246C3.02832 73.4612 24.2163 94.6492 50.3529 94.6492Z" fill="url(#paint0_linear_429_889)"/>
<path d="M50.3529 94.6492C76.4895 94.6492 97.6775 73.4612 97.6775 47.3246C97.6775 21.1879 76.4895 0 50.3529 0C24.2163 0 3.02832 21.1879 3.02832 47.3246C3.02832 73.4612 24.2163 94.6492 50.3529 94.6492Z" fill="url(#paint1_linear_429_889)"/>
<mask id="mask0_429_889" style="mask-type:luminance" maskUnits="userSpaceOnUse" x="3" y="0" width="95" height="95">
<path d="M50.3529 94.6492C76.4895 94.6492 97.6775 73.4612 97.6775 47.3246C97.6775 21.1879 76.4895 0 50.3529 0C24.2163 0 3.02832 21.1879 3.02832 47.3246C3.02832 73.4612 24.2163 94.6492 50.3529 94.6492Z" fill="white"/>
</mask>
<g mask="url(#mask0_429_889)">
<path opacity="0.3" d="M83.4175 100L7.05452 99.6845C3.24331 99.6719 0 96.946 0 93.608V12.9417C0 9.59743 3.24331 7.07976 7.05452 7.31323L19.7564 8.08304C27.259 16.917 31.5497 28.8049 29.234 42.1694C28.8491 44.4094 29.1709 46.4349 30.0227 48.3026C31.3667 51.2557 34.08 53.8112 37.5947 56.2027C39.4182 57.452 41.4753 58.6509 43.6522 59.8435C48.6686 62.5757 54.417 65.2385 59.9319 68.2357C61.9384 69.3211 63.9134 70.4568 65.819 71.6557C66.7024 72.211 67.5795 72.7852 68.425 73.372C70.6461 74.899 72.7158 76.5333 74.5835 78.3127C76.3125 79.9659 77.8584 81.7453 79.152 83.6699C82.1618 88.1436 83.8465 93.4566 83.4175 100Z" fill="url(#paint2_linear_429_889)"/>
</g>
<path d="M22.2421 36.3263H77.7886C83.0258 36.3263 87.285 40.5792 87.285 45.8228C87.285 54.0699 80.5902 60.7647 72.3431 60.7647H27.6939C19.4468 60.7647 12.752 54.0699 12.752 45.8228C12.752 40.5855 17.0049 36.3263 22.2484 36.3263H22.2421Z" fill="url(#paint3_linear_429_889)"/>
<path d="M41.9544 52.1012C42.4277 51.4197 42.7242 50.6562 42.7242 49.8296C42.7242 47.1605 39.8911 44.9899 36.4017 44.9899C32.9123 44.9899 30.0791 47.1542 30.0791 49.8296C30.0791 50.6562 30.3757 51.4197 30.8489 52.1012H41.9544Z" fill="#D8DEE8"/>
<path d="M73.8011 52.1012C74.2743 51.4197 74.5709 50.6562 74.5709 49.8296C74.5709 47.1605 71.7377 44.9899 68.2483 44.9899C64.7589 44.9899 61.9258 47.1542 61.9258 49.8296C61.9258 50.6562 62.2223 51.4197 62.6956 52.1012H73.8011Z" fill="#D8DEE8"/>
</g>
<defs>
<linearGradient id="paint0_linear_429_889" x1="3.02832" y1="47.3246" x2="97.6775" y2="47.3246" gradientUnits="userSpaceOnUse">
<stop stop-color="#AA80F9"/>
<stop offset="1" stop-color="#6165D7"/>
</linearGradient>
<linearGradient id="paint1_linear_429_889" x1="3.02832" y1="47.3246" x2="97.6775" y2="47.3246" gradientUnits="userSpaceOnUse">
<stop stop-color="#AA80F9"/>
<stop offset="1" stop-color="#6165D7"/>
</linearGradient>
<linearGradient id="paint2_linear_429_889" x1="78.1171" y1="-18.16" x2="-31.9977" y2="205.793" gradientUnits="userSpaceOnUse">
<stop stop-color="#AA80F9"/>
<stop offset="1" stop-color="#6165D7"/>
</linearGradient>
<linearGradient id="paint3_linear_429_889" x1="12.752" y1="48.5487" x2="87.285" y2="48.5487" gradientUnits="userSpaceOnUse">
<stop stop-color="#444B8C"/>
<stop offset="1" stop-color="#26264F"/>
</linearGradient>
<clipPath id="clip0_429_889">
<rect width="97.6779" height="100" fill="white"/>
</clipPath>
</defs>
</svg>
