<svg width="100" height="100" viewBox="0 0 100 100" fill="none" xmlns="http://www.w3.org/2000/svg">
<g clip-path="url(#clip0_389_1830)">
<path d="M50 100C77.6142 100 100 77.6142 100 50C100 22.3858 77.6142 0 50 0C22.3858 0 0 22.3858 0 50C0 77.6142 22.3858 100 50 100Z" fill="url(#paint0_linear_389_1830)"/>
<path d="M40.1314 33.527C40.1314 33.527 48.0644 17.427 52.7314 17.66C57.3984 17.893 63.6984 34.927 63.6984 34.927C63.6984 34.927 82.8314 37.26 82.5984 43.56C82.3654 49.86 72.3314 56.86 72.3314 56.86C72.3314 56.86 77.9314 74.593 71.8644 77.16C65.7974 79.727 51.5644 70.627 51.5644 70.627C51.5644 70.627 32.7634 83.108 28.3304 78.208C23.8974 73.308 31.1174 56.528 31.1174 56.528C31.1174 56.528 14.9994 43.618 17.7994 39.184C20.5994 34.751 40.1304 33.527 40.1304 33.527H40.1314Z" fill="#F8B551"/>
<path d="M17.5523 39.81C16.3753 44.715 31.1173 56.528 31.1173 56.528C31.1173 56.528 23.8963 73.308 28.3303 78.208C32.7633 83.108 51.5643 70.627 51.5643 70.627C51.5643 70.627 65.7973 79.727 71.8643 77.16C77.9313 74.593 72.3313 56.86 72.3313 56.86C72.3313 56.86 82.3643 49.86 82.5983 43.56C82.6223 42.919 82.4363 42.32 82.0993 41.759C59.5883 66.081 28.8493 47.949 17.5523 39.809V39.81Z" fill="#ED7F2C"/>
<path d="M50.4114 21.51C51.9744 23.593 49.8904 32.969 45.9844 34.792C42.0774 36.615 48.8494 19.426 50.4114 21.51Z" fill="#E9FFE4"/>
</g>
<defs>
<linearGradient id="paint0_linear_389_1830" x1="0" y1="50" x2="100" y2="50" gradientUnits="userSpaceOnUse">
<stop stop-color="#444B8C"/>
<stop offset="1" stop-color="#26264F"/>
</linearGradient>
<clipPath id="clip0_389_1830">
<rect width="100" height="100" fill="white"/>
</clipPath>
</defs>
</svg>
