<svg width="100" height="100" viewBox="0 0 100 100" fill="none" xmlns="http://www.w3.org/2000/svg">
<g clip-path="url(#clip0_389_1774)">
<path d="M50 100C77.6142 100 100 77.6142 100 50C100 22.3858 77.6142 0 50 0C22.3858 0 0 22.3858 0 50C0 77.6142 22.3858 100 50 100Z" fill="url(#paint0_linear_389_1774)"/>
<path d="M21.7194 55.1419C19.4024 60.5119 20.2014 66.9429 23.1554 71.9899C26.1094 77.0369 31.0264 80.757 36.4414 82.964C47.2504 87.368 60.4854 85.6379 69.3924 78.0939C78.2984 70.5499 82.1574 57.3449 78.1194 46.3939C75.8914 40.3489 71.6224 35.3259 67.8664 30.0919C64.7934 25.8099 61.9504 21.0739 60.9844 15.9649C60.7284 14.6119 58.9804 14.2419 58.1724 15.3569C54.7154 20.1299 53.1354 26.2669 53.9934 32.1079C54.4404 35.1479 55.4984 38.0679 56.0214 41.0959C56.5444 44.1239 56.4724 47.4289 54.8284 50.0249C53.3234 52.4009 50.5084 53.9119 47.7004 53.7589C44.8924 53.6069 42.2224 51.7519 41.1834 49.1389C40.2234 46.7239 40.6404 43.9899 41.3194 41.4809C41.9984 38.9719 42.9324 36.4859 42.9754 33.8869C42.9934 32.7729 42.8044 31.6169 42.3984 30.5709C41.8144 29.0669 39.5684 29.4279 39.4054 31.0339C39.3724 31.3599 39.3464 31.6019 39.3384 31.6919C39.2404 32.7539 38.9564 33.6559 38.5174 34.6339C37.6544 36.5529 36.4144 38.2739 35.0364 39.8539C32.1684 43.1419 28.7044 45.8439 25.7884 49.0859C24.1554 50.9009 22.6904 52.8909 21.7184 55.1429L21.7194 55.1419Z" fill="url(#paint1_linear_389_1774)"/>
<path d="M73.7972 65.3071C73.7202 64.7411 72.9522 64.5761 72.6602 65.0671C71.3372 67.2851 69.1252 68.9711 66.6432 69.6911C66.0112 69.8741 65.5782 69.0821 66.0582 68.6321C67.5472 67.2341 68.5222 65.2511 68.8292 63.2121C69.2682 60.2921 68.4872 57.2941 67.1612 54.6551C66.1642 52.6711 64.8712 50.8591 63.5112 49.0991C63.1372 48.6151 62.3782 48.9041 62.4012 49.5151C62.5502 53.6331 60.8592 57.8151 57.8092 60.6001C54.2262 63.8711 48.8932 65.0991 44.2402 63.7241C40.1832 62.5251 36.7682 59.3841 35.1452 55.4881C34.9132 54.9311 34.1172 54.9971 33.9702 55.5821C32.9192 59.7651 33.4222 64.3331 35.3722 68.1811C35.6232 68.6771 35.1482 69.2401 34.6262 69.0501C32.4732 68.2641 30.6512 66.5631 29.7772 64.4381C29.2552 63.1691 29.0802 61.7691 29.2322 60.4061C29.3062 59.7421 28.3862 59.4611 28.0742 60.0521C26.4292 63.1751 25.8222 66.8971 26.0192 70.4601C26.1412 72.6611 26.5422 74.8231 27.0862 76.9571C29.7512 79.5391 32.9932 81.5591 36.4402 82.9631C47.2492 87.3671 60.4842 85.6371 69.3912 78.0931C70.8902 76.8231 72.2432 75.3901 73.4422 73.8361C74.0492 71.0391 74.1832 68.1401 73.7962 65.3061L73.7972 65.3071Z" fill="url(#paint2_linear_389_1774)"/>
<g style="mix-blend-mode:multiply" opacity="0.2">
<path d="M21.7393 69.051C22.1333 70.068 22.6063 71.053 23.1553 71.99C26.1093 77.037 31.0263 80.757 36.4413 82.964C47.2503 87.368 60.4853 85.638 69.3923 78.094C78.2983 70.55 82.1573 57.345 78.1193 46.394C75.8913 40.349 71.6223 35.326 67.8663 30.092C65.9103 27.366 64.0503 24.456 62.7053 21.384C62.8763 26.666 65.3233 32.963 66.5813 36.279C69.3683 43.623 72.6933 51.277 71.4603 59.034C69.9373 68.617 61.2343 76.11 51.6903 77.861C42.1463 79.611 32.1703 76.32 24.3043 70.639C23.5253 70.076 22.6443 69.486 21.7383 69.052L21.7393 69.051Z" fill="#6B1000"/>
</g>
<g style="mix-blend-mode:soft-light">
<path d="M23.74 57.973C22.926 60.951 23.044 64.176 24.074 67.086C24.381 67.953 24.783 68.816 25.459 69.439C26.135 70.062 27.136 70.401 28 70.085C29.061 69.697 29.592 68.462 29.593 67.333C29.594 66.204 29.194 65.119 28.953 64.015C28.328 61.156 28.808 58.07 30.272 55.536C30.656 54.871 31.104 54.244 31.458 53.563C31.812 52.882 32.071 52.128 32.036 51.361C31.959 49.646 29.871 48.321 28.627 49.839C27.406 51.33 26.076 52.883 25.133 54.573C24.535 55.645 24.064 56.788 23.74 57.973Z" fill="white"/>
</g>
<g style="mix-blend-mode:soft-light">
<path d="M33.1881 44.8319C32.6661 45.3809 32.2661 46.0759 32.1971 46.8309C32.1611 47.2269 32.2231 47.6439 32.4451 47.9729C32.6671 48.3019 33.0701 48.5249 33.4621 48.4639C33.7141 48.4249 33.9381 48.2769 34.1141 48.0929C34.2901 47.9089 34.4241 47.6899 34.5561 47.4729C35.0121 46.7249 35.4671 45.9759 35.8771 45.2019C36.0211 44.9299 36.1641 44.6329 36.1261 44.3269C36.0731 43.9049 35.5941 43.4019 35.1421 43.4519C34.9261 43.4759 34.7321 43.6239 34.5561 43.7389C34.3231 43.8919 34.0941 44.0499 33.8741 44.2199C33.6311 44.4079 33.4001 44.6099 33.1881 44.8319Z" fill="white"/>
</g>
</g>
<defs>
<linearGradient id="paint0_linear_389_1774" x1="0" y1="50" x2="100" y2="50" gradientUnits="userSpaceOnUse">
<stop stop-color="#FFC444"/>
<stop offset="1" stop-color="#F36F56"/>
</linearGradient>
<linearGradient id="paint1_linear_389_1774" x1="45.0334" y1="-88.7301" x2="55.3564" y2="214.747" gradientUnits="userSpaceOnUse">
<stop stop-color="#FFAB86"/>
<stop offset="0.5" stop-color="#EC4A08"/>
<stop offset="1" stop-color="#6B1000"/>
</linearGradient>
<linearGradient id="paint2_linear_389_1774" x1="47.3192" y1="-9.96595" x2="52.6092" y2="145.554" gradientUnits="userSpaceOnUse">
<stop stop-color="#FFD184"/>
<stop offset="0.5" stop-color="#FD8E00"/>
<stop offset="1" stop-color="#673300"/>
</linearGradient>
<clipPath id="clip0_389_1774">
<rect width="100" height="100" fill="white"/>
</clipPath>
</defs>
</svg>
