<svg width="100" height="100" viewBox="0 0 100 100" fill="none" xmlns="http://www.w3.org/2000/svg">
<g clip-path="url(#clip0_389_1836)">
<path d="M50 100C77.6142 100 100 77.6142 100 50C100 22.3858 77.6142 0 50 0C22.3858 0 0 22.3858 0 50C0 77.6142 22.3858 100 50 100Z" fill="url(#paint0_linear_389_1836)"/>
<path d="M79.4659 45.385C79.4659 29.472 68.5949 18.542 52.6819 18.542C36.7689 18.542 22.2529 28.502 22.2529 44.415C22.2529 52.429 25.4899 58.931 30.7329 63.414C29.0529 64.653 27.8899 66.077 28.5879 67.421C30.3839 70.879 36.7679 69.283 36.7679 69.283C36.7679 69.283 33.1769 75.734 33.9079 78.394C34.6399 81.054 64.4339 81.586 66.3629 79.658C68.2919 77.729 65.5649 70.015 65.5649 70.015C65.5649 70.015 70.2199 72.276 71.2179 70.015C71.6399 69.06 70.6109 67.119 69.2849 65.196C75.5279 60.987 79.4649 54.266 79.4649 45.386L79.4659 45.385Z" fill="url(#paint1_linear_389_1836)"/>
<path d="M46.2128 65.159C47.9748 65.591 50.5338 62.366 50.5338 62.366C50.5338 62.366 52.3308 65.591 54.5588 64.694C56.7868 63.796 52.8958 56.481 50.2358 56.381C47.5758 56.281 44.4498 64.728 46.2118 65.16L46.2128 65.159Z" fill="url(#paint2_linear_389_1836)"/>
<g style="mix-blend-mode:multiply" opacity="0.3">
<path d="M62.5385 20.12C64.5605 22.084 66.3175 24.322 67.7145 26.771C71.2275 32.93 72.4725 40.351 71.1605 47.32C70.4055 51.332 68.6445 55.415 65.2335 57.659C62.7875 59.269 59.1675 60.583 59.3335 63.506C59.4025 64.721 60.1955 65.988 59.6395 67.071C58.9845 68.345 57.0735 68.211 55.9645 69.119C55.2255 69.724 54.9435 70.706 54.5085 71.556C52.9025 74.695 49.0635 76.087 45.5375 76.083C42.0115 76.079 38.5865 74.985 35.0985 74.471C34.8935 74.441 34.6865 74.413 34.4795 74.388C33.9645 75.896 33.6405 77.406 33.9115 78.393C34.6435 81.053 64.4375 81.585 66.3665 79.657C68.2955 77.728 65.5685 70.014 65.5685 70.014C65.5685 70.014 70.2235 72.275 71.2215 70.014C71.6435 69.059 70.6145 67.118 69.2885 65.195C75.5315 60.986 79.4685 54.265 79.4685 45.385C79.4685 33.032 72.9155 23.686 62.5395 20.12H62.5385Z" fill="#532295"/>
</g>
<g style="mix-blend-mode:soft-light">
<path d="M40.32 22.958C40.744 22.888 41.207 22.841 41.58 23.055C42.191 23.404 42.264 24.256 42.153 24.95C41.773 27.33 40.159 29.313 38.482 31.043C37.563 31.991 36.593 32.912 35.449 33.572C33.975 34.423 32.121 34.823 30.52 34.08C29.289 33.509 28.478 32.434 28.853 31.051C29.241 29.619 30.458 28.39 31.502 27.395C32.632 26.319 33.911 25.398 35.29 24.667C36.861 23.834 38.564 23.246 40.32 22.958Z" fill="white"/>
</g>
<g style="mix-blend-mode:soft-light">
<path d="M45.5731 21.6711C45.2521 21.7281 44.9261 21.7931 44.6401 21.9501C44.3541 22.1071 44.1101 22.3731 44.0581 22.6951C43.9961 23.0801 44.2241 23.4701 44.5431 23.6951C44.8621 23.9201 45.2571 24.0081 45.6451 24.0561C47.4851 24.2861 49.4111 23.7071 50.8181 22.5001C50.9441 22.3921 51.0751 22.2611 51.0811 22.0961C51.0891 21.8901 50.9021 21.7331 50.7221 21.6331C50.2061 21.3491 49.6081 21.3011 49.0291 21.3131C48.2901 21.3281 47.5491 21.3941 46.8161 21.4841C46.4001 21.5351 45.9861 21.5971 45.5731 21.6701V21.6711Z" fill="white"/>
</g>
<path d="M33.1806 36.735H66.8166C69.9896 36.735 72.5656 39.311 72.5656 42.484C72.5656 47.478 68.5106 51.533 63.5166 51.533H36.4806C31.4866 51.533 27.4316 47.478 27.4316 42.484C27.4316 39.311 30.0076 36.735 33.1806 36.735Z" fill="url(#paint3_linear_389_1836)"/>
<path d="M45.1178 46.286C45.4058 45.874 45.5848 45.411 45.5848 44.912C45.5848 43.294 43.8708 41.983 41.7558 41.983C39.6408 41.983 37.9268 43.294 37.9268 44.912C37.9268 45.412 38.1058 45.875 38.3938 46.286H45.1178Z" fill="#D8DEE8"/>
<path d="M64.4019 46.286C64.6899 45.874 64.8689 45.411 64.8689 44.912C64.8689 43.294 63.1549 41.983 61.0399 41.983C58.9249 41.983 57.2109 43.294 57.2109 44.912C57.2109 45.412 57.3899 45.875 57.6779 46.286H64.4019Z" fill="#D8DEE8"/>
</g>
<defs>
<linearGradient id="paint0_linear_389_1836" x1="0" y1="50" x2="100" y2="50" gradientUnits="userSpaceOnUse">
<stop stop-color="#FF9085"/>
<stop offset="1" stop-color="#FB6FBB"/>
</linearGradient>
<linearGradient id="paint1_linear_389_1836" x1="50.8499" y1="43.768" x2="52.4279" y2="209.293" gradientUnits="userSpaceOnUse">
<stop stop-color="#D8B7FF"/>
<stop offset="0.33" stop-color="#8241E0"/>
<stop offset="0.66" stop-color="#532295"/>
<stop offset="1" stop-color="#100021"/>
</linearGradient>
<linearGradient id="paint2_linear_389_1836" x1="49.2878" y1="30.493" x2="51.4628" y2="92.141" gradientUnits="userSpaceOnUse">
<stop stop-color="#D8B7FF"/>
<stop offset="0.33" stop-color="#8241E0"/>
<stop offset="0.66" stop-color="#532295"/>
<stop offset="1" stop-color="#100021"/>
</linearGradient>
<linearGradient id="paint3_linear_389_1836" x1="27.4316" y1="44.134" x2="72.5656" y2="44.134" gradientUnits="userSpaceOnUse">
<stop stop-color="#D8B7FF"/>
<stop offset="0.33" stop-color="#8241E0"/>
<stop offset="0.66" stop-color="#532295"/>
<stop offset="1" stop-color="#100021"/>
</linearGradient>
<clipPath id="clip0_389_1836">
<rect width="100" height="100" fill="white"/>
</clipPath>
</defs>
</svg>
