<svg width="100" height="100" viewBox="0 0 100 100" fill="none" xmlns="http://www.w3.org/2000/svg">
<g clip-path="url(#clip0_389_1821)">
<path d="M50 100C77.6142 100 100 77.6142 100 50C100 22.3858 77.6142 0 50 0C22.3858 0 0 22.3858 0 50C0 77.6142 22.3858 100 50 100Z" fill="url(#paint0_linear_389_1821)"/>
<path d="M37.134 85.6501C35.014 85.6501 32.985 84.5231 31.837 82.7091C30.691 80.9001 30.557 78.6591 31.476 76.7131C33.474 72.4891 35.77 68.1041 38.315 63.6531C36.793 63.4391 35.104 63.1261 33.208 62.7091C30.012 62.0061 27.916 59.0351 28.333 55.7981C28.784 52.3031 29.064 48.7681 29.334 45.3501C29.841 38.9341 30.32 32.8741 31.843 27.1601C32.485 24.7551 34.487 22.9591 36.945 22.5851C41.462 21.8951 46.916 21.5601 53.616 21.5601C56.965 21.5601 60.619 21.6441 64.786 21.8181C66.576 21.8931 68.251 22.7341 69.382 24.1251C70.513 25.5171 70.994 27.3291 70.701 29.0961C69.742 34.8851 68.237 40.4501 66.223 45.6611C69.01 46.7181 71.957 47.9571 75.188 49.4291C77.05 50.2771 78.38 51.9871 78.748 54.0031C79.115 56.0141 78.476 58.0791 77.038 59.5251C67.261 69.3661 54.742 77.9491 39.828 85.0361C38.971 85.4431 38.065 85.6501 37.135 85.6501H37.134Z" fill="url(#paint1_linear_389_1821)"/>
<path d="M35.5686 28.154C33.3286 36.555 33.4436 46.329 32.1576 56.293C31.9976 57.53 32.8176 58.677 34.0366 58.945C36.4756 59.481 38.7986 59.894 40.8956 60.069C42.6576 60.216 43.6466 62.157 42.7536 63.683C39.8736 68.604 37.2626 73.5 34.9626 78.363C34.0006 80.397 36.1406 82.52 38.1736 81.555C52.2626 74.86 64.4536 66.723 74.3036 56.809C75.4766 55.629 75.1036 53.629 73.5896 52.939C70.1316 51.363 66.7616 49.952 63.5116 48.767C62.2226 48.297 61.5836 46.861 62.1026 45.592C64.2806 40.266 65.8876 34.563 66.8976 28.467C67.1336 27.044 66.0666 25.732 64.6256 25.672C55.6226 25.297 45.4456 25.189 37.5266 26.398C36.5826 26.542 35.8156 27.233 35.5696 28.155L35.5686 28.154Z" fill="url(#paint2_linear_389_1821)"/>
<g style="mix-blend-mode:multiply" opacity="0.3">
<path d="M75.1878 49.429C71.9567 47.957 69.0087 46.718 66.2227 45.661C68.2367 40.45 69.7407 34.885 70.7008 29.096C70.9938 27.329 70.5128 25.517 69.3818 24.125C68.2508 22.733 66.5757 21.893 64.7857 21.818C61.4597 21.679 58.4648 21.599 55.6868 21.571C54.9207 23.924 54.1558 26.277 53.3898 28.629C51.8188 33.456 50.2477 38.283 48.6767 43.11C47.8407 45.677 47.0077 48.488 47.9607 51.014C48.8547 53.384 51.1958 54.969 53.6438 55.618C56.0928 56.267 58.6718 56.126 61.2008 55.98C61.2898 59.764 58.1158 62.724 55.2028 65.14C47.7078 71.357 40.2137 77.575 32.7188 83.792C33.8868 84.956 35.4808 85.649 37.1348 85.65C38.0648 85.65 38.9717 85.443 39.8277 85.036C54.7418 77.949 67.2607 69.366 77.0378 59.525C78.4757 58.078 79.1147 56.014 78.7477 54.003C78.3797 51.987 77.0488 50.277 75.1878 49.429Z" fill="#FD8E00"/>
</g>
<g style="mix-blend-mode:soft-light">
<path d="M34.4866 28.1399C33.6196 29.5499 33.2146 31.1919 32.9106 32.8189C32.4356 35.3609 32.1776 37.9439 32.1396 40.5289C32.1216 41.7599 32.1716 43.0559 32.8046 44.1119C33.0836 44.5769 33.5286 45.0049 34.0706 45.0229C34.7486 45.0459 35.2686 44.4419 35.6206 43.8619C36.6536 42.1609 37.1826 40.2089 37.6986 38.2859C38.3906 35.7119 39.0826 33.1359 39.6286 30.5269C39.8176 29.6229 39.9906 28.6989 39.8976 27.7789C39.7746 26.5709 39.1186 25.0549 37.7046 25.4879C36.3416 25.9059 35.2216 26.9399 34.4856 28.1369L34.4866 28.1399Z" fill="white"/>
</g>
<g style="mix-blend-mode:soft-light">
<path d="M32.5578 47.144C32.1628 47.37 31.9148 47.785 31.7248 48.198C31.0638 49.633 30.8828 51.284 31.2188 52.828C31.2848 53.132 31.3728 53.437 31.5488 53.694C31.7238 53.95 31.9998 54.154 32.3098 54.175C32.7598 54.206 33.1458 53.865 33.4358 53.52C34.3078 52.483 34.8618 51.182 35.0048 49.836C35.1308 48.65 34.1558 46.23 32.5578 47.144Z" fill="white"/>
</g>
</g>
<defs>
<linearGradient id="paint0_linear_389_1821" x1="0" y1="50" x2="100" y2="50" gradientUnits="userSpaceOnUse">
<stop stop-color="#AA80F9"/>
<stop offset="1" stop-color="#6165D7"/>
</linearGradient>
<linearGradient id="paint1_linear_389_1821" x1="52.082" y1="-5.93394" x2="55.629" y2="141.908" gradientUnits="userSpaceOnUse">
<stop stop-color="#FFD184"/>
<stop offset="0.5" stop-color="#FD8E00"/>
<stop offset="1" stop-color="#673300"/>
</linearGradient>
<linearGradient id="paint2_linear_389_1821" x1="52.8676" y1="26.778" x2="55.9856" y2="156.729" gradientUnits="userSpaceOnUse">
<stop stop-color="#FFD184"/>
<stop offset="0.5" stop-color="#FD8E00"/>
<stop offset="1" stop-color="#673300"/>
</linearGradient>
<clipPath id="clip0_389_1821">
<rect width="100" height="100" fill="white"/>
</clipPath>
</defs>
</svg>
