<svg width="80" height="80" viewBox="0 0 80 80" fill="none" xmlns="http://www.w3.org/2000/svg">
<circle cx="40" cy="40" r="40" fill="url(#paint0_linear_4_4562)"/>
<g clip-path="url(#clip0_4_4562)">
<path d="M50.5681 36.9983C50.5356 36.8103 50.4902 36.6159 50.4383 36.4279C50.3864 36.24 50.3344 36.039 50.276 35.8511C50.2231 35.6621 50.1602 35.4761 50.0878 35.2937C50.0934 35.2746 50.0934 35.2544 50.0878 35.2353C49.8213 34.5086 49.4844 33.8096 49.0818 33.1483C49.0643 33.1079 49.0401 33.0707 49.0105 33.0381C48.9261 32.8955 48.8352 32.7594 48.7379 32.6168C48.6405 32.4742 48.5107 32.2927 48.3939 32.1372C48.2771 31.9816 48.1732 31.8455 48.0564 31.7029L47.9915 31.6251L47.6475 31.2363C47.6475 31.2363 47.6475 31.2363 47.6475 31.2038C47.6475 31.1714 47.4918 31.0353 47.4139 30.9511C47.336 30.8668 47.349 30.8798 47.3101 30.8474C47.2479 30.7777 47.1806 30.7127 47.1089 30.6529L46.8557 30.4261L46.7908 30.3677L46.7195 30.3094C46.5981 30.1921 46.4703 30.0818 46.3365 29.9788C46.3365 29.9788 46.1353 29.8168 46.038 29.7455L45.8887 29.6353L45.7524 29.5316L45.5837 29.4085L45.4993 29.3501L45.4149 29.2918C45.2462 29.1751 45.0775 29.065 44.9022 28.9613L44.5388 28.7538C44.4212 28.6827 44.2998 28.6178 44.1753 28.5594H44.1169L44.0131 28.4816C41.1596 27.0342 37.8545 26.7514 34.7961 27.693C31.7376 28.6346 29.1656 30.7269 27.6235 33.5276C26.0814 36.3283 25.6901 39.618 26.5322 42.7016C27.3743 45.7852 29.3839 48.421 32.1362 50.052C32.4218 50.2205 32.7074 50.3761 33.0059 50.5187C34.6655 51.3542 36.4952 51.7977 38.3537 51.815H38.4965C41.274 51.8167 43.9707 50.8819 46.1498 49.1621C48.329 47.4423 49.8629 45.0381 50.5032 42.339C50.5486 42.1446 50.594 41.9501 50.6265 41.7557C50.6589 41.5612 50.6849 41.4316 50.7109 41.2696C50.7368 41.1075 50.7498 41.0103 50.7628 40.8742C50.7758 40.7381 50.7628 40.5761 50.8017 40.4205C50.8116 40.2824 50.8116 40.1438 50.8017 40.0057C50.8049 39.9864 50.8049 39.9667 50.8017 39.9474C50.8422 38.9585 50.7638 37.9684 50.5681 36.9983ZM27.4634 39.5001C27.4634 36.5778 28.6258 33.7752 30.6949 31.7089C32.764 29.6425 35.5703 28.4816 38.4965 28.4816C38.8715 28.4815 39.2463 28.501 39.6193 28.54C39.9417 28.5711 40.2623 28.6187 40.5798 28.6825L41.0471 28.7798C41.5057 28.8885 41.9566 29.0271 42.3971 29.1946C42.6958 29.3038 42.9883 29.4293 43.2732 29.5705C43.5559 29.702 43.8311 29.8492 44.0975 30.0113C44.4968 30.2479 44.8805 30.5098 45.2462 30.7955C45.3695 30.8863 45.4863 30.9835 45.6096 31.0872C45.8433 31.2816 46.0704 31.4955 46.2587 31.7353C46.382 31.8585 46.5053 31.9881 46.6221 32.1177C46.7389 32.2474 46.8622 32.3835 46.9726 32.5196C47.2034 32.789 47.42 33.0703 47.6216 33.3622C48.0205 33.9525 48.3617 34.5798 48.6405 35.2353C48.7119 35.4038 48.7768 35.5659 48.8417 35.7344C48.9066 35.9029 48.965 36.0779 49.0169 36.2464C49.1754 36.7709 49.2968 37.3059 49.3804 37.8474C49.4142 38.0296 49.438 38.2135 49.4518 38.3983C49.5049 38.9042 49.5223 39.4131 49.5037 39.9214C49.5037 40.0251 49.5037 40.1288 49.5037 40.2261C49.5037 40.3233 49.5037 40.4788 49.5037 40.602C49.5037 40.7251 49.4713 40.9066 49.4453 41.0557C49.4193 41.2048 49.4453 41.2761 49.3934 41.3862L49.3544 41.6066C49.3298 41.76 49.2951 41.9115 49.2506 42.0603C48.6734 44.4734 47.2975 46.6214 45.3458 48.1564C43.3941 49.6915 40.9808 50.5238 38.4965 50.5187H38.3602C35.4577 50.4828 32.6863 49.3062 30.6466 47.2437C28.6068 45.1812 27.4631 42.399 27.4634 39.5001Z" fill="#232325"/>
<path d="M50.5681 36.9983C50.5356 36.8103 50.4902 36.6159 50.4383 36.4279C50.3864 36.24 50.3344 36.039 50.276 35.8511C50.2231 35.6621 50.1602 35.4761 50.0878 35.2937C50.0934 35.2746 50.0934 35.2544 50.0878 35.2353C49.8213 34.5086 49.4844 33.8096 49.0818 33.1483C49.0643 33.1079 49.0401 33.0707 49.0105 33.0381C48.9261 32.8955 48.8352 32.7594 48.7379 32.6168C48.6405 32.4742 48.5107 32.2927 48.3939 32.1372C48.2771 31.9816 48.1732 31.8455 48.0564 31.7029L47.9915 31.6251L47.6475 31.2363C47.6475 31.2363 47.6475 31.2363 47.6475 31.2038C47.6475 31.1714 47.4918 31.0353 47.4139 30.9511C47.336 30.8668 47.349 30.8798 47.3101 30.8474C47.2479 30.7777 47.1806 30.7127 47.1089 30.6529L46.8557 30.4261L46.7908 30.3677L46.7195 30.3094C46.5981 30.1921 46.4703 30.0818 46.3365 29.9788C46.3365 29.9788 46.1353 29.8168 46.038 29.7455L45.8887 29.6353L45.7524 29.5316L45.5837 29.4085L45.4993 29.3501L45.4149 29.2918C45.2462 29.1751 45.0775 29.065 44.9022 28.9613L44.5388 28.7538C44.4212 28.6827 44.2998 28.6178 44.1753 28.5594H44.1169L44.0131 28.4816C41.1596 27.0342 37.8545 26.7514 34.7961 27.693C31.7376 28.6346 29.1656 30.7269 27.6235 33.5276C26.0814 36.3283 25.6901 39.618 26.5322 42.7016C27.3743 45.7852 29.3839 48.421 32.1362 50.052C32.4218 50.2205 32.7074 50.3761 33.0059 50.5187C34.6655 51.3542 36.4952 51.7977 38.3537 51.815H38.4965C41.274 51.8167 43.9707 50.8819 46.1498 49.1621C48.329 47.4423 49.8629 45.0381 50.5032 42.339C50.5486 42.1446 50.594 41.9501 50.6265 41.7557C50.6589 41.5612 50.6849 41.4316 50.7109 41.2696C50.7368 41.1075 50.7498 41.0103 50.7628 40.8742C50.7758 40.7381 50.7628 40.5761 50.8017 40.4205C50.8116 40.2824 50.8116 40.1438 50.8017 40.0057C50.8049 39.9864 50.8049 39.9667 50.8017 39.9474C50.8422 38.9585 50.7638 37.9684 50.5681 36.9983ZM27.4634 39.5001C27.4634 36.5778 28.6258 33.7752 30.6949 31.7089C32.764 29.6425 35.5703 28.4816 38.4965 28.4816C38.8715 28.4815 39.2463 28.501 39.6193 28.54C39.9417 28.5711 40.2623 28.6187 40.5798 28.6825L41.0471 28.7798C41.5057 28.8885 41.9566 29.0271 42.3971 29.1946C42.6958 29.3038 42.9883 29.4293 43.2732 29.5705C43.5559 29.702 43.8311 29.8492 44.0975 30.0113C44.4968 30.2479 44.8805 30.5098 45.2462 30.7955C45.3695 30.8863 45.4863 30.9835 45.6096 31.0872C45.8433 31.2816 46.0704 31.4955 46.2587 31.7353C46.382 31.8585 46.5053 31.9881 46.6221 32.1177C46.7389 32.2474 46.8622 32.3835 46.9726 32.5196C47.2034 32.789 47.42 33.0703 47.6216 33.3622C48.0205 33.9525 48.3617 34.5798 48.6405 35.2353C48.7119 35.4038 48.7768 35.5659 48.8417 35.7344C48.9066 35.9029 48.965 36.0779 49.0169 36.2464C49.1754 36.7709 49.2968 37.3059 49.3804 37.8474C49.4142 38.0296 49.438 38.2135 49.4518 38.3983C49.5049 38.9042 49.5223 39.4131 49.5037 39.9214C49.5037 40.0251 49.5037 40.1288 49.5037 40.2261C49.5037 40.3233 49.5037 40.4788 49.5037 40.602C49.5037 40.7251 49.4713 40.9066 49.4453 41.0557C49.4193 41.2048 49.4453 41.2761 49.3934 41.3862L49.3544 41.6066C49.3298 41.76 49.2951 41.9115 49.2506 42.0603C48.6734 44.4734 47.2975 46.6214 45.3458 48.1564C43.3941 49.6915 40.9808 50.5238 38.4965 50.5187H38.3602C35.4577 50.4828 32.6863 49.3062 30.6466 47.2437C28.6068 45.1812 27.4631 42.399 27.4634 39.5001Z" fill="#232325"/>
<path opacity="0.5" d="M39.5092 36.9072H36.5497V38.8516H39.5092C39.7566 38.8499 39.9933 38.7511 40.1682 38.5764C40.3431 38.4017 40.4421 38.1653 40.4438 37.9183V37.8405C40.4421 37.5935 40.3431 37.3571 40.1682 37.1824C39.9933 37.0078 39.7566 36.9089 39.5092 36.9072ZM39.5092 36.9072H36.5497V38.8516H39.5092C39.7566 38.8499 39.9933 38.7511 40.1682 38.5764C40.3431 38.4017 40.4421 38.1653 40.4438 37.9183V37.8405C40.4421 37.5935 40.3431 37.3571 40.1682 37.1824C39.9933 37.0078 39.7566 36.9089 39.5092 36.9072ZM39.5092 36.9072H36.5497V38.8516H39.5092C39.7566 38.8499 39.9933 38.7511 40.1682 38.5764C40.3431 38.4017 40.4421 38.1653 40.4438 37.9183V37.8405C40.4421 37.5935 40.3431 37.3571 40.1682 37.1824C39.9933 37.0078 39.7566 36.9089 39.5092 36.9072ZM40.1193 40.1479H36.5497V42.0924H40.1193C40.3775 42.0924 40.6251 41.99 40.8077 41.8076C40.9902 41.6253 41.0928 41.378 41.0928 41.1202C41.0928 40.8623 40.9902 40.615 40.8077 40.4327C40.6251 40.2504 40.3775 40.1479 40.1193 40.1479ZM40.1193 40.1479H36.5497V42.0924H40.1193C40.3775 42.0924 40.6251 41.99 40.8077 41.8076C40.9902 41.6253 41.0928 41.378 41.0928 41.1202C41.0928 40.8623 40.9902 40.615 40.8077 40.4327C40.6251 40.2504 40.3775 40.1479 40.1193 40.1479ZM39.5092 36.9072H36.5497V38.8516H39.5092C39.7566 38.8499 39.9933 38.7511 40.1682 38.5764C40.3431 38.4017 40.4421 38.1653 40.4438 37.9183V37.8405C40.4421 37.5935 40.3431 37.3571 40.1682 37.1824C39.9933 37.0078 39.7566 36.9089 39.5092 36.9072ZM40.4438 37.9183V37.8405C40.4421 37.5935 40.3431 37.3571 40.1682 37.1824C39.9933 37.0078 39.7566 36.9089 39.5092 36.9072H36.5497V38.8516H39.5092C39.7566 38.8499 39.9933 38.7511 40.1682 38.5764C40.3431 38.4017 40.4421 38.1653 40.4438 37.9183ZM40.1193 40.1479H36.5497V42.0924H40.1193C40.3775 42.0924 40.6251 41.99 40.8077 41.8076C40.9902 41.6253 41.0928 41.378 41.0928 41.1202C41.0928 40.8623 40.9902 40.615 40.8077 40.4327C40.6251 40.2504 40.3775 40.1479 40.1193 40.1479ZM38.4968 30.4257C36.6997 30.4257 34.943 30.9579 33.4488 31.955C31.9546 32.952 30.79 34.3692 30.1023 36.0273C29.4146 37.6854 29.2346 39.5099 29.5852 41.2701C29.9358 43.0303 30.8012 44.6471 32.0719 45.9161C33.3426 47.1852 34.9616 48.0494 36.7242 48.3995C38.4867 48.7496 40.3136 48.5699 41.9739 47.8831C43.6342 47.1964 45.0532 46.0333 46.0516 44.5411C47.05 43.0489 47.5829 41.2945 47.5829 39.4998C47.5829 37.0932 46.6256 34.7852 44.9216 33.0835C43.2177 31.3817 40.9066 30.4257 38.4968 30.4257ZM40.1193 43.3887H39.7948V44.0368C39.7948 44.2087 39.7264 44.3736 39.6047 44.4951C39.483 44.6167 39.3179 44.685 39.1458 44.685C38.9737 44.685 38.8086 44.6167 38.6869 44.4951C38.5652 44.3736 38.4968 44.2087 38.4968 44.0368V43.3887H37.1988V44.0368C37.1988 44.2087 37.1304 44.3736 37.0087 44.4951C36.887 44.6167 36.7219 44.685 36.5497 44.685C36.3776 44.685 36.2125 44.6167 36.0908 44.4951C35.9691 44.3736 35.9007 44.2087 35.9007 44.0368V43.3887H35.2517C35.0796 43.3887 34.9145 43.3204 34.7928 43.1988C34.6711 43.0773 34.6027 42.9124 34.6027 42.7405C34.6027 42.5686 34.6711 42.4038 34.7928 42.2822C34.9145 42.1607 35.0796 42.0924 35.2517 42.0924V36.9072C35.0796 36.9072 34.9145 36.8389 34.7928 36.7174C34.6711 36.5958 34.6027 36.431 34.6027 36.2591C34.6027 36.0872 34.6711 35.9223 34.7928 35.8007C34.9145 35.6792 35.0796 35.6109 35.2517 35.6109H35.9007V34.9628C35.9007 34.7909 35.9691 34.626 36.0908 34.5044C36.2125 34.3829 36.3776 34.3146 36.5497 34.3146C36.7219 34.3146 36.887 34.3829 37.0087 34.5044C37.1304 34.626 37.1988 34.7909 37.1988 34.9628V35.6109H38.4968V34.9628C38.4968 34.7909 38.5652 34.626 38.6869 34.5044C38.8086 34.3829 38.9737 34.3146 39.1458 34.3146C39.3179 34.3146 39.483 34.3829 39.6047 34.5044C39.7264 34.626 39.7948 34.7909 39.7948 34.9628V35.6109C40.3328 35.6802 40.8271 35.9427 41.1855 36.3495C41.5438 36.7562 41.7415 37.2793 41.7418 37.8211V37.8989C41.7461 38.3643 41.6004 38.8187 41.3265 39.1952C41.6549 39.3973 41.9255 39.6807 42.112 40.018C42.2984 40.3552 42.3945 40.7349 42.3908 41.1202C42.3908 41.7218 42.1515 42.2988 41.7255 42.7243C41.2995 43.1497 40.7217 43.3887 40.1193 43.3887ZM40.4438 37.9183V37.8405C40.4421 37.5935 40.3431 37.3571 40.1682 37.1824C39.9933 37.0078 39.7566 36.9089 39.5092 36.9072H36.5497V38.8516H39.5092C39.7566 38.8499 39.9933 38.7511 40.1682 38.5764C40.3431 38.4017 40.4421 38.1653 40.4438 37.9183ZM40.1193 40.1479H36.5497V42.0924H40.1193C40.3775 42.0924 40.6251 41.99 40.8077 41.8076C40.9902 41.6253 41.0928 41.378 41.0928 41.1202C41.0928 40.8623 40.9902 40.615 40.8077 40.4327C40.6251 40.2504 40.3775 40.1479 40.1193 40.1479ZM40.1193 40.1479H36.5497V42.0924H40.1193C40.3775 42.0924 40.6251 41.99 40.8077 41.8076C40.9902 41.6253 41.0928 41.378 41.0928 41.1202C41.0928 40.8623 40.9902 40.615 40.8077 40.4327C40.6251 40.2504 40.3775 40.1479 40.1193 40.1479ZM39.5092 36.9072H36.5497V38.8516H39.5092C39.7566 38.8499 39.9933 38.7511 40.1682 38.5764C40.3431 38.4017 40.4421 38.1653 40.4438 37.9183V37.8405C40.4421 37.5935 40.3431 37.3571 40.1682 37.1824C39.9933 37.0078 39.7566 36.9089 39.5092 36.9072ZM39.5092 36.9072H36.5497V38.8516H39.5092C39.7566 38.8499 39.9933 38.7511 40.1682 38.5764C40.3431 38.4017 40.4421 38.1653 40.4438 37.9183V37.8405C40.4421 37.5935 40.3431 37.3571 40.1682 37.1824C39.9933 37.0078 39.7566 36.9089 39.5092 36.9072ZM40.1193 40.1479H36.5497V42.0924H40.1193C40.3775 42.0924 40.6251 41.99 40.8077 41.8076C40.9902 41.6253 41.0928 41.378 41.0928 41.1202C41.0928 40.8623 40.9902 40.615 40.8077 40.4327C40.6251 40.2504 40.3775 40.1479 40.1193 40.1479ZM40.1193 40.1479H36.5497V42.0924H40.1193C40.3775 42.0924 40.6251 41.99 40.8077 41.8076C40.9902 41.6253 41.0928 41.378 41.0928 41.1202C41.0928 40.8623 40.9902 40.615 40.8077 40.4327C40.6251 40.2504 40.3775 40.1479 40.1193 40.1479ZM39.5092 36.9072H36.5497V38.8516H39.5092C39.7566 38.8499 39.9933 38.7511 40.1682 38.5764C40.3431 38.4017 40.4421 38.1653 40.4438 37.9183V37.8405C40.4421 37.5935 40.3431 37.3571 40.1682 37.1824C39.9933 37.0078 39.7566 36.9089 39.5092 36.9072ZM39.5092 36.9072H36.5497V38.8516H39.5092C39.7566 38.8499 39.9933 38.7511 40.1682 38.5764C40.3431 38.4017 40.4421 38.1653 40.4438 37.9183V37.8405C40.4421 37.5935 40.3431 37.3571 40.1682 37.1824C39.9933 37.0078 39.7566 36.9089 39.5092 36.9072Z" fill="#232325"/>
<path d="M56.8052 25.7526L53.2356 22.1878C53.1444 22.0978 53.0285 22.0369 52.9026 22.0127C52.7767 21.9885 52.6464 22.002 52.5282 22.0517C52.4097 22.1003 52.3082 22.1828 52.2366 22.289C52.165 22.3951 52.1265 22.52 52.1258 22.6479V23.9442H38.8666C30.1439 23.9442 22.9918 30.8665 22.9204 39.3702C22.9204 39.6554 22.9204 39.9341 22.9204 40.2128C23.0274 42.3878 23.7207 44.4935 24.927 46.3075C26.1334 48.1215 27.808 49.5763 29.7739 50.5183C31.5229 51.3756 33.4461 51.8192 35.3944 51.8146H38.3538C41.1398 51.7864 43.839 50.8432 46.0348 49.1306C48.2305 47.418 49.8009 45.0312 50.5033 42.3387C50.5487 42.1442 50.5942 41.9498 50.6266 41.7554C50.659 41.5609 50.685 41.4313 50.711 41.2692C50.7369 41.1072 50.7499 41.01 50.7629 40.8739C50.7759 40.7378 50.7629 40.5757 50.8018 40.4202C50.8117 40.2821 50.8117 40.1435 50.8018 40.0054C50.805 39.986 50.805 39.9663 50.8018 39.947C50.8359 38.9574 50.7509 37.9673 50.5487 36.9979C50.5163 36.81 50.4708 36.6155 50.4189 36.4276C50.367 36.2396 50.3151 36.0387 50.2567 35.8507C50.2037 35.6618 50.1409 35.4757 50.0685 35.2933C50.074 35.2743 50.074 35.254 50.0685 35.235C49.8019 34.5083 49.465 33.8093 49.0625 33.1479C49.0449 33.1076 49.0208 33.0703 48.9911 33.0378C48.9067 32.8952 48.8159 32.7591 48.7185 32.6165C48.6212 32.4739 48.4914 32.2924 48.3745 32.1368C48.2577 31.9813 48.1539 31.8452 48.0371 31.7026L47.9722 31.6248L47.6282 31.2359C47.6282 31.2359 47.6282 31.2359 47.6282 31.2035C47.6282 31.1711 47.4724 31.035 47.3945 30.9507C47.3167 30.8665 47.3296 30.8794 47.2907 30.847C47.2285 30.7773 47.1613 30.7123 47.0895 30.6526L46.8559 30.4257L46.791 30.3674L46.7196 30.3091C46.5982 30.1918 46.4704 30.0814 46.3367 29.9785C46.3367 29.9785 46.1355 29.8165 46.0381 29.7452L45.9148 29.6479L45.7785 29.5442L45.6098 29.4211L45.5254 29.3628L45.441 29.3044C45.2723 29.1878 45.1035 29.0776 44.9283 28.9739L44.5649 28.7665C44.4472 28.6953 44.3259 28.6304 44.2014 28.572H44.143L44.0132 28.4813H52.1258V29.7776C52.1265 29.9055 52.165 30.0304 52.2366 30.1366C52.3082 30.2427 52.4097 30.3253 52.5282 30.3739C52.6464 30.4235 52.7767 30.4371 52.9026 30.4128C53.0285 30.3886 53.1444 30.3277 53.2356 30.2378L56.8052 26.6729C56.866 26.6127 56.9143 26.541 56.9472 26.462C56.9802 26.383 56.9971 26.2983 56.9971 26.2128C56.9971 26.1272 56.9802 26.0425 56.9472 25.9635C56.9143 25.8845 56.866 25.8128 56.8052 25.7526ZM53.4238 28.2155V27.8331C53.4238 27.6612 53.3555 27.4964 53.2337 27.3748C53.112 27.2533 52.9469 27.185 52.7748 27.185H38.4966C38.3245 27.185 38.1594 27.2533 38.0377 27.3748C37.916 27.4964 37.8476 27.6612 37.8476 27.8331C37.8476 28.005 37.916 28.1699 38.0377 28.2914C38.1594 28.413 38.3245 28.4813 38.4966 28.4813C38.8716 28.4812 39.2464 28.5006 39.6194 28.5396C39.9418 28.5708 40.2624 28.6184 40.5799 28.6822L41.0472 28.7794C41.5058 28.8882 41.9567 29.0267 42.3972 29.1942C42.6959 29.3034 42.9884 29.4289 43.2733 29.5702C43.5561 29.7017 43.8312 29.8488 44.0976 30.0109C44.5016 30.24 44.8859 30.5024 45.2463 30.7952C45.3696 30.8859 45.4865 30.9831 45.6098 31.0868C45.8434 31.2813 46.0706 31.4952 46.2588 31.735C46.3095 31.777 46.3572 31.8225 46.4016 31.8711C46.4803 31.9484 46.554 32.0307 46.6222 32.1174C46.7479 32.2434 46.865 32.3776 46.9727 32.5192C47.208 32.785 47.4249 33.0665 47.6217 33.3618C48.0291 33.947 48.3708 34.5752 48.6406 35.235C48.7171 35.3974 48.7843 35.564 48.8418 35.7341C48.9067 35.9026 48.9651 36.0776 49.0171 36.2461C49.1802 36.7693 49.3018 37.3047 49.3805 37.847C49.4143 38.0292 49.4381 38.2132 49.4519 38.3979C49.5051 38.9038 49.5224 39.4128 49.5038 39.9211C49.5038 40.0248 49.5038 40.1285 49.5038 40.2257C49.5038 40.3229 49.5038 40.4785 49.5038 40.6017C49.5038 40.7248 49.4714 40.9063 49.4454 41.0554C49.4194 41.2044 49.4454 41.2757 49.3935 41.3859L49.3545 41.6063C49.3545 41.7618 49.2896 41.9109 49.2507 42.06C48.6158 44.4676 47.2057 46.5999 45.2378 48.1284C43.2699 49.6568 40.8533 50.4966 38.3603 50.5183H35.3944C34.2959 50.5189 33.203 50.3617 32.1493 50.0517C29.9587 49.4343 28.0169 48.1469 26.5967 46.3705C25.1765 44.5942 24.3493 42.418 24.2314 40.1479C24.2314 39.8952 24.2314 39.6359 24.2314 39.3702C24.2833 31.5859 30.8578 25.2405 38.8666 25.2405H52.7748C52.9469 25.2405 53.112 25.1723 53.2337 25.0507C53.3555 24.9292 53.4238 24.7643 53.4238 24.5924V24.21L55.4293 26.2128L53.4238 28.2155Z" fill="#232325"/>
<path opacity="0.5" d="M53.4239 28.2155V27.8331C53.4239 27.6612 53.3555 27.4964 53.2338 27.3748C53.1121 27.2532 52.947 27.185 52.7749 27.185H38.4967C35.801 27.1844 33.1794 28.066 31.0332 29.6948C28.8869 31.3236 27.3342 33.6099 26.6128 36.2038C25.8913 38.7977 26.0408 41.5562 27.0384 44.0571C28.0359 46.5581 29.8266 48.6637 32.1364 50.0516C29.9482 49.432 28.0092 48.1436 26.5915 46.3674C25.1738 44.5913 24.3485 42.4164 24.2314 40.1479C24.2314 39.8951 24.2314 39.6359 24.2314 39.3701C24.2834 31.5859 30.8578 25.2405 38.8666 25.2405H52.7749C52.947 25.2405 53.1121 25.1722 53.2338 25.0507C53.3555 24.9291 53.4239 24.7643 53.4239 24.5924V24.21L55.4293 26.2127L53.4239 28.2155Z" fill="#232325"/>
<path d="M45.8953 29.6476L46.0446 29.7578L45.8953 29.6476ZM54.0598 38.7865C53.9541 36.6128 53.2628 34.508 52.0588 32.6941C50.8548 30.8803 49.1828 29.4247 47.2193 28.4809C45.4703 27.6236 43.5472 27.18 41.5989 27.1846H38.4966C38.3245 27.1846 38.1594 27.2529 38.0377 27.3744C37.916 27.496 37.8476 27.6609 37.8476 27.8328C37.8476 28.0047 37.916 28.1695 38.0377 28.2911C38.1594 28.4126 38.3245 28.4809 38.4966 28.4809C38.8716 28.4808 39.2464 28.5002 39.6194 28.5392C39.9418 28.5704 40.2624 28.618 40.5799 28.6818L41.0472 28.779C41.5058 28.8878 41.9567 29.0264 42.3972 29.1939C42.6959 29.3031 42.9884 29.4286 43.2733 29.5698C43.556 29.7013 43.8312 29.8484 44.0976 30.0105C44.5016 30.2397 44.8858 30.502 45.2463 30.7948C45.3696 30.8855 45.4864 30.9828 45.6097 31.0865C45.8434 31.2809 46.0705 31.4948 46.2588 31.7346C46.3095 31.7766 46.3572 31.8221 46.4015 31.8707C46.4803 31.948 46.554 32.0303 46.6222 32.117C46.7479 32.243 46.865 32.3772 46.9727 32.5189C47.208 32.7846 47.4248 33.0661 47.6217 33.3615C48.029 33.9467 48.3708 34.5748 48.6406 35.2346C48.7171 35.397 48.7843 35.5636 48.8418 35.7337C48.9067 35.9022 48.9651 36.0772 49.017 36.2457C49.1802 36.769 49.3018 37.3043 49.3805 37.8466C49.4143 38.0289 49.4381 38.2128 49.4519 38.3976C49.505 38.9034 49.5224 39.4124 49.5038 39.9207C49.5038 40.0244 49.5038 40.1281 49.5038 40.2253C49.5038 40.3226 49.5038 40.4781 49.5038 40.6013C49.5038 40.7244 49.4714 40.9059 49.4454 41.055C49.4194 41.204 49.4454 41.2753 49.3935 41.3855L49.3545 41.6059C49.3545 41.7615 49.2896 41.9105 49.2507 42.0596C48.6158 44.4672 47.2057 46.5995 45.2378 48.128C43.2699 49.6565 40.8532 50.4962 38.3603 50.5179H24.8674V49.2216C24.8668 49.0937 24.8282 48.9688 24.7566 48.8627C24.685 48.7565 24.5836 48.674 24.465 48.6253C24.3468 48.5757 24.2166 48.5621 24.0907 48.5864C23.9648 48.6106 23.8489 48.6715 23.7576 48.7615L20.1881 52.3263C20.1272 52.3865 20.079 52.4582 20.046 52.5372C20.0131 52.6162 19.9961 52.7009 19.9961 52.7865C19.9961 52.872 20.0131 52.9567 20.046 53.0357C20.079 53.1147 20.1272 53.1864 20.1881 53.2466L23.7576 56.8115C23.8183 56.8715 23.8902 56.9191 23.9693 56.9513C24.0483 56.9836 24.133 56.9999 24.2184 56.9994C24.3035 57.0016 24.388 56.9839 24.465 56.9476C24.5836 56.8989 24.685 56.8164 24.7566 56.7103C24.8282 56.6041 24.8668 56.4792 24.8674 56.3513V55.055H38.1267C42.3137 55.0576 46.3368 53.43 49.3416 50.5179C50.8149 49.1078 51.992 47.4186 52.8044 45.549C53.6167 43.6794 54.0479 41.6669 54.0728 39.629C54.0728 39.3439 54.0663 39.0652 54.0598 38.7865ZM38.1267 53.7587H24.2184C24.0463 53.7587 23.8812 53.827 23.7595 53.9485C23.6378 54.0701 23.5694 54.2349 23.5694 54.4068V54.7892L21.564 52.7865L23.5694 50.7837V51.1661C23.5694 51.338 23.6378 51.5028 23.7595 51.6244C23.8812 51.7459 24.0463 51.8142 24.2184 51.8142H38.3538C41.1398 51.786 43.839 50.8428 46.0347 49.1302C48.2305 47.4176 49.8008 45.0308 50.5033 42.3383C50.5487 42.1439 50.5941 41.9494 50.6266 41.755C50.659 41.5605 50.685 41.4309 50.711 41.2689C50.7369 41.1068 50.7499 41.0096 50.7629 40.8735C50.7759 40.7374 50.7629 40.5753 50.8018 40.4198C50.8117 40.2817 50.8117 40.1431 50.8018 40.005C50.805 39.9857 50.805 39.966 50.8018 39.9466C50.8359 38.957 50.7509 37.9669 50.5487 36.9976C50.5163 36.8096 50.4708 36.6152 50.4189 36.4272C50.367 36.2392 50.3151 36.0383 50.2567 35.8503C50.2037 35.6614 50.1409 35.4753 50.0684 35.2929C50.074 35.2739 50.074 35.2536 50.0684 35.2346C49.8019 34.5079 49.465 33.8089 49.0625 33.1476C49.0449 33.1072 49.0208 33.07 48.9911 33.0374C48.9067 32.8948 48.8159 32.7587 48.7185 32.6161C48.6212 32.4735 48.4914 32.292 48.3745 32.1365C48.2577 31.9809 48.1539 31.8448 48.037 31.7022L47.9721 31.6244L47.6282 31.2355C47.6282 31.2355 47.6282 31.2355 47.6282 31.2031C47.6282 31.1707 47.4724 31.0346 47.3945 30.9503C47.3166 30.8661 47.3296 30.879 47.2907 30.8466C47.2285 30.7769 47.1613 30.712 47.0895 30.6522L46.8558 30.4253L46.7909 30.367L46.7196 30.3087C46.5982 30.1914 46.4704 30.0811 46.3366 29.9781C46.3366 29.9781 46.1354 29.8161 46.0381 29.7448L45.9148 29.6476L45.7785 29.5439L45.6097 29.4207L45.5254 29.3624L45.441 29.304C45.2723 29.1874 45.1035 29.0772 44.9283 28.9735C47.1001 29.6025 49.0217 30.8919 50.4257 32.6622C51.8296 34.4326 52.6462 36.5959 52.7618 38.8513C52.7618 39.104 52.7618 39.3633 52.7618 39.629C52.7099 47.4133 46.1354 53.7587 38.1267 53.7587ZM45.9148 29.6476L46.0641 29.7578L45.9148 29.6476Z" fill="#232325"/>
<path opacity="0.5" d="M52.7748 39.6227C52.7099 47.4134 46.1354 53.7588 38.1267 53.7588H24.2184C24.0463 53.7588 23.8812 53.8271 23.7595 53.9487C23.6378 54.0702 23.5694 54.2351 23.5694 54.407V54.7894L21.564 52.7866L23.5694 50.7838V51.1662C23.5694 51.3381 23.6378 51.503 23.7595 51.6245C23.8812 51.7461 24.0463 51.8144 24.2184 51.8144H38.4966C41.2741 51.8161 43.9708 50.8813 46.1499 49.1615C48.3291 47.4417 49.863 45.0375 50.5033 42.3384C50.5487 42.144 50.5941 41.9496 50.6266 41.7551C50.659 41.5607 50.685 41.431 50.711 41.269C50.7369 41.107 50.7499 41.0097 50.7629 40.8736C50.7759 40.7375 50.7629 40.5755 50.8018 40.4199C50.8117 40.2818 50.8117 40.1432 50.8018 40.0051C50.805 39.9858 50.805 39.9661 50.8018 39.9468C50.8359 38.9572 50.7509 37.9671 50.5487 36.9977C50.5163 36.8097 50.4708 36.6153 50.4189 36.4273C50.3747 36.2324 50.3206 36.0399 50.2566 35.8505C50.2037 35.6615 50.1409 35.4755 50.0684 35.2931C50.074 35.274 50.074 35.2538 50.0684 35.2347C49.8019 34.508 49.465 33.809 49.0625 33.1477C49.0449 33.1073 49.0208 33.0701 48.9911 33.0375C48.9067 32.8949 48.8158 32.7588 48.7185 32.6162C48.6211 32.4736 48.4913 32.2922 48.3745 32.1366C48.2577 31.981 48.1539 31.8449 48.037 31.7023L47.9721 31.6246L47.6282 31.2357C47.6282 31.2357 47.6282 31.2357 47.6282 31.2033C47.6282 31.1709 47.4724 31.0347 47.3945 30.9505C47.3166 30.8662 47.3296 30.8792 47.2907 30.8468C47.2285 30.7771 47.1613 30.7121 47.0895 30.6523L46.8558 30.4255L46.7909 30.3672L46.7195 30.3088C46.5982 30.1916 46.4704 30.0812 46.3366 29.9783C46.3366 29.9783 46.1354 29.8162 46.0381 29.7449L45.9148 29.6477L45.7785 29.544L45.6097 29.4209L45.5254 29.3625L45.441 29.3042C45.2723 29.1875 45.1035 29.0773 44.9283 28.9736C47.1001 29.6026 49.0217 30.892 50.4257 32.6623C51.8296 34.4327 52.6462 36.596 52.7618 38.8514C52.7683 39.0977 52.7748 39.357 52.7748 39.6227Z" fill="#232325"/>
</g>
<defs>
<linearGradient id="paint0_linear_4_4562" x1="80" y1="40" x2="-2.62962e-07" y2="40" gradientUnits="userSpaceOnUse">
<stop stop-color="#FF9085"/>
<stop offset="1" stop-color="#FB6FBB"/>
</linearGradient>
<clipPath id="clip0_4_4562">
<rect width="37" height="35" fill="white" transform="translate(20 22)"/>
</clipPath>
</defs>
</svg>
