<svg width="80" height="80" viewBox="0 0 80 80" fill="none" xmlns="http://www.w3.org/2000/svg">
<circle cx="40" cy="40" r="40" fill="url(#paint0_linear_389_1389)"/>
<path d="M27.266 58V53.968C27.266 51.632 27.65 49.696 28.418 48.16C29.186 46.592 30.29 45.312 31.73 44.32C33.202 43.296 34.994 42.464 37.106 41.824L40.322 40.816C41.506 40.432 42.498 39.968 43.298 39.424C44.098 38.848 44.706 38.16 45.122 37.36C45.57 36.56 45.794 35.648 45.794 34.624V34.432C45.794 32.832 45.25 31.568 44.162 30.64C43.074 29.68 41.586 29.2 39.698 29.2C37.842 29.2 36.338 29.712 35.186 30.736C34.066 31.728 33.506 33.168 33.506 35.056V35.92H27.362V35.152C27.362 32.72 27.906 30.656 28.994 28.96C30.082 27.264 31.554 25.968 33.41 25.072C35.298 24.176 37.394 23.728 39.698 23.728C42.002 23.728 44.082 24.176 45.938 25.072C47.794 25.936 49.25 27.168 50.306 28.768C51.394 30.336 51.938 32.192 51.938 34.336V34.816C51.938 36.96 51.49 38.784 50.594 40.288C49.73 41.76 48.546 42.976 47.042 43.936C45.538 44.864 43.826 45.632 41.906 46.24L38.834 47.2C37.458 47.616 36.386 48.08 35.618 48.592C34.85 49.072 34.306 49.616 33.986 50.224C33.698 50.8 33.554 51.504 33.554 52.336V52.528H51.65V58H27.266Z" fill="white"/>
<defs>
<linearGradient id="paint0_linear_389_1389" x1="80" y1="40" x2="-2.62962e-07" y2="40" gradientUnits="userSpaceOnUse">
<stop stop-color="#FF9085"/>
<stop offset="1" stop-color="#FB6FBB"/>
</linearGradient>
</defs>
</svg>
