<svg width="80" height="80" viewBox="0 0 80 80" fill="none" xmlns="http://www.w3.org/2000/svg">
<circle cx="40" cy="40" r="40" fill="url(#paint0_linear_389_1399)"/>
<path d="M38.9904 58.672C36.4624 58.672 34.2224 58.224 32.2704 57.328C30.3184 56.432 28.7824 55.152 27.6624 53.488C26.5744 51.792 26.0304 49.792 26.0304 47.488V46.624H32.1744V47.296C32.1744 49.088 32.7984 50.528 34.0464 51.616C35.2944 52.672 36.9424 53.2 38.9904 53.2C41.0704 53.2 42.6704 52.704 43.7904 51.712C44.9424 50.72 45.5184 49.472 45.5184 47.968V47.488C45.5184 46.464 45.2624 45.632 44.7504 44.992C44.2384 44.352 43.5504 43.888 42.6864 43.6C41.8224 43.28 40.8464 43.12 39.7584 43.12H33.0384V36.4L43.8864 30.64V29.872H26.8944V24.4H50.7024V32.56L40.5744 37.936V38.704H42.3504C43.8544 38.704 45.3104 39.008 46.7184 39.616C48.1584 40.224 49.3424 41.168 50.2704 42.448C51.1984 43.696 51.6624 45.328 51.6624 47.344V47.92C51.6624 50.096 51.1344 52 50.0784 53.632C49.0224 55.232 47.5344 56.48 45.6144 57.376C43.7264 58.24 41.5184 58.672 38.9904 58.672Z" fill="white"/>
<defs>
<linearGradient id="paint0_linear_389_1399" x1="80" y1="40" x2="-2.62962e-07" y2="40" gradientUnits="userSpaceOnUse">
<stop stop-color="#FF9085"/>
<stop offset="1" stop-color="#FB6FBB"/>
</linearGradient>
</defs>
</svg>
