<svg width="178" height="78" viewBox="0 0 178 78" fill="none" xmlns="http://www.w3.org/2000/svg">
<g filter="url(#filter0_b_4_4531)">
<rect width="176.825" height="76.0135" rx="38.0068" transform="matrix(0.999981 -0.00593626 0.00546334 0.999984 0 1.0498)" fill="#232325" fill-opacity="0.8"/>
<ellipse cx="38.2134" cy="38.8303" rx="28" ry="28" transform="rotate(-0.326296 38.2134 38.8303)" fill="url(#paint0_linear_4_4531)"/>
<g clip-path="url(#clip0_4_4531)">
<path d="M24.2522 33.8995L37.7522 33.8995L51.2522 33.8995M24.2522 27.8995L51.2522 27.8995L51.2522 45.8995C51.2522 47.5564 49.9091 48.8995 48.2522 48.8995L27.2522 48.8995C25.5953 48.8995 24.2522 47.5564 24.2522 45.8995L24.2522 27.8995Z" stroke="white" stroke-width="3" stroke-linecap="round" stroke-linejoin="round"/>
<path d="M24.2522 33.8995L37.7522 33.8995L51.2522 33.8995M24.2522 27.8995L51.2522 27.8995L51.2522 45.8995C51.2522 47.5564 49.9091 48.8995 48.2522 48.8995L27.2522 48.8995C25.5953 48.8995 24.2522 47.5564 24.2522 45.8995L24.2522 27.8995Z" stroke="#FF9085" stroke-opacity="0.2" stroke-width="3" stroke-linecap="round" stroke-linejoin="round"/>
<path d="M30.2522 39.8995L34.7522 39.8995" stroke="white" stroke-width="3" stroke-linecap="round" stroke-linejoin="round"/>
<path d="M30.2522 39.8995L34.7522 39.8995" stroke="#FF9085" stroke-opacity="0.2" stroke-width="3" stroke-linecap="round" stroke-linejoin="round"/>
</g>
<path d="M78.9642 34.5778L78.959 33.6498L80.5589 33.6407L80.5057 24.2969L78.9057 24.306L78.9005 23.378L84.4524 23.3464C85.0924 23.3428 85.6637 23.4568 86.1663 23.6887C86.669 23.9205 87.0602 24.2489 87.34 24.674C87.6303 25.0883 87.7771 25.5728 87.7803 26.1275L87.781 26.2555C87.784 26.7782 87.6851 27.2107 87.4844 27.5532C87.2836 27.8957 87.0398 28.1637 86.7529 28.3574C86.466 28.551 86.1842 28.6913 85.9073 28.7782L85.9084 28.9702C86.1861 29.0326 86.4695 29.1643 86.7587 29.3654C87.0584 29.5557 87.3053 29.8209 87.4992 30.1612C87.7038 30.5013 87.8076 30.9327 87.8106 31.4554L87.8115 31.6154C87.815 32.2234 87.6686 32.7469 87.3724 33.1859C87.0869 33.6249 86.6889 33.9632 86.1782 34.2007C85.6782 34.4276 85.1081 34.5428 84.4681 34.5465L78.9642 34.5778ZM81.5829 33.6349L84.3669 33.619C85.1669 33.6145 85.7684 33.4244 86.1716 33.0488C86.5855 32.6731 86.7907 32.1706 86.7871 31.5412L86.7863 31.4132C86.7828 30.7839 86.5719 30.2838 86.1538 29.9128C85.7463 29.5418 85.1426 29.3586 84.3426 29.3631L81.5587 29.379L81.5829 33.6349ZM81.5534 28.451L84.4013 28.4348C85.1373 28.4306 85.7123 28.246 86.1262 27.8809C86.5507 27.5052 86.7613 27.0186 86.7579 26.4213L86.757 26.2613C86.7536 25.664 86.5375 25.1852 86.1088 24.825C85.6907 24.454 85.1136 24.2707 84.3777 24.2748L81.5297 24.2911L81.5534 28.451ZM93.1594 34.657C92.6047 34.6602 92.0868 34.5458 91.6054 34.3138C91.1348 34.0818 90.7541 33.732 90.4634 33.2643C90.1834 32.7859 90.0413 32.1894 90.0372 31.4747L90.0103 26.7388L90.9702 26.7333L90.9969 31.4053C91.0017 32.2479 91.2185 32.86 91.6473 33.2416C92.0761 33.6125 92.6478 33.7959 93.3625 33.7918C94.1625 33.7873 94.8276 33.5221 95.358 32.9964C95.8883 32.4601 96.1504 31.6586 96.1443 30.5919L96.1222 26.704L97.0821 26.6985L97.1264 34.4744L96.1984 34.4797L96.1902 33.0397L95.9982 33.0408C95.8086 33.4579 95.4961 33.833 95.0606 34.1662C94.6251 34.4886 93.9914 34.6523 93.1594 34.657ZM100.942 37.6527L100.937 36.7887L105.481 36.7629C105.801 36.761 105.96 36.6001 105.958 36.2801L105.94 33.0802L105.748 33.0813C105.621 33.338 105.441 33.5844 105.208 33.8204C104.985 34.0456 104.688 34.234 104.315 34.3855C103.953 34.5262 103.495 34.5981 102.94 34.6013C102.386 34.6044 101.868 34.4901 101.387 34.2581C100.916 34.0261 100.535 33.6763 100.245 33.2086C99.9645 32.7409 99.8225 32.1497 99.8184 31.435L99.7913 26.6831L100.751 26.6776L100.778 31.3656C100.783 32.2082 101 32.815 101.428 33.1859C101.857 33.5568 102.429 33.7402 103.144 33.7361C103.944 33.7316 104.609 33.4664 105.139 32.9407C105.669 32.415 105.932 31.6189 105.925 30.5522L105.903 26.6483L106.863 26.6428L106.919 36.4027C106.921 36.7867 106.816 37.0859 106.604 37.3005C106.402 37.5149 106.094 37.6234 105.678 37.6257L100.942 37.6527ZM115.134 34.3718L113.329 26.606L114.321 26.6004L115.898 33.7275L116.09 33.7264L118.049 26.5791L119.681 26.5698L121.722 33.6943L121.914 33.6932L123.409 26.5486L124.401 26.543L122.685 34.3288L121.006 34.3384L118.965 27.2139L118.773 27.215L116.814 34.3623L115.134 34.3718ZM126.775 34.3055L126.731 26.5297L127.691 26.5242L127.735 34.3001L126.775 34.3055ZM127.203 25.183C126.969 25.1843 126.771 25.1054 126.61 24.9463C126.449 24.7873 126.368 24.5904 126.367 24.3557C126.365 24.1104 126.444 23.9126 126.603 23.7624C126.762 23.6015 126.959 23.5203 127.194 23.519C127.439 23.5176 127.637 23.5965 127.787 23.7556C127.948 23.904 128.029 24.1009 128.031 24.3462C128.032 24.5809 127.953 24.7787 127.794 24.9396C127.646 25.1005 127.449 25.1816 127.203 25.183ZM133.372 34.268C132.956 34.2703 132.641 34.1655 132.427 33.9534C132.223 33.7412 132.12 33.4431 132.118 33.0591L132.085 27.3632L129.589 27.3774L129.584 26.5134L132.08 26.4992L132.064 23.5873L133.024 23.5818L133.04 26.4938L135.76 26.4783L135.765 27.3422L133.045 27.3577L133.077 32.9256C133.079 33.2456 133.239 33.4047 133.559 33.4029L135.383 33.3925L135.388 34.2565L133.372 34.268ZM137.947 34.2419L137.883 23.0421L138.843 23.0367L138.87 27.8206L139.062 27.8195C139.189 27.5628 139.364 27.3218 139.586 27.0965C139.82 26.8605 140.117 26.6721 140.479 26.5314C140.852 26.3799 141.315 26.3026 141.87 26.2995C142.435 26.2962 142.953 26.4106 143.424 26.6426C143.894 26.8746 144.27 27.2245 144.55 27.6922C144.84 28.1599 144.988 28.7511 144.992 29.4657L145.019 34.2016L144.059 34.2071L144.032 29.5352C144.027 28.6819 143.811 28.0751 143.382 27.7149C142.953 27.344 142.381 27.1606 141.667 27.1646C140.867 27.1692 140.202 27.4343 139.671 27.96C139.141 28.4857 138.879 29.2819 138.885 30.3485L138.907 34.2365L137.947 34.2419Z" fill="#F3F3F3"/>
<path d="M82.9649 55.7514C81.7516 55.7583 80.7884 55.4278 80.0752 54.7599C79.362 54.0826 79.0018 53.1139 78.9947 51.854L78.9813 49.502C78.9741 48.242 79.3233 47.274 80.0288 46.598C80.7342 45.9126 81.6936 45.5665 82.9069 45.5596C84.1109 45.5527 85.0414 45.8788 85.6985 46.5377C86.3649 47.1873 86.7013 48.086 86.7079 49.234L86.7083 49.318L84.8884 49.3284L84.8876 49.1884C84.8843 48.6097 84.7182 48.1347 84.3895 47.7632C84.07 47.3917 83.5789 47.2078 82.9163 47.2116C82.263 47.2153 81.7508 47.4189 81.3797 47.8223C81.0087 48.2258 80.8252 48.7728 80.8291 49.4635L80.8428 51.8714C80.8467 52.5528 81.0365 53.0977 81.4121 53.5062C81.7877 53.9054 82.3022 54.1032 82.9555 54.0994C83.6182 54.0957 84.1071 53.9062 84.4223 53.5311C84.7468 53.1466 84.9074 52.6696 84.9042 52.1003L84.9027 51.8483L86.7227 51.838L86.7238 52.034C86.7303 53.1819 86.4042 54.0891 85.7453 54.7556C85.0957 55.4126 84.1689 55.7446 82.9649 55.7514ZM88.3055 55.525L88.2659 48.5811L90.0019 48.5712L90.0064 49.3552L90.2584 49.3538C90.3594 49.0732 90.5263 48.8669 90.7588 48.7349C91.0008 48.6029 91.2804 48.536 91.5977 48.5341L92.4377 48.5294L92.4466 50.0973L91.5786 50.1023C91.1307 50.1048 90.7627 50.2283 90.4747 50.4726C90.1867 50.7075 90.0442 51.0724 90.047 51.567L90.0695 55.515L88.3055 55.525ZM96.7751 55.6728C96.0845 55.6767 95.4723 55.5355 94.9387 55.2492C94.4143 54.9535 94.0013 54.5405 93.6996 54.0103C93.4072 53.4706 93.2589 52.8368 93.2548 52.1088L93.2538 51.9408C93.2497 51.2128 93.3908 50.582 93.6771 50.0483C93.9633 49.5054 94.3669 49.0877 94.8879 48.7954C95.4089 48.4938 96.0147 48.341 96.7054 48.3371C97.3867 48.3332 97.9802 48.4838 98.486 48.7889C98.9917 49.0847 99.386 49.5025 99.6691 50.0422C99.9521 50.5726 100.096 51.1925 100.1 51.9018L100.103 52.5038L95.0492 52.5326C95.0706 53.0084 95.2501 53.3948 95.5878 53.6915C95.9255 53.9882 96.337 54.1352 96.8224 54.1325C97.317 54.1297 97.6804 54.0203 97.9125 53.8043C98.1446 53.5883 98.3206 53.3493 98.4404 53.0872L99.8867 53.835C99.7574 54.0784 99.5676 54.3455 99.3173 54.6363C99.0762 54.9177 98.7509 55.1622 98.3414 55.3698C97.9319 55.5682 97.4098 55.6692 96.7751 55.6728ZM95.0557 51.2165L98.3037 51.198C98.2641 50.7969 98.0989 50.4758 97.8082 50.2348C97.5268 49.9937 97.1575 49.8745 96.7001 49.8771C96.2241 49.8798 95.8468 50.0033 95.5682 50.2476C95.2896 50.4918 95.1188 50.8148 95.0557 51.2165ZM104.491 55.6288C103.94 55.632 103.422 55.4996 102.935 55.2317C102.457 54.9544 102.072 54.5506 101.78 54.0202C101.488 53.4899 101.339 52.8467 101.335 52.0907L101.334 51.8668C101.329 51.1108 101.47 50.466 101.757 49.9323C102.043 49.3987 102.423 48.9952 102.898 48.7218C103.372 48.4391 103.889 48.2961 104.449 48.293C104.869 48.2906 105.22 48.3399 105.5 48.441C105.79 48.5327 106.024 48.6527 106.202 48.801C106.38 48.9493 106.517 49.1072 106.611 49.2747L106.863 49.2732L106.842 45.6193L108.606 45.6092L108.662 55.4091L106.926 55.419L106.921 54.579L106.669 54.5804C106.512 54.8426 106.266 55.082 105.931 55.2986C105.606 55.5151 105.126 55.6252 104.491 55.6288ZM105.014 54.0858C105.556 54.0827 106.007 53.9075 106.369 53.5601C106.731 53.2034 106.91 52.689 106.907 52.017L106.906 51.877C106.902 51.205 106.717 50.6974 106.351 50.3542C105.994 50.0015 105.541 49.8268 104.99 49.8299C104.449 49.833 103.997 50.0129 103.635 50.3696C103.273 50.717 103.094 51.2267 103.098 51.8987L103.099 52.0387C103.102 52.7107 103.287 53.223 103.653 53.5756C104.019 53.9188 104.473 54.0889 105.014 54.0858ZM110.618 55.3979L110.578 48.4541L112.342 48.444L112.382 55.3879L110.618 55.3979ZM111.455 47.637C111.138 47.6389 110.867 47.5377 110.642 47.3337C110.426 47.1296 110.317 46.8595 110.315 46.5235C110.313 46.1875 110.419 45.9163 110.632 45.7097C110.855 45.5031 111.125 45.3989 111.443 45.3971C111.769 45.3952 112.041 45.4963 112.256 45.7005C112.472 45.9046 112.581 46.1746 112.583 46.5106C112.585 46.8466 112.479 47.1179 112.266 47.3244C112.052 47.531 111.782 47.6352 111.455 47.637ZM116.996 55.3616C116.539 55.3642 116.165 55.2263 115.874 54.948C115.592 54.6603 115.45 54.2784 115.447 53.8024L115.425 49.8825L113.689 49.8924L113.681 48.4364L115.417 48.4265L115.404 46.2705L117.168 46.2605L117.181 48.4165L119.085 48.4056L119.093 49.8616L117.189 49.8724L117.21 53.4844C117.211 53.7644 117.343 53.9036 117.604 53.9021L118.948 53.8945L118.956 55.3504L116.996 55.3616ZM127.945 55.4953C126.731 55.5022 125.768 55.1716 125.055 54.5037C124.342 53.8264 123.982 52.8578 123.974 51.5978L123.961 49.2459C123.954 47.9859 124.303 47.0179 125.008 46.3418C125.714 45.6565 126.673 45.3103 127.887 45.3034C129.091 45.2966 130.021 45.6226 130.678 46.2816C131.345 46.9311 131.681 47.8299 131.688 48.9778L131.688 49.0618L129.868 49.0722L129.867 48.9322C129.864 48.3536 129.698 47.8785 129.369 47.507C129.05 47.1355 128.559 46.9516 127.896 46.9554C127.243 46.9591 126.73 47.1627 126.359 47.5662C125.988 47.9696 125.805 48.5167 125.809 49.2073L125.822 51.6153C125.826 52.2966 126.016 52.8415 126.392 53.2501C126.767 53.6493 127.282 53.847 127.935 53.8433C128.598 53.8395 129.087 53.6501 129.402 53.2749C129.726 52.8904 129.887 52.4135 129.884 51.8442L129.882 51.5922L131.702 51.5818L131.703 51.7778C131.71 52.9258 131.384 53.833 130.725 54.4994C130.075 55.1565 129.149 55.4884 127.945 55.4953ZM135.442 55.4526C134.948 55.4554 134.504 55.3739 134.111 55.2081C133.718 55.033 133.404 54.7828 133.169 54.4575C132.943 54.1228 132.828 53.7174 132.826 53.2414C132.823 52.7654 132.933 52.3681 133.155 52.0495C133.386 51.7215 133.702 51.4771 134.103 51.3161C134.512 51.1458 134.979 51.0591 135.501 51.0562L137.405 51.0453L137.403 50.6533C137.401 50.3267 137.297 50.0612 137.09 49.8571C136.884 49.6436 136.557 49.5381 136.109 49.5407C135.67 49.5432 135.344 49.6477 135.13 49.8543C134.917 50.0515 134.778 50.3089 134.715 50.6266L133.088 50.0899C133.198 49.7346 133.373 49.4116 133.614 49.1209C133.864 48.8208 134.194 48.5809 134.604 48.4012C135.023 48.2122 135.531 48.1159 136.128 48.1125C137.043 48.1073 137.768 48.3319 138.302 48.7862C138.837 49.2405 139.107 49.9016 139.112 50.7696L139.126 53.3595C139.128 53.6395 139.259 53.7788 139.521 53.7773L140.081 53.7741L140.089 55.2301L138.913 55.2368C138.568 55.2388 138.283 55.1564 138.058 54.9897C137.833 54.8229 137.719 54.5996 137.718 54.3196L137.718 54.3056L137.452 54.3071C137.415 54.4193 137.332 54.5691 137.202 54.7565C137.073 54.9346 136.868 55.0944 136.589 55.236C136.31 55.3776 135.928 55.4498 135.442 55.4526ZM135.742 54.0228C136.237 54.02 136.637 53.8824 136.944 53.61C137.259 53.3282 137.416 52.9586 137.413 52.5013L137.413 52.3613L135.635 52.3714C135.308 52.3733 135.052 52.4447 134.866 52.5858C134.68 52.7269 134.588 52.9234 134.589 53.1754C134.591 53.4274 134.69 53.6321 134.887 53.7897C135.084 53.9472 135.369 54.025 135.742 54.0228ZM141.379 55.2227L141.339 48.2789L143.075 48.269L143.08 49.053L143.332 49.0515C143.433 48.771 143.6 48.5647 143.832 48.4327C144.074 48.3006 144.354 48.2337 144.671 48.2319L145.511 48.2271L145.52 49.7951L144.652 49.8C144.204 49.8026 143.836 49.926 143.548 50.1703C143.26 50.4053 143.117 50.7701 143.12 51.2648L143.143 55.2127L141.379 55.2227ZM149.484 55.3726C148.934 55.3757 148.415 55.2433 147.928 54.9754C147.451 54.6982 147.066 54.2943 146.773 53.764C146.481 53.2337 146.333 52.5905 146.328 51.8345L146.327 51.6105C146.323 50.8545 146.464 50.2097 146.75 49.6761C147.036 49.1424 147.417 48.7389 147.891 48.4656C148.365 48.1829 148.883 48.0399 149.443 48.0367C149.863 48.0343 150.213 48.0837 150.494 48.1847C150.783 48.2764 151.017 48.3964 151.196 48.5447C151.374 48.6931 151.51 48.851 151.604 49.0184L151.856 49.017L151.835 45.3631L153.599 45.353L153.655 55.1528L151.919 55.1627L151.914 54.3227L151.662 54.3242C151.505 54.5864 151.259 54.8258 150.925 55.0424C150.599 55.2589 150.119 55.369 149.484 55.3726ZM150.008 53.8296C150.549 53.8265 151.001 53.6513 151.363 53.3039C151.725 52.9471 151.904 52.4328 151.9 51.7608L151.899 51.6208C151.895 50.9488 151.71 50.4412 151.344 50.0979C150.988 49.7453 150.534 49.5705 149.983 49.5737C149.442 49.5767 148.99 49.7567 148.628 50.1134C148.266 50.4608 148.087 50.9705 148.091 51.6425L148.092 51.7825C148.096 52.4545 148.281 52.9667 148.647 53.3193C149.013 53.6626 149.466 53.8327 150.008 53.8296Z" fill="url(#paint1_linear_4_4531)"/>
<rect x="0.502722" y="0.497024" width="175.825" height="75.0135" rx="37.5068" transform="matrix(0.999981 -0.00593626 0.00546334 0.999984 -0.00270588 1.0528)" stroke="url(#paint2_linear_4_4531)"/>
</g>
<defs>
<filter id="filter0_b_4_4531" x="-3" y="-2.99988" width="183.237" height="83.062" filterUnits="userSpaceOnUse" color-interpolation-filters="sRGB">
<feFlood flood-opacity="0" result="BackgroundImageFix"/>
<feGaussianBlur in="BackgroundImageFix" stdDeviation="1.5"/>
<feComposite in2="SourceAlpha" operator="in" result="effect1_backgroundBlur_4_4531"/>
<feBlend mode="normal" in="SourceGraphic" in2="effect1_backgroundBlur_4_4531" result="shape"/>
</filter>
<linearGradient id="paint0_linear_4_4531" x1="66.2134" y1="38.8303" x2="10.2134" y2="38.8303" gradientUnits="userSpaceOnUse">
<stop stop-color="#FF9085"/>
<stop offset="1" stop-color="#FB6FBB"/>
</linearGradient>
<linearGradient id="paint1_linear_4_4531" x1="155.286" y1="50.1435" x2="78.2874" y2="50.582" gradientUnits="userSpaceOnUse">
<stop stop-color="#FF9085"/>
<stop offset="1" stop-color="#FB6FBB"/>
</linearGradient>
<linearGradient id="paint2_linear_4_4531" x1="144.965" y1="-19.0034" x2="56.3515" y2="90.4847" gradientUnits="userSpaceOnUse">
<stop stop-color="#FCFFF2" stop-opacity="0.24"/>
<stop offset="0.875" stop-opacity="0"/>
<stop offset="1" stop-color="#E8EBDF" stop-opacity="0.24"/>
</linearGradient>
<clipPath id="clip0_4_4531">
<rect width="36" height="33.96" fill="white" transform="translate(19.7522 21.3997)"/>
</clipPath>
</defs>
</svg>
