<svg width="1883" height="455" viewBox="0 0 1883 455" fill="none" xmlns="http://www.w3.org/2000/svg">
<g opacity="0.2">
<g filter="url(#filter0_i_5_773)">
<path d="M829 288L858 226M829 288L800 369M829 288H740M829 288L723.228 239M829 288L819 215M829 288L825.5 328.5L804.5 239M829 288L899 257.795M858 226L855.5 225.295M858 226L950 142L899 257.795M819 215L740 139M819 215L740 288M819 215L855.5 225.295M740 139L804.5 239M740 139L810 12L996.5 185M804.5 239L800 369M800 369L740 288M740 288L624 248L723.228 239M740 288L723.228 239M740 288L681.5 203.5M740 288L638.5 219M902 256.5L855.5 225.295M902 256.5L996.5 185M902 256.5L899 257.795M689 139L723.228 239M996.5 185C977.167 220.167 938.5 291.3 938.5 294.5L899 257.795M996.5 185L1113.5 139M1113.5 139L1153 173.5M1113.5 139L1147.5 248M1113.5 139L1121 74.5M1113.5 139L1173.5 83.5M1113.5 139L1179.5 55.5M1113.5 139L1290.65 122.453M1153 173.5L1191 130M1153 173.5L1217.5 207.5M1153 173.5L1212 257.795M1153 173.5L1147.5 248M1153 173.5L1173.5 83.5M1153 173.5L1121 74.5M1153 173.5L1215 136M1191 130L1215 136M1191 130L1251 29M1191 130L1192.2 133.5M1191 130L1121 74.5M1215 136L1251 29M1215 136L1215.1 139M1215 136L1290.65 122.453M1217.5 207.5L1289 121M1217.5 207.5L1284.5 248M1217.5 207.5L1212 257.795M1217.5 207.5L1166 268.5M1217.5 207.5L1147.5 248M1217.5 207.5L1215.1 139M1217.5 207.5L1192.2 133.5M1289 121L1284.5 248M1289 121L1290.65 122.453M1289 121L1223.5 29M1289 121L1273.5 17.5M1289 121L1381.5 77.5M1289 121L1179.5 55.5M1369.5 192L1356.5 243.5M1369.5 192L1284.5 248M1369.5 192L1290.65 122.453M1369.5 192L1462.5 201.5M1369.5 192L1412.5 113.5M1369.5 192L1373.5 139M1369.5 192L1454.5 151.5M1356.5 243.5L1284.5 248M1356.5 243.5L1462.5 201.5M1147.5 248L1212 257.795M1121 74.5L1179.5 55.5M1121 74.5L1173.5 83.5M1179.5 55.5L1173.5 83.5M1179.5 55.5L1215.1 139M1173.5 83.5L1251 29M1173.5 83.5L1192.2 133.5M1173.5 83.5L1290.65 122.453M1290.65 122.453L1350.5 23.5M1290.65 122.453L1369.5 138.201M1381.5 77.5L1498 66L1454.5 23.5M1381.5 77.5L1407 3.5M1381.5 77.5L1451.5 23.5M1373.5 139C1376.17 118.5 1381 76.9 1379 74.5C1377 72.1 1400.5 99.5 1412.5 113.5M1373.5 139L1369.5 138.201M1373.5 139L1454.5 151.5M1373.5 139L1462.5 201.5M1462.5 201.5L1454.5 151.5M1462.5 201.5L1412.5 113.5M1462.5 201.5L1498 262.5M1462.5 201.5L1514.5 136.738M1454.5 151.5L1500.5 66M1454.5 151.5L1412.5 113.5M1454.5 151.5L1514.5 136.738M1454.5 151.5L1517.5 262.5M1517.5 136L1500.5 66M1517.5 136L1514.5 136.738M1517.5 136V262.5M1517.5 136L1532.5 51.5M1500.5 66L1532.5 51.5M1500.5 66L1412.5 113.5M1532.5 51.5L1454.5 23.5M1454.5 23.5L1412.5 113.5M1412.5 113.5L1369.5 138.201M1412.5 113.5L1389.5 3.5M1514.5 136.738L1495.5 262.5M1495.5 262.5H1517.5M1495.5 262.5L1523.5 288M1517.5 262.5L1523.5 288M1517.5 262.5L1627.5 241M1523.5 288L1627.5 218.5M1523.5 288L1524.21 290.134M1523.5 288L1616 322.5M1543 346.5L1610 355M1543 346.5L1524.21 290.134M1543 346.5C1545.8 346.855 1594.5 330.648 1618.5 322.5M1610 355L1616 322.5M1610 355L1735 357.5M1616 322.5L1639 281.5M1639 281.5L1627.5 241M1639 281.5L1524.21 290.134M1639 281.5L1685.5 243.5M1627.5 241L1685.5 243.5M1627.5 241L1618.5 322.5M1627.5 241V218.5M1627.5 241L1717.5 207.5M1685.5 243.5L1717.5 207.5M1685.5 243.5L1627.5 218.5M1685.5 243.5L1790.31 206.077M1685.5 243.5L1775 312.5M1685.5 243.5L1735 357.5M1717.5 207.5L1627.5 218.5M1717.5 207.5L1752.5 144M1717.5 207.5L1673.5 118.5M1717.5 207.5L1786.5 177.5M1717.5 207.5H1790.5M1717.5 207.5L1775 312.5M1627.5 218.5L1673.5 118.5M1618.5 322.5C1621.7 322.5 1697.5 345.833 1735 357.5M1752.5 144L1708 77.5M1752.5 144L1673.5 118.5M1752.5 144L1786.5 177.5M1752.5 144L1790.31 206.077M1752.5 144L1806 62.5M1752.5 144L1839.5 91.5M1673.5 118.5L1708 77.5M1673.5 118.5L1654 1M1673.5 118.5L1630 17.5L1708 77.5M1708 77.5L1806 62.5M1790.5 207.5L1790.31 206.077M1790.5 207.5L1880.5 161L1786.5 177.5M1790.5 207.5L1775 312.5M1786.5 177.5L1790.31 206.077M1786.5 177.5L1806 62.5M1786.5 177.5L1839.5 91.5M1790.31 206.077L1839.5 91.5M1806 62.5L1839.5 91.5M1806 62.5L1832 37L1839.5 91.5M1775 312.5L1735 357.5M1775 312.5L1771.5 343M1771.5 343L1735 357.5M1771.5 343L1735 422M1735 357.5V422M1735 422L1790.5 454.5" stroke="white"/>
</g>
<g filter="url(#filter1_if_5_773)">
<path d="M208.5 197.5L251.5 223.5M208.5 197.5L262.5 95M208.5 197.5L299.5 217.322M208.5 197.5L207.679 200M208.5 197.5L125 138.5M251.5 223.5L186.5 264.5L207.679 200M251.5 223.5L262.5 95M251.5 223.5L334 256.5M251.5 223.5L299.5 217.322M251.5 223.5L302 132.5M302 132.5V217M302 132.5L393.5 156.5M302 132.5L362.5 204M302 132.5L207.679 200M302 132.5L379 176.5M302 132.5L262.5 95M302 132.5L306.5 51M302 132.5L283.5 51M302 217L362.5 204M302 217L262.5 95M302 217L334 256.5M302 217L299.5 217.322M302 217L393.5 156.5M302 217L379 176.5M362.5 204L379 176.5M362.5 204L334 256.5M362.5 204L379 294M362.5 204L418.5 187.5M379 176.5L393.5 156.5M379 176.5L418.5 187.5M393.5 156.5L418.5 187.5M262.5 95L142 45.5M262.5 95L221 22M262.5 95L297 18.5M262.5 95L272 29M334 256.5L418.5 187.5M334 256.5L379 294M418.5 187.5L379 294M418.5 187.5L470 253M418.5 187.5L526.363 230.84M418.5 187.5L531.5 204M379 294C380.6 295.6 440.333 267.333 470 253M379 294L470 277.148M125 138.5L99.5 55M125 138.5L3 106M142 45.5L125 142M142 45.5L94.5 67M125 142L115.5 45.5M125 142L94.5 67M115.5 45.5L99.5 55M115.5 45.5L3 106M99.5 55L94.5 67M99.5 55L3 106M94.5 67L3 106M470 253L473.5 276.5M470 253L531.5 288M470 253L531.5 204M470 253L526.363 230.84M549.5 187.5L531.5 204M549.5 187.5L626 247.5M549.5 187.5L526.363 230.84M549.5 187.5L602.5 132.5M549.5 187.5L571 122M549.5 187.5L531.5 118M531.5 204L528.5 230M531.5 204L626 247.5M531.5 204L571 122M528.5 230L473.5 276.5M528.5 230L531.5 288M528.5 230L626 247.5M528.5 230L526.363 230.84M528.5 230L585 311M473.5 276.5L470 277.148M531.5 288L626 247.5M531.5 288L528.5 287.471M470 277.148L528.5 287.471M626 247.5L585 311M626 247.5L638 217L722 238.5M626 247.5L602.5 132.5M585 311L528.5 287.471M526.363 230.84L531.5 118M526.363 230.84L549.5 112.5M531.5 118L549.5 112.5M531.5 118L594.5 35M531.5 118L513 55.5M549.5 112.5L571 122M549.5 112.5C564.64 88.3333 594.837 39 594.5 35M549.5 112.5L513 55.5M602.5 132.5L571 122M602.5 132.5L660.5 118M571 122L513 55.5M571 122L565 83M571 122L594.5 35M602.5 130L638 214.5L660.5 118M602.5 130L681 86.5M602.5 130L681 204M602.5 130L565 83M602.5 130L594.5 35M602.5 130L574 45.5M602.5 130C604.177 131.581 661.199 137.659 689.5 140.5M681 86.5L689.5 140.5M681 86.5L574 45.5M681 86.5L662.539 118M681 86.5L740.5 140.5M689.5 140.5L681 204M689.5 140.5C681.806 134.066 672.496 126.294 662.539 118M689.5 140.5H740.5M681 204L660.5 118M681 204L740.5 140.5M565 83L594.5 35M565 83L513 55.5M565 83L660.5 118M660.5 118L739 138.5L794.5 65M574 45.5C576.223 46.3518 624.183 86.0507 662.539 118M740.5 140.5L722 238.5M794.5 65L810.5 10.5H899.5M794.5 65H865L899.5 10.5M794.5 65L899.5 10.5M828 291L804.5 247.5V238.5M804.5 238.5L858 224.5L739 287.471L804.5 238.5ZM804.5 238.5L819 214.5L722 238.5M804.5 238.5H722M804.5 238.5L903.5 256.5L722 238.5" stroke="white"/>
</g>
<g filter="url(#filter2_f_5_773)">
<circle cx="125" cy="139" r="5" fill="white"/>
</g>
<g filter="url(#filter3_f_5_773)">
<circle cx="185" cy="261" r="4" fill="white"/>
</g>
<g filter="url(#filter4_f_5_773)">
<circle cx="210" cy="198" r="4" fill="white"/>
</g>
<g filter="url(#filter5_f_5_773)">
<circle cx="262" cy="95" r="4" fill="white"/>
</g>
<g filter="url(#filter6_f_5_773)">
<circle cx="301" cy="130" r="4" fill="white"/>
</g>
<g filter="url(#filter7_f_5_773)">
<circle cx="528" cy="228" r="4" fill="white"/>
</g>
<g filter="url(#filter8_f_5_773)">
<circle cx="604" cy="130" r="4" fill="white"/>
</g>
<g filter="url(#filter9_f_5_773)">
<circle cx="659" cy="116" r="4" fill="white"/>
</g>
<g filter="url(#filter10_f_5_773)">
<circle cx="740" cy="138" r="4" fill="white"/>
</g>
<g filter="url(#filter11_f_5_773)">
<circle cx="803" cy="237" r="4" fill="white"/>
</g>
<g filter="url(#filter12_f_5_773)">
<circle cx="820" cy="215" r="4" fill="white"/>
</g>
<g filter="url(#filter13_f_5_773)">
<circle cx="832" cy="287" r="4" fill="white"/>
</g>
<g filter="url(#filter14_f_5_773)">
<circle cx="900" cy="257" r="4" fill="white"/>
</g>
<g filter="url(#filter15_f_5_773)">
<circle cx="1116" cy="138" r="4" fill="white"/>
</g>
<g filter="url(#filter16_f_5_773)">
<circle cx="1179" cy="59" r="4" fill="white"/>
</g>
<g filter="url(#filter17_f_5_773)">
<circle cx="1291" cy="122" r="4" fill="white"/>
</g>
<g filter="url(#filter18_f_5_773)">
<circle cx="1374" cy="138" r="4" fill="white"/>
</g>
<g filter="url(#filter19_f_5_773)">
<circle cx="1413" cy="114" r="4" fill="white"/>
</g>
<g filter="url(#filter20_f_5_773)">
<circle cx="1515" cy="134" r="4" fill="white"/>
</g>
<g filter="url(#filter21_f_5_773)">
<circle cx="1464" cy="199" r="4" fill="white"/>
</g>
<g filter="url(#filter22_f_5_773)">
<circle cx="1219" cy="207" r="4" fill="white"/>
</g>
<g filter="url(#filter23_f_5_773)">
<circle cx="1153" cy="170" r="4" fill="white"/>
</g>
<g filter="url(#filter24_f_5_773)">
<circle cx="744" cy="287" r="4" fill="white"/>
</g>
<g filter="url(#filter25_f_5_773)">
<circle cx="624" cy="245" r="4" fill="white"/>
</g>
<g filter="url(#filter26_f_5_773)">
<circle cx="301" cy="216" r="4" fill="white"/>
</g>
<g filter="url(#filter27_f_5_773)">
<circle cx="334.5" cy="256.5" r="2.5" fill="white"/>
</g>
<g filter="url(#filter28_f_5_773)">
<circle cx="378.5" cy="293.5" r="2.5" fill="white"/>
</g>
<g filter="url(#filter29_f_5_773)">
<circle cx="297.5" cy="17.5" r="2.5" fill="white"/>
</g>
<g filter="url(#filter30_f_5_773)">
<circle cx="1284.5" cy="246.5" r="2.5" fill="white"/>
</g>
<g filter="url(#filter31_f_5_773)">
<circle cx="1371.5" cy="192.5" r="2.5" fill="white"/>
</g>
<g filter="url(#filter32_f_5_773)">
<circle cx="1457.5" cy="150.5" r="2.5" fill="white"/>
</g>
<g filter="url(#filter33_f_5_773)">
<circle cx="1498.5" cy="65.5" r="2.5" fill="white"/>
</g>
<g filter="url(#filter34_f_5_773)">
<circle cx="1518.5" cy="260.5" r="2.5" fill="white"/>
</g>
<g filter="url(#filter35_f_5_773)">
<circle cx="1629.5" cy="241.5" r="2.5" fill="white"/>
</g>
<g filter="url(#filter36_f_5_773)">
<circle cx="1685.5" cy="241.5" r="2.5" fill="white"/>
</g>
<g filter="url(#filter37_f_5_773)">
<circle cx="1716.5" cy="205.5" r="2.5" fill="white"/>
</g>
<g filter="url(#filter38_f_5_773)">
<circle cx="1752.5" cy="144.5" r="2.5" fill="white"/>
</g>
<g filter="url(#filter39_f_5_773)">
<circle cx="1878.5" cy="161.5" r="2.5" fill="white"/>
</g>
<g filter="url(#filter40_f_5_773)">
<circle cx="1804.5" cy="63.5" r="2.5" fill="white"/>
</g>
<g filter="url(#filter41_f_5_773)">
<circle cx="1617.5" cy="321.5" r="2.5" fill="white"/>
</g>
<g filter="url(#filter42_f_5_773)">
<circle cx="1736.5" cy="356.5" r="2.5" fill="white"/>
</g>
<g filter="url(#filter43_f_5_773)">
<circle cx="99.5" cy="54.5" r="2.5" fill="white"/>
</g>
</g>
<defs>
<filter id="filter0_i_5_773" x="623.837" y="0.918213" width="1256.89" height="456.013" filterUnits="userSpaceOnUse" color-interpolation-filters="sRGB">
<feFlood flood-opacity="0" result="BackgroundImageFix"/>
<feBlend mode="normal" in="SourceGraphic" in2="BackgroundImageFix" result="shape"/>
<feColorMatrix in="SourceAlpha" type="matrix" values="0 0 0 0 0 0 0 0 0 0 0 0 0 0 0 0 0 0 127 0" result="hardAlpha"/>
<feOffset dy="4"/>
<feGaussianBlur stdDeviation="1"/>
<feComposite in2="hardAlpha" operator="arithmetic" k2="-1" k3="1"/>
<feColorMatrix type="matrix" values="0 0 0 0 0.518269 0 0 0 0 0.641667 0 0 0 0 0.173785 0 0 0 1 0"/>
<feBlend mode="normal" in2="shape" result="effect1_innerShadow_5_773"/>
</filter>
<filter id="filter1_if_5_773" x="0.650391" y="9" width="903.939" height="306.622" filterUnits="userSpaceOnUse" color-interpolation-filters="sRGB">
<feFlood flood-opacity="0" result="BackgroundImageFix"/>
<feBlend mode="normal" in="SourceGraphic" in2="BackgroundImageFix" result="shape"/>
<feColorMatrix in="SourceAlpha" type="matrix" values="0 0 0 0 0 0 0 0 0 0 0 0 0 0 0 0 0 0 127 0" result="hardAlpha"/>
<feOffset dy="4"/>
<feGaussianBlur stdDeviation="2"/>
<feComposite in2="hardAlpha" operator="arithmetic" k2="-1" k3="1"/>
<feColorMatrix type="matrix" values="0 0 0 0 0.719579 0 0 0 0 0.841667 0 0 0 0 0.37875 0 0 0 1 0"/>
<feBlend mode="normal" in2="shape" result="effect1_innerShadow_5_773"/>
<feGaussianBlur stdDeviation="0.5" result="effect2_foregroundBlur_5_773"/>
</filter>
<filter id="filter2_f_5_773" x="116" y="130" width="18" height="18" filterUnits="userSpaceOnUse" color-interpolation-filters="sRGB">
<feFlood flood-opacity="0" result="BackgroundImageFix"/>
<feBlend mode="normal" in="SourceGraphic" in2="BackgroundImageFix" result="shape"/>
<feGaussianBlur stdDeviation="2" result="effect1_foregroundBlur_5_773"/>
</filter>
<filter id="filter3_f_5_773" x="177" y="253" width="16" height="16" filterUnits="userSpaceOnUse" color-interpolation-filters="sRGB">
<feFlood flood-opacity="0" result="BackgroundImageFix"/>
<feBlend mode="normal" in="SourceGraphic" in2="BackgroundImageFix" result="shape"/>
<feGaussianBlur stdDeviation="2" result="effect1_foregroundBlur_5_773"/>
</filter>
<filter id="filter4_f_5_773" x="202" y="190" width="16" height="16" filterUnits="userSpaceOnUse" color-interpolation-filters="sRGB">
<feFlood flood-opacity="0" result="BackgroundImageFix"/>
<feBlend mode="normal" in="SourceGraphic" in2="BackgroundImageFix" result="shape"/>
<feGaussianBlur stdDeviation="2" result="effect1_foregroundBlur_5_773"/>
</filter>
<filter id="filter5_f_5_773" x="254" y="87" width="16" height="16" filterUnits="userSpaceOnUse" color-interpolation-filters="sRGB">
<feFlood flood-opacity="0" result="BackgroundImageFix"/>
<feBlend mode="normal" in="SourceGraphic" in2="BackgroundImageFix" result="shape"/>
<feGaussianBlur stdDeviation="2" result="effect1_foregroundBlur_5_773"/>
</filter>
<filter id="filter6_f_5_773" x="293" y="122" width="16" height="16" filterUnits="userSpaceOnUse" color-interpolation-filters="sRGB">
<feFlood flood-opacity="0" result="BackgroundImageFix"/>
<feBlend mode="normal" in="SourceGraphic" in2="BackgroundImageFix" result="shape"/>
<feGaussianBlur stdDeviation="2" result="effect1_foregroundBlur_5_773"/>
</filter>
<filter id="filter7_f_5_773" x="520" y="220" width="16" height="16" filterUnits="userSpaceOnUse" color-interpolation-filters="sRGB">
<feFlood flood-opacity="0" result="BackgroundImageFix"/>
<feBlend mode="normal" in="SourceGraphic" in2="BackgroundImageFix" result="shape"/>
<feGaussianBlur stdDeviation="2" result="effect1_foregroundBlur_5_773"/>
</filter>
<filter id="filter8_f_5_773" x="596" y="122" width="16" height="16" filterUnits="userSpaceOnUse" color-interpolation-filters="sRGB">
<feFlood flood-opacity="0" result="BackgroundImageFix"/>
<feBlend mode="normal" in="SourceGraphic" in2="BackgroundImageFix" result="shape"/>
<feGaussianBlur stdDeviation="2" result="effect1_foregroundBlur_5_773"/>
</filter>
<filter id="filter9_f_5_773" x="651" y="108" width="16" height="16" filterUnits="userSpaceOnUse" color-interpolation-filters="sRGB">
<feFlood flood-opacity="0" result="BackgroundImageFix"/>
<feBlend mode="normal" in="SourceGraphic" in2="BackgroundImageFix" result="shape"/>
<feGaussianBlur stdDeviation="2" result="effect1_foregroundBlur_5_773"/>
</filter>
<filter id="filter10_f_5_773" x="732" y="130" width="16" height="16" filterUnits="userSpaceOnUse" color-interpolation-filters="sRGB">
<feFlood flood-opacity="0" result="BackgroundImageFix"/>
<feBlend mode="normal" in="SourceGraphic" in2="BackgroundImageFix" result="shape"/>
<feGaussianBlur stdDeviation="2" result="effect1_foregroundBlur_5_773"/>
</filter>
<filter id="filter11_f_5_773" x="795" y="229" width="16" height="16" filterUnits="userSpaceOnUse" color-interpolation-filters="sRGB">
<feFlood flood-opacity="0" result="BackgroundImageFix"/>
<feBlend mode="normal" in="SourceGraphic" in2="BackgroundImageFix" result="shape"/>
<feGaussianBlur stdDeviation="2" result="effect1_foregroundBlur_5_773"/>
</filter>
<filter id="filter12_f_5_773" x="812" y="207" width="16" height="16" filterUnits="userSpaceOnUse" color-interpolation-filters="sRGB">
<feFlood flood-opacity="0" result="BackgroundImageFix"/>
<feBlend mode="normal" in="SourceGraphic" in2="BackgroundImageFix" result="shape"/>
<feGaussianBlur stdDeviation="2" result="effect1_foregroundBlur_5_773"/>
</filter>
<filter id="filter13_f_5_773" x="824" y="279" width="16" height="16" filterUnits="userSpaceOnUse" color-interpolation-filters="sRGB">
<feFlood flood-opacity="0" result="BackgroundImageFix"/>
<feBlend mode="normal" in="SourceGraphic" in2="BackgroundImageFix" result="shape"/>
<feGaussianBlur stdDeviation="2" result="effect1_foregroundBlur_5_773"/>
</filter>
<filter id="filter14_f_5_773" x="892" y="249" width="16" height="16" filterUnits="userSpaceOnUse" color-interpolation-filters="sRGB">
<feFlood flood-opacity="0" result="BackgroundImageFix"/>
<feBlend mode="normal" in="SourceGraphic" in2="BackgroundImageFix" result="shape"/>
<feGaussianBlur stdDeviation="2" result="effect1_foregroundBlur_5_773"/>
</filter>
<filter id="filter15_f_5_773" x="1108" y="130" width="16" height="16" filterUnits="userSpaceOnUse" color-interpolation-filters="sRGB">
<feFlood flood-opacity="0" result="BackgroundImageFix"/>
<feBlend mode="normal" in="SourceGraphic" in2="BackgroundImageFix" result="shape"/>
<feGaussianBlur stdDeviation="2" result="effect1_foregroundBlur_5_773"/>
</filter>
<filter id="filter16_f_5_773" x="1171" y="51" width="16" height="16" filterUnits="userSpaceOnUse" color-interpolation-filters="sRGB">
<feFlood flood-opacity="0" result="BackgroundImageFix"/>
<feBlend mode="normal" in="SourceGraphic" in2="BackgroundImageFix" result="shape"/>
<feGaussianBlur stdDeviation="2" result="effect1_foregroundBlur_5_773"/>
</filter>
<filter id="filter17_f_5_773" x="1283" y="114" width="16" height="16" filterUnits="userSpaceOnUse" color-interpolation-filters="sRGB">
<feFlood flood-opacity="0" result="BackgroundImageFix"/>
<feBlend mode="normal" in="SourceGraphic" in2="BackgroundImageFix" result="shape"/>
<feGaussianBlur stdDeviation="2" result="effect1_foregroundBlur_5_773"/>
</filter>
<filter id="filter18_f_5_773" x="1366" y="130" width="16" height="16" filterUnits="userSpaceOnUse" color-interpolation-filters="sRGB">
<feFlood flood-opacity="0" result="BackgroundImageFix"/>
<feBlend mode="normal" in="SourceGraphic" in2="BackgroundImageFix" result="shape"/>
<feGaussianBlur stdDeviation="2" result="effect1_foregroundBlur_5_773"/>
</filter>
<filter id="filter19_f_5_773" x="1405" y="106" width="16" height="16" filterUnits="userSpaceOnUse" color-interpolation-filters="sRGB">
<feFlood flood-opacity="0" result="BackgroundImageFix"/>
<feBlend mode="normal" in="SourceGraphic" in2="BackgroundImageFix" result="shape"/>
<feGaussianBlur stdDeviation="2" result="effect1_foregroundBlur_5_773"/>
</filter>
<filter id="filter20_f_5_773" x="1507" y="126" width="16" height="16" filterUnits="userSpaceOnUse" color-interpolation-filters="sRGB">
<feFlood flood-opacity="0" result="BackgroundImageFix"/>
<feBlend mode="normal" in="SourceGraphic" in2="BackgroundImageFix" result="shape"/>
<feGaussianBlur stdDeviation="2" result="effect1_foregroundBlur_5_773"/>
</filter>
<filter id="filter21_f_5_773" x="1456" y="191" width="16" height="16" filterUnits="userSpaceOnUse" color-interpolation-filters="sRGB">
<feFlood flood-opacity="0" result="BackgroundImageFix"/>
<feBlend mode="normal" in="SourceGraphic" in2="BackgroundImageFix" result="shape"/>
<feGaussianBlur stdDeviation="2" result="effect1_foregroundBlur_5_773"/>
</filter>
<filter id="filter22_f_5_773" x="1211" y="199" width="16" height="16" filterUnits="userSpaceOnUse" color-interpolation-filters="sRGB">
<feFlood flood-opacity="0" result="BackgroundImageFix"/>
<feBlend mode="normal" in="SourceGraphic" in2="BackgroundImageFix" result="shape"/>
<feGaussianBlur stdDeviation="2" result="effect1_foregroundBlur_5_773"/>
</filter>
<filter id="filter23_f_5_773" x="1145" y="162" width="16" height="16" filterUnits="userSpaceOnUse" color-interpolation-filters="sRGB">
<feFlood flood-opacity="0" result="BackgroundImageFix"/>
<feBlend mode="normal" in="SourceGraphic" in2="BackgroundImageFix" result="shape"/>
<feGaussianBlur stdDeviation="2" result="effect1_foregroundBlur_5_773"/>
</filter>
<filter id="filter24_f_5_773" x="736" y="279" width="16" height="16" filterUnits="userSpaceOnUse" color-interpolation-filters="sRGB">
<feFlood flood-opacity="0" result="BackgroundImageFix"/>
<feBlend mode="normal" in="SourceGraphic" in2="BackgroundImageFix" result="shape"/>
<feGaussianBlur stdDeviation="2" result="effect1_foregroundBlur_5_773"/>
</filter>
<filter id="filter25_f_5_773" x="616" y="237" width="16" height="16" filterUnits="userSpaceOnUse" color-interpolation-filters="sRGB">
<feFlood flood-opacity="0" result="BackgroundImageFix"/>
<feBlend mode="normal" in="SourceGraphic" in2="BackgroundImageFix" result="shape"/>
<feGaussianBlur stdDeviation="2" result="effect1_foregroundBlur_5_773"/>
</filter>
<filter id="filter26_f_5_773" x="293" y="208" width="16" height="16" filterUnits="userSpaceOnUse" color-interpolation-filters="sRGB">
<feFlood flood-opacity="0" result="BackgroundImageFix"/>
<feBlend mode="normal" in="SourceGraphic" in2="BackgroundImageFix" result="shape"/>
<feGaussianBlur stdDeviation="2" result="effect1_foregroundBlur_5_773"/>
</filter>
<filter id="filter27_f_5_773" x="330" y="252" width="9" height="9" filterUnits="userSpaceOnUse" color-interpolation-filters="sRGB">
<feFlood flood-opacity="0" result="BackgroundImageFix"/>
<feBlend mode="normal" in="SourceGraphic" in2="BackgroundImageFix" result="shape"/>
<feGaussianBlur stdDeviation="1" result="effect1_foregroundBlur_5_773"/>
</filter>
<filter id="filter28_f_5_773" x="374" y="289" width="9" height="9" filterUnits="userSpaceOnUse" color-interpolation-filters="sRGB">
<feFlood flood-opacity="0" result="BackgroundImageFix"/>
<feBlend mode="normal" in="SourceGraphic" in2="BackgroundImageFix" result="shape"/>
<feGaussianBlur stdDeviation="1" result="effect1_foregroundBlur_5_773"/>
</filter>
<filter id="filter29_f_5_773" x="293" y="13" width="9" height="9" filterUnits="userSpaceOnUse" color-interpolation-filters="sRGB">
<feFlood flood-opacity="0" result="BackgroundImageFix"/>
<feBlend mode="normal" in="SourceGraphic" in2="BackgroundImageFix" result="shape"/>
<feGaussianBlur stdDeviation="1" result="effect1_foregroundBlur_5_773"/>
</filter>
<filter id="filter30_f_5_773" x="1280" y="242" width="9" height="9" filterUnits="userSpaceOnUse" color-interpolation-filters="sRGB">
<feFlood flood-opacity="0" result="BackgroundImageFix"/>
<feBlend mode="normal" in="SourceGraphic" in2="BackgroundImageFix" result="shape"/>
<feGaussianBlur stdDeviation="1" result="effect1_foregroundBlur_5_773"/>
</filter>
<filter id="filter31_f_5_773" x="1367" y="188" width="9" height="9" filterUnits="userSpaceOnUse" color-interpolation-filters="sRGB">
<feFlood flood-opacity="0" result="BackgroundImageFix"/>
<feBlend mode="normal" in="SourceGraphic" in2="BackgroundImageFix" result="shape"/>
<feGaussianBlur stdDeviation="1" result="effect1_foregroundBlur_5_773"/>
</filter>
<filter id="filter32_f_5_773" x="1453" y="146" width="9" height="9" filterUnits="userSpaceOnUse" color-interpolation-filters="sRGB">
<feFlood flood-opacity="0" result="BackgroundImageFix"/>
<feBlend mode="normal" in="SourceGraphic" in2="BackgroundImageFix" result="shape"/>
<feGaussianBlur stdDeviation="1" result="effect1_foregroundBlur_5_773"/>
</filter>
<filter id="filter33_f_5_773" x="1494" y="61" width="9" height="9" filterUnits="userSpaceOnUse" color-interpolation-filters="sRGB">
<feFlood flood-opacity="0" result="BackgroundImageFix"/>
<feBlend mode="normal" in="SourceGraphic" in2="BackgroundImageFix" result="shape"/>
<feGaussianBlur stdDeviation="1" result="effect1_foregroundBlur_5_773"/>
</filter>
<filter id="filter34_f_5_773" x="1514" y="256" width="9" height="9" filterUnits="userSpaceOnUse" color-interpolation-filters="sRGB">
<feFlood flood-opacity="0" result="BackgroundImageFix"/>
<feBlend mode="normal" in="SourceGraphic" in2="BackgroundImageFix" result="shape"/>
<feGaussianBlur stdDeviation="1" result="effect1_foregroundBlur_5_773"/>
</filter>
<filter id="filter35_f_5_773" x="1625" y="237" width="9" height="9" filterUnits="userSpaceOnUse" color-interpolation-filters="sRGB">
<feFlood flood-opacity="0" result="BackgroundImageFix"/>
<feBlend mode="normal" in="SourceGraphic" in2="BackgroundImageFix" result="shape"/>
<feGaussianBlur stdDeviation="1" result="effect1_foregroundBlur_5_773"/>
</filter>
<filter id="filter36_f_5_773" x="1681" y="237" width="9" height="9" filterUnits="userSpaceOnUse" color-interpolation-filters="sRGB">
<feFlood flood-opacity="0" result="BackgroundImageFix"/>
<feBlend mode="normal" in="SourceGraphic" in2="BackgroundImageFix" result="shape"/>
<feGaussianBlur stdDeviation="1" result="effect1_foregroundBlur_5_773"/>
</filter>
<filter id="filter37_f_5_773" x="1712" y="201" width="9" height="9" filterUnits="userSpaceOnUse" color-interpolation-filters="sRGB">
<feFlood flood-opacity="0" result="BackgroundImageFix"/>
<feBlend mode="normal" in="SourceGraphic" in2="BackgroundImageFix" result="shape"/>
<feGaussianBlur stdDeviation="1" result="effect1_foregroundBlur_5_773"/>
</filter>
<filter id="filter38_f_5_773" x="1748" y="140" width="9" height="9" filterUnits="userSpaceOnUse" color-interpolation-filters="sRGB">
<feFlood flood-opacity="0" result="BackgroundImageFix"/>
<feBlend mode="normal" in="SourceGraphic" in2="BackgroundImageFix" result="shape"/>
<feGaussianBlur stdDeviation="1" result="effect1_foregroundBlur_5_773"/>
</filter>
<filter id="filter39_f_5_773" x="1874" y="157" width="9" height="9" filterUnits="userSpaceOnUse" color-interpolation-filters="sRGB">
<feFlood flood-opacity="0" result="BackgroundImageFix"/>
<feBlend mode="normal" in="SourceGraphic" in2="BackgroundImageFix" result="shape"/>
<feGaussianBlur stdDeviation="1" result="effect1_foregroundBlur_5_773"/>
</filter>
<filter id="filter40_f_5_773" x="1800" y="59" width="9" height="9" filterUnits="userSpaceOnUse" color-interpolation-filters="sRGB">
<feFlood flood-opacity="0" result="BackgroundImageFix"/>
<feBlend mode="normal" in="SourceGraphic" in2="BackgroundImageFix" result="shape"/>
<feGaussianBlur stdDeviation="1" result="effect1_foregroundBlur_5_773"/>
</filter>
<filter id="filter41_f_5_773" x="1613" y="317" width="9" height="9" filterUnits="userSpaceOnUse" color-interpolation-filters="sRGB">
<feFlood flood-opacity="0" result="BackgroundImageFix"/>
<feBlend mode="normal" in="SourceGraphic" in2="BackgroundImageFix" result="shape"/>
<feGaussianBlur stdDeviation="1" result="effect1_foregroundBlur_5_773"/>
</filter>
<filter id="filter42_f_5_773" x="1732" y="352" width="9" height="9" filterUnits="userSpaceOnUse" color-interpolation-filters="sRGB">
<feFlood flood-opacity="0" result="BackgroundImageFix"/>
<feBlend mode="normal" in="SourceGraphic" in2="BackgroundImageFix" result="shape"/>
<feGaussianBlur stdDeviation="1" result="effect1_foregroundBlur_5_773"/>
</filter>
<filter id="filter43_f_5_773" x="95" y="50" width="9" height="9" filterUnits="userSpaceOnUse" color-interpolation-filters="sRGB">
<feFlood flood-opacity="0" result="BackgroundImageFix"/>
<feBlend mode="normal" in="SourceGraphic" in2="BackgroundImageFix" result="shape"/>
<feGaussianBlur stdDeviation="1" result="effect1_foregroundBlur_5_773"/>
</filter>
</defs>
</svg>
