<svg width="191" height="36" viewBox="0 0 191 36" fill="none" xmlns="http://www.w3.org/2000/svg">
<g clip-path="url(#clip0_17_137)">
<path d="M35.6843 0H40.8807V11.3174H51.5661V0H56.7625V27.2058H51.5661V15.8155H40.8807V27.2058H35.6843V0Z" fill="white"/>
<path d="M62.7741 35.9999V31.5746H66.6895L67.7875 27.1851H65.2254L58.8574 8.86694H64.2008L68.6652 22.7969H68.8107L72.3614 8.86694H77.6674L70.3857 35.9999H62.7741Z" fill="white"/>
<path d="M84.9933 27.5275V35.8709H79.8704V8.73657H96.0447V27.5261H84.9933V27.5275ZM84.9933 23.1022H91.1048V13.0904H84.9933V23.1022Z" fill="white"/>
<path d="M113.721 15.3757V20.7451H103.364V24.1548H112.915V28.1087H98.46V16.0656C98.46 11.4589 101.498 8.73779 106.219 8.73779C110.939 8.73779 113.721 11.349 113.721 15.3757ZM103.364 15.8471V17.1169H109.072V15.7742C109.072 14.0687 107.938 12.9088 106.217 12.9088C104.497 12.9088 103.362 13.9973 103.362 15.8471H103.364Z" fill="white"/>
<path d="M125.069 8.73657V13.199H121.044V27.5275H115.921V8.73657H125.07H125.069Z" fill="white"/>
<path d="M127.279 0.450684H147.04V6.00014H133.72V22.0342H141.258V17.209H137.196V11.6953H147.626V27.6565H127.279V0.450684Z" fill="white"/>
<path d="M169.542 18.4789H156.075V27.6565H149.634V0.450684H169.542V18.4789ZM163.102 6.00014H156.075V13.0009H163.102V6.00014Z" fill="white"/>
<path d="M178.118 6.00014H171.714V0.450684H191V6.00014H184.56V27.6565H178.118V6.00014Z" fill="white"/>
<path d="M14.6796 27.5026C22.2992 27.5026 28.4762 21.3798 28.4762 13.8269C28.4762 6.27396 22.2992 0.151123 14.6796 0.151123C7.05998 0.151123 0.883057 6.27396 0.883057 13.8269C0.883057 21.3798 7.05998 27.5026 14.6796 27.5026Z" fill="url(#paint0_linear_17_137)"/>
<path d="M14.6796 27.5026C22.2992 27.5026 28.4762 21.3798 28.4762 13.8269C28.4762 6.27396 22.2992 0.151123 14.6796 0.151123C7.05998 0.151123 0.883057 6.27396 0.883057 13.8269C0.883057 21.3798 7.05998 27.5026 14.6796 27.5026Z" fill="url(#paint1_linear_17_137)"/>
<mask id="mask0_17_137" style="mask-type:luminance" maskUnits="userSpaceOnUse" x="0" y="0" width="29" height="28">
<path d="M14.6796 27.5026C22.2992 27.5026 28.4762 21.3798 28.4762 13.8269C28.4762 6.27396 22.2992 0.151123 14.6796 0.151123C7.05998 0.151123 0.883057 6.27396 0.883057 13.8269C0.883057 21.3798 7.05998 27.5026 14.6796 27.5026Z" fill="white"/>
</mask>
<g mask="url(#mask0_17_137)">
<path style="mix-blend-mode:multiply" opacity="0.3" d="M24.3183 29.0488L2.05749 28.9581C0.945558 28.954 0 28.1679 0 27.2017V3.89208C0 2.92594 0.945558 2.19893 2.05749 2.2649L5.7607 2.48754C7.94713 5.03963 9.19909 8.4754 8.5225 12.3372C8.4102 12.9845 8.50309 13.57 8.75265 14.1101C9.14363 14.9635 9.93529 15.7015 10.9599 16.3928C11.4923 16.7529 12.0912 17.1006 12.7262 17.4441C14.1889 18.233 15.8637 19.0026 17.4734 19.8684C18.0585 20.1831 18.6339 20.5116 19.1898 20.8565C19.4477 21.0173 19.7028 21.1822 19.9496 21.3527C20.5957 21.7938 21.2016 22.2666 21.7437 22.7806C22.247 23.2575 22.6976 23.7714 23.0747 24.3294C23.9509 25.6226 24.4431 27.1577 24.3183 29.0488Z" fill="url(#paint2_linear_17_137)"/>
</g>
<path d="M6.48439 10.6494H22.6781C24.206 10.6494 25.4455 11.8794 25.4455 13.3925C25.4455 15.7756 23.4934 17.7106 21.0892 17.7106H8.07326C5.66916 17.7106 3.71704 15.7756 3.71704 13.3925C3.71704 11.878 4.95791 10.6494 6.48439 10.6494Z" fill="url(#paint3_linear_17_137)"/>
<path d="M12.2311 15.2068C12.3697 15.0103 12.4557 14.789 12.4557 14.5512C12.4557 13.7789 11.6308 13.1536 10.6131 13.1536C9.59545 13.1536 8.77051 13.7789 8.77051 14.5512C8.77051 14.7904 8.85647 15.0103 8.99511 15.2068H12.2325H12.2311Z" fill="#D8DEE8"/>
<path d="M21.5147 15.2068C21.6533 15.0103 21.7393 14.789 21.7393 14.5512C21.7393 13.7789 20.9144 13.1536 19.8953 13.1536C18.8763 13.1536 18.0527 13.7789 18.0527 14.5512C18.0527 14.7904 18.1387 15.0103 18.2773 15.2068H21.5147Z" fill="#D8DEE8"/>
</g>
<defs>
<linearGradient id="paint0_linear_17_137" x1="0.883057" y1="13.8269" x2="28.4762" y2="13.8269" gradientUnits="userSpaceOnUse">
<stop stop-color="#AA80F9"/>
<stop offset="1" stop-color="#6165D7"/>
</linearGradient>
<linearGradient id="paint1_linear_17_137" x1="0.883057" y1="13.8269" x2="28.4762" y2="13.8269" gradientUnits="userSpaceOnUse">
<stop stop-color="#AA80F9"/>
<stop offset="1" stop-color="#6165D7"/>
</linearGradient>
<linearGradient id="paint2_linear_17_137" x1="22.7738" y1="-5.09727" x2="-8.87572" y2="59.8393" gradientUnits="userSpaceOnUse">
<stop stop-color="#AA80F9"/>
<stop offset="1" stop-color="#6165D7"/>
</linearGradient>
<linearGradient id="paint3_linear_17_137" x1="3.71704" y1="14.18" x2="25.4455" y2="14.18" gradientUnits="userSpaceOnUse">
<stop stop-color="#444B8C"/>
<stop offset="1" stop-color="#26264F"/>
</linearGradient>
<clipPath id="clip0_17_137">
<rect width="191" height="36" fill="white"/>
</clipPath>
</defs>
</svg>
