<svg width="310" height="40" viewBox="0 0 310 40" fill="none" xmlns="http://www.w3.org/2000/svg">
<g clip-path="url(#clip0_4_4668)">
<path d="M65.6233 24.8524V24.9551C65.6233 28.9602 62.3189 30.9628 57.3623 30.9114H46.8811V9.03723H57.1041C61.596 9.03723 64.3841 11.2452 64.3841 14.6855V14.7368C64.3841 17.2015 63.0417 18.5879 61.4928 19.4608C64.0227 20.4878 65.6233 21.9255 65.6233 24.8524ZM56.0715 17.8691C58.24 17.8691 59.5824 17.2015 59.5824 15.5584V15.4557C59.5824 14.018 58.4465 13.1964 56.3813 13.1964H51.5796V17.8177H56.0715V17.8691ZM57.3623 26.7522C59.4791 26.7522 60.7699 26.0334 60.7699 24.3902V24.2875C60.7699 22.7985 59.6857 21.9255 57.2074 21.9255H51.5796V26.7522H57.3623ZM75.7946 9.08858V30.9628H70.9413V9.08858H75.7946ZM101.868 9.08858V30.9628H97.7379L87.0502 17.0475V30.9628H82.2485V9.08858H86.7404L97.0667 22.5931V9.08858H101.868ZM119.216 8.93453L128.665 30.9628H123.502L121.488 26.0334H112.195L110.181 30.9628H105.328L114.776 8.93453H119.216ZM114.002 21.7715H119.836L116.945 14.6855L114.002 21.7715ZM151.796 9.08858V30.9628H147.665L136.978 17.0475V30.9628H132.176V9.08858H136.668L146.994 22.5931V9.08858H151.796ZM173.739 24.3389L176.837 27.4198C174.565 29.8331 172.035 31.3222 167.801 31.3222C161.348 31.3222 156.494 26.3415 156.494 20.0257V19.923C156.494 13.7099 161.244 8.62644 168.008 8.62644C172.19 8.62644 174.668 10.0128 176.682 12.0154L173.584 15.5584C171.88 14.018 170.125 13.0937 167.956 13.0937C164.239 13.0937 161.554 16.1746 161.554 19.923V20.0257C161.554 23.7741 164.187 26.9063 167.956 26.9063C170.486 26.9063 172.035 25.8793 173.739 24.3389ZM197.541 26.6496V30.9114H180.761V9.03723H197.386V13.3504H185.563V17.8177H195.992V22.1309H185.563V26.7522L197.541 26.6496ZM17.3997 0L6.71206 6.1104L10.636 8.3697L17.3997 4.51861L24.1634 8.3697L28.0874 6.1104L17.3997 0ZM24.1634 11.6046L28.0874 13.8639V18.3825L21.3237 22.2336V29.9358L17.3997 32.1951L13.4757 29.9358V22.2336L6.71206 18.3825V13.8639L10.636 11.6046L17.3997 15.4557L24.1634 11.6046ZM28.0874 21.6175V26.1361L24.1634 28.3954V23.8768L28.0874 21.6175ZM24.1118 31.5789L30.8755 27.7279V20.0257L34.7994 17.7664V30.0385L24.1118 36.1489V31.5789ZM30.8755 12.2721L26.9515 10.0128L30.8755 7.75353L34.7994 10.0128V14.5315L30.8755 16.7908V12.2721ZM13.4757 37.7407V33.2221L17.3997 35.4814L21.3237 33.2221V37.7407L17.3997 40L13.4757 37.7407ZM10.636 28.3954L6.71206 26.1361V21.6175L10.636 23.8768V28.3954ZM17.3997 12.2721L13.4757 10.0128L17.3997 7.75353L21.3237 10.0128L17.3997 12.2721ZM7.84794 10.0128L3.92397 12.2721V16.7908L0 14.5315V10.0128L3.92397 7.75353L7.84794 10.0128ZM0 17.715L3.92397 19.9743V27.6765L10.6877 31.5276V36.0462L0 29.9358V17.715ZM210.242 20.2311C210.242 26.5469 215.044 31.5276 221.446 31.5276C225.628 31.5276 228.107 29.9872 230.378 27.6252L227.9 25.1091C225.99 26.8549 224.286 27.9332 221.601 27.9332C217.419 27.9332 214.321 24.4416 214.321 20.077C214.321 15.7125 217.367 12.3235 221.601 12.3235C224.131 12.3235 225.99 13.4018 227.745 15.0449L230.224 12.2208C228.107 10.2182 225.68 8.83184 221.601 8.83184C214.941 8.88318 210.242 13.9666 210.242 20.2311ZM237.658 31.1682V21.9255H248.191V31.1682H252.064V9.24262H248.191V18.3825H237.658V9.24262H233.786V31.1682H237.658ZM274.058 31.1682H278.137L268.379 9.08858H264.816L255.11 31.1682H259.085L261.357 25.8793H271.787L274.058 31.1682ZM262.803 22.439L266.572 13.6585L270.393 22.439H262.803ZM285.159 31.1682V9.24262H281.287V31.1682H285.159ZM309.787 9.24262H305.915V24.3902L294.091 9.24262H290.529V31.1682H294.349V15.5584L306.534 31.1682H309.787V9.24262Z" fill="white"/>
</g>
<defs>
<clipPath id="clip0_4_4668">
<rect width="309.787" height="40" fill="white"/>
</clipPath>
</defs>
</svg>
