<svg width="157" height="35" viewBox="0 0 157 35" fill="none" xmlns="http://www.w3.org/2000/svg">
<g clip-path="url(#clip0_4_4441)">
<path d="M26.4479 2.82757C24.0667 0.9351 20.8069 0 16.6455 0H6.28827V1.40265H16.4606C19.9977 1.40265 23.1881 2.09284 25.1532 3.7404C27.1183 5.38796 28.5748 7.7925 28.5748 10.7759C28.5748 13.7593 27.2802 15.7854 25.2688 17.4107C23.2575 19.036 19.6047 19.7484 15.9751 19.7484H4.30005V21.1511H16.0675C20.437 21.1511 23.8586 20.2382 26.3323 18.4126C28.7829 16.5869 30.0313 14.0042 30.0313 10.6869C30.0313 7.36948 28.8291 4.69777 26.4479 2.82757Z" fill="white"/>
<path d="M25.5694 4.83133C24.0897 3.74038 22.4021 2.87207 17.5934 2.87207H9.59424V4.23019C9.59424 4.23019 13.1777 4.18566 17.4084 4.23019C21.5004 4.27472 23.0032 4.72001 24.3903 5.69964C26.1473 6.94644 27.257 8.50494 27.257 10.6646C27.257 12.8242 26.1473 14.2269 24.3672 15.4959C22.5639 16.7873 19.7896 16.7873 18.6568 16.8318H12.7153V18.1899C12.7153 18.1899 15.4433 18.2344 17.1541 18.1899C21.0381 18.1009 23.3499 17.8782 25.5 16.342C27.5113 14.8948 28.5748 13.0023 28.5748 10.5978C28.5748 7.43625 26.9102 5.85549 25.5694 4.83133Z" fill="white"/>
<path d="M24.8527 6.63476C23.743 5.96683 22.772 5.52155 18.1714 5.52155H12.4148V6.41212H18.0096C22.0785 6.41212 23.6043 7.10231 24.0898 7.39175C25.0146 7.92609 26.2168 8.81666 26.2168 10.5978C26.2168 11.7333 25.5232 13.1805 24.4828 13.7371C23.535 14.2492 21.8011 14.7167 18.7725 14.7167H0V15.6073H18.8187C22.4946 15.6073 23.743 15.2065 25.0377 14.5163C26.3324 13.8261 27.2109 12.4012 27.2109 10.5978C27.2109 8.54949 26.0318 7.34722 24.8527 6.63476Z" fill="white"/>
<path d="M28.5055 16.4979C26.1243 14.6054 22.8645 13.6703 18.7031 13.6703H11.7675V15.0729H18.4951C22.0322 15.0729 25.2226 15.7854 27.1877 17.4107C29.1528 19.036 30.6324 21.4628 30.6324 24.4462C30.6324 27.4296 29.3609 29.4557 27.3264 31.081C25.292 32.7063 21.6623 33.4187 18.0327 33.4187H6.35767V34.8214H18.1252C22.4946 34.8214 25.9162 33.9085 28.3899 32.0829C30.8636 30.2572 32.0889 27.6745 32.0889 24.3572C32.0658 20.9952 30.8868 18.3903 28.5055 16.4979Z" fill="white"/>
<path d="M27.627 18.5016C26.1474 17.4329 24.4597 16.5424 19.651 16.5424H8.78516V17.9005C8.78516 17.9005 15.2353 17.856 19.4661 17.9005C23.5581 17.945 25.0608 18.3903 26.4479 19.3699C28.205 20.6167 29.3147 22.1752 29.3147 24.3349C29.3147 26.4945 28.205 27.8972 26.4248 29.1662C24.6216 30.4575 21.8473 30.4575 20.7145 30.5021H14.7729V31.8602C14.7729 31.8602 17.5241 31.9047 19.2118 31.8602C23.0957 31.7711 25.4076 31.5485 27.5576 30.0123C29.569 28.5651 30.6325 26.6726 30.6325 24.2681C30.6325 21.1288 28.991 19.5258 27.627 18.5016Z" fill="white"/>
<path d="M11.0969 23.1329H21.2923V22.3756H11.0969V23.1329Z" fill="white"/>
<path d="M15.3047 25.7823H21.2231V25.1364H15.3047V25.7823Z" fill="white"/>
<path d="M6.35767 23.1329H9.36311V22.3756H6.35767V23.1329Z" fill="white"/>
<path d="M4.46191 25.8269H13.6401V25.0696H4.46191V25.8269Z" fill="white"/>
<path d="M6.72754 6.34556H10.311V5.72192H6.72754V6.34556Z" fill="white"/>
<path d="M4.25391 11.4222H12.4149V10.7091H4.25391V11.4222Z" fill="white"/>
<path d="M4.46191 31.7716H13.0852V30.8806H4.46191V31.7716Z" fill="white"/>
<path d="M2.33496 34.733H4.48501V33.4187H2.33496V34.733Z" fill="white"/>
<path d="M7.69849 9.19586H21.2461V8.48273H7.69849V9.19586Z" fill="white"/>
<path d="M14.4724 11.4222H20.9919V10.7091H14.4724V11.4222Z" fill="white"/>
<path d="M26.9104 20.4386C25.8007 19.7929 24.8297 19.3477 20.229 19.3477H12.9235V20.216H20.0903C24.1592 20.216 25.7082 20.8839 26.1706 21.1511C27.0722 21.6631 28.2975 22.5092 28.2975 24.2458C28.2975 25.359 27.6039 26.7394 26.5636 27.2737C25.6157 27.7636 23.8818 28.2088 20.8532 28.2088H2.05762V29.0772H20.8764C24.5522 29.0772 25.8007 28.6987 27.0953 28.0307C28.39 27.3628 29.2454 26.0047 29.2454 24.2458C29.2685 22.3088 28.0894 21.1511 26.9104 20.4386Z" fill="white"/>
<path d="M46.1914 18.5016V26.45H50.6996C52.6416 26.45 54.1674 26.0937 55.2309 25.3813C56.2712 24.7356 56.8723 23.6224 56.8492 22.4201C56.8492 19.8152 54.5604 18.5016 50.006 18.5016H46.1914ZM46.1914 9.03929V16.1639H49.5899C51.4163 16.1639 52.8265 15.8299 53.8669 15.1397C54.8841 14.5163 55.4852 13.4031 55.439 12.2453C55.439 10.108 53.6357 9.01702 50.006 9.01702L46.1914 9.03929ZM42.8623 28.7877V6.70154H50.9308C53.3814 6.70154 55.3234 7.16909 56.7567 8.10419C58.1901 9.03929 58.9068 10.2638 58.9068 11.7555C58.9299 12.9578 58.4675 14.1378 57.6121 15.0284C56.7336 15.9635 55.5545 16.6092 54.0287 17.0099V17.0767C55.9476 17.2548 57.4734 17.8114 58.6062 18.7688C59.7391 19.6816 60.3633 21.0397 60.317 22.4647C60.317 24.3571 59.4385 25.8711 57.7046 27.0511C55.9707 28.2311 53.7744 28.81 51.1157 28.81H42.8623V28.7877Z" fill="white"/>
<path d="M64.016 28.7877H67.2527V13.0246H64.016V28.7877ZM65.6575 8.99475C65.1257 9.01701 64.594 8.8389 64.1779 8.5272C63.7849 8.26003 63.5537 7.81474 63.5768 7.36946C63.5768 6.90191 63.808 6.45662 64.1779 6.18945C64.594 5.87775 65.1257 5.69963 65.6575 5.7219C66.2123 5.69963 66.7441 5.87775 67.1602 6.18945C67.8306 6.657 67.9694 7.54757 67.507 8.19324C67.4145 8.32682 67.2989 8.43814 67.1602 8.5272C66.7441 8.86116 66.2123 9.01701 65.6575 8.99475Z" fill="white"/>
<path d="M81.5632 28.6319C80.8003 28.9659 79.7831 29.1217 78.5347 29.1217C74.9975 29.1217 73.2173 27.5855 73.2173 24.4907V15.162H69.7495V13.0023H73.2173V9.15062L76.454 8.32684V13.0023H81.5401V15.162H76.454V24.0454C76.454 25.0919 76.6852 25.8488 77.1475 26.3164C77.6099 26.7839 78.3728 26.9843 79.4363 26.9843C80.1761 27.0066 80.9159 26.8285 81.5401 26.45L81.5632 28.6319Z" fill="white"/>
<path d="M110.993 28.7878H107.965V15.162C107.988 13.8484 108.057 12.5126 108.219 11.199H108.15C107.965 11.8669 107.687 12.5348 107.364 13.1582L98.4631 28.7655H96.9603L88.0827 13.2695C87.7359 12.6016 87.4816 11.9114 87.2967 11.1767H87.2273C87.3429 12.4903 87.3891 13.8261 87.366 15.162V28.7655H84.4299V8.46045H88.4757L96.4748 22.6205C96.9372 23.3998 97.3534 24.2236 97.677 25.0696H97.7926C98.3243 23.9564 98.7405 23.1326 99.041 22.576L107.202 8.46045H111.017V28.7878" fill="white"/>
<path d="M127.454 20.7949L122.576 21.3292C121.073 21.485 119.941 21.7745 119.178 22.1975C118.415 22.6205 118.022 23.3552 118.022 24.4017C118.022 25.1587 118.415 25.8711 119.085 26.2941C119.779 26.7839 120.727 27.0289 121.906 27.0289C123.524 27.0289 124.842 26.5836 125.882 25.7153C126.899 24.8915 127.477 23.6669 127.454 22.3756V20.7949ZM130.691 28.7877H127.454V26.3164H127.385C125.975 28.2089 123.894 29.144 121.166 29.144C119.155 29.144 117.582 28.7209 116.427 27.8972C115.317 27.1402 114.693 25.8934 114.716 24.5798C114.716 21.6409 116.935 19.9265 121.397 19.4367L127.454 18.7688C127.454 16.0971 126.067 14.7612 123.293 14.7612C120.935 14.739 118.646 15.4069 116.704 16.6982V14.1156C118.692 13.1359 120.981 12.6461 123.57 12.6461C128.333 12.6461 130.691 14.6054 130.691 18.5239V28.7877Z" fill="white"/>
<path d="M145.718 15.5627C145.14 15.2288 144.331 15.0506 143.267 15.0506C141.926 15.0284 140.655 15.585 139.8 16.5869C138.875 17.611 138.412 18.9914 138.412 20.7503V28.7877H135.176V13.0246H138.412V16.2752H138.482C138.898 15.2288 139.638 14.3159 140.609 13.6703C141.533 13.0469 142.643 12.7352 143.799 12.7352C144.446 12.7129 145.117 12.7797 145.741 12.9578L145.718 15.5627Z" fill="white"/>
<path d="M157 28.6319C156.237 28.9659 155.22 29.1217 153.971 29.1217C150.434 29.1217 148.654 27.5855 148.654 24.4907V15.162H145.186V13.0023H148.654V9.15062L151.891 8.32684V13.0023H156.977V15.162H151.891V24.0454C151.891 25.0919 152.122 25.8488 152.584 26.3164C153.047 26.7839 153.81 26.9843 154.873 26.9843C155.613 27.0066 156.353 26.8285 156.977 26.45L157 28.6319Z" fill="white"/>
</g>
<defs>
<clipPath id="clip0_4_4441">
<rect width="157" height="34.8214" fill="white"/>
</clipPath>
</defs>
</svg>
