<svg width="220" height="60" viewBox="0 0 220 60" fill="none" xmlns="http://www.w3.org/2000/svg">
<g opacity="0.8">
<path opacity="0.8" d="M51.2359 10.0882L51.5495 11.8977C51.5495 12.0011 51.863 13.9659 51.863 17.0162C51.863 19.9115 51.6018 23.8926 50.5044 28.2355C49.4593 32.3717 47.5781 37.335 44.1814 42.195C40.7848 47.055 35.8204 51.8115 28.6613 55.6375L27.773 56.1028L26.8847 55.6375C19.6733 51.8115 14.7612 47.0032 11.3646 42.195C7.96794 37.335 6.08671 32.4234 5.04159 28.2355C3.94422 23.8926 3.68293 19.9115 3.68293 17.0162C3.68293 13.9659 3.99648 12.0011 3.99648 11.8977L4.31001 10.0882C4.41452 9.46774 3.99648 8.89903 3.3694 8.79562C2.74233 8.69222 2.1675 9.10583 2.063 9.72625L1.74946 11.5358C1.6972 11.7426 1.38367 13.8107 1.38367 17.0162C1.38367 20.0666 1.6972 24.2028 2.84683 28.8043C3.83971 33.1989 5.82544 38.4208 9.43112 43.5393C13.0368 48.6577 18.2624 53.7246 25.7873 57.7056L27.1982 58.4811C27.5639 58.688 27.9298 58.688 28.2956 58.4811L29.7065 57.7056C37.2314 53.7246 42.457 48.6577 46.0626 43.5393C49.6683 38.4208 51.6541 33.1989 52.7515 28.856C53.9011 24.2545 54.2147 20.17 54.2147 17.0679C54.2147 13.8624 53.9011 11.7943 53.8488 11.5875L53.5353 9.77796C53.4308 9.15753 52.8559 8.74391 52.2289 8.84732C51.5495 8.89903 51.1315 9.46774 51.2359 10.0882Z" fill="white" stroke="white" stroke-width="0.529384" stroke-miterlimit="10"/>
<path opacity="0.8" d="M10.5808 8.84749L27.773 3.6773L45.3311 9.0026C45.9581 9.20941 46.5852 8.84749 46.7943 8.22708C47.0033 7.60665 46.6375 6.98622 46.0104 6.77941L28.0865 1.40243C27.8776 1.35072 27.6162 1.35072 27.4073 1.40243L9.90144 6.67602C9.27435 6.88282 8.96082 7.50324 9.11759 8.12367C9.32661 8.69239 9.95368 9.0543 10.5808 8.84749Z" fill="white" stroke="white" stroke-width="0.529384" stroke-miterlimit="10"/>
<path opacity="0.8" d="M2.11532 10.4515L26.728 57.9655C26.9369 58.3274 27.3028 58.5859 27.7208 58.5859C28.1389 58.5859 28.5569 58.3791 28.766 57.9655L43.7635 30.2016V30.1499L53.4309 10.3998C53.6921 9.83108 53.483 9.15896 52.9083 8.90044C52.3335 8.64194 51.6541 8.84874 51.3929 9.41746L41.7255 29.1675L27.7731 55.0185L4.15331 9.41746C3.83978 8.84874 3.16045 8.64194 2.58562 8.90044C2.06306 9.21065 1.80179 9.88278 2.11532 10.4515Z" fill="white" stroke="white" stroke-width="0.529384" stroke-miterlimit="10"/>
<path opacity="0.8" d="M13.8729 31.5957H41.2551C41.8822 31.5957 42.4047 31.0788 42.4047 30.4583C42.4047 29.8379 41.8822 29.3209 41.2551 29.3209H13.8729C13.2458 29.3209 12.7233 29.8379 12.7233 30.4583C12.7233 31.0788 13.2458 31.5957 13.8729 31.5957Z" fill="white" stroke="white" stroke-width="0.529384" stroke-miterlimit="10"/>
<path opacity="0.8" d="M84.1298 13.7261C84.1298 15.0551 83.8863 16.2035 83.3994 17.1715C82.9125 18.1395 82.2445 18.886 81.3955 19.411C80.5465 19.936 79.5768 20.1986 78.4864 20.1986C77.3961 20.1986 76.4263 19.936 75.5772 19.411C74.7282 18.886 74.0604 18.1395 73.5733 17.1715C73.0864 16.2035 72.843 15.0551 72.843 13.7261C72.843 12.3972 73.0864 11.2488 73.5733 10.2808C74.0604 9.31279 74.7282 8.5663 75.5772 8.0413C76.4263 7.51628 77.3961 7.25378 78.4864 7.25378C79.5768 7.25378 80.5465 7.51628 81.3955 8.0413C82.2445 8.5663 82.9125 9.31279 83.3994 10.2808C83.8863 11.2488 84.1298 12.3972 84.1298 13.7261ZM82.6315 13.7261C82.6315 12.6351 82.4464 11.7143 82.076 10.9637C81.7097 10.2131 81.2124 9.64503 80.584 9.25947C79.9597 8.87392 79.2605 8.68114 78.4864 8.68114C77.7124 8.68114 77.011 8.87392 76.3825 9.25947C75.7584 9.64503 75.2609 10.2131 74.8905 10.9637C74.5243 11.7143 74.3412 12.6351 74.3412 13.7261C74.3412 14.8171 74.5243 15.738 74.8905 16.4885C75.2609 17.2392 75.7584 17.8073 76.3825 18.1928C77.011 18.5783 77.7124 18.7711 78.4864 18.7711C79.2605 18.7711 79.9597 18.5783 80.584 18.1928C81.2124 17.8073 81.7097 17.2392 82.076 16.4885C82.4464 15.738 82.6315 14.8171 82.6315 13.7261ZM98.9808 7.42605V20.0262H97.4825L90.5157 10.1331H90.3907V20.0262H88.8426V7.42605H90.3409L97.3328 17.3438H97.4576V7.42605H98.9808ZM111.242 20.0262V7.42605H115.712C116.603 7.42605 117.337 7.57781 117.916 7.88133C118.494 8.18074 118.925 8.58476 119.208 9.09336C119.491 9.59786 119.632 10.1577 119.632 10.773C119.632 11.3144 119.534 11.7615 119.339 12.1142C119.147 12.467 118.894 12.7459 118.577 12.9509C118.265 13.156 117.926 13.3078 117.56 13.4062V13.5293C117.951 13.5539 118.344 13.6893 118.74 13.9353C119.135 14.1814 119.466 14.5342 119.732 14.9936C119.999 15.453 120.132 16.0148 120.132 16.6793C120.132 17.311 119.986 17.879 119.695 18.3836C119.403 18.888 118.944 19.288 118.315 19.5833C117.687 19.8785 116.869 20.0262 115.862 20.0262H111.242ZM112.79 18.6727H115.862C116.873 18.6727 117.591 18.48 118.015 18.0944C118.444 17.7048 118.659 17.2331 118.659 16.6793C118.659 16.2528 118.548 15.859 118.328 15.498C118.107 15.133 117.793 14.8418 117.385 14.6245C116.977 14.4029 116.494 14.2921 115.937 14.2921H112.79V18.6727ZM112.79 12.9632H115.662C116.128 12.9632 116.548 12.873 116.923 12.6925C117.302 12.5121 117.601 12.2578 117.822 11.9296C118.047 11.6015 118.159 11.216 118.159 10.773C118.159 10.2193 117.963 9.74962 117.572 9.36407C117.181 8.97441 116.561 8.77958 115.712 8.77958H112.79V12.9632ZM135.573 13.7261C135.573 15.0551 135.329 16.2035 134.842 17.1715C134.355 18.1395 133.687 18.886 132.838 19.411C131.989 19.936 131.02 20.1986 129.929 20.1986C128.839 20.1986 127.869 19.936 127.02 19.411C126.171 18.886 125.503 18.1395 125.016 17.1715C124.529 16.2035 124.286 15.0551 124.286 13.7261C124.286 12.3972 124.529 11.2488 125.016 10.2808C125.503 9.31279 126.171 8.5663 127.02 8.0413C127.869 7.51628 128.839 7.25378 129.929 7.25378C131.02 7.25378 131.989 7.51628 132.838 8.0413C133.687 8.5663 134.355 9.31279 134.842 10.2808C135.329 11.2488 135.573 12.3972 135.573 13.7261ZM134.074 13.7261C134.074 12.6351 133.889 11.7143 133.519 10.9637C133.152 10.2131 132.655 9.64503 132.027 9.25947C131.402 8.87392 130.703 8.68114 129.929 8.68114C129.155 8.68114 128.454 8.87392 127.825 9.25947C127.201 9.64503 126.704 10.2131 126.333 10.9637C125.967 11.7143 125.784 12.6351 125.784 13.7261C125.784 14.8171 125.967 15.738 126.333 16.4885C126.704 17.2392 127.201 17.8073 127.825 18.1928C128.454 18.5783 129.155 18.7711 129.929 18.7711C130.703 18.7711 131.402 18.5783 132.027 18.1928C132.655 17.8073 133.152 17.2392 133.519 16.4885C133.889 15.738 134.074 14.8171 134.074 13.7261ZM140.209 20.0262H138.586L143.281 7.42605H144.879L149.572 20.0262H147.949L144.129 9.41944H144.029L140.209 20.0262ZM140.808 15.1043H147.35V16.4579H140.808V15.1043ZM153.674 20.0262V7.42605H157.995C158.992 7.42605 159.813 7.59422 160.453 7.93054C161.094 8.26278 161.569 8.72012 161.877 9.30254C162.184 9.88497 162.339 10.5474 162.339 11.2898C162.339 12.0322 162.184 12.6905 161.877 13.2647C161.569 13.839 161.097 14.2901 160.46 14.6183C159.822 14.9423 159.009 15.1043 158.02 15.1043H154.523V13.7261H157.968C158.652 13.7261 159.201 13.6277 159.618 13.4308C160.037 13.234 160.341 12.9551 160.528 12.5941C160.72 12.2291 160.816 11.7943 160.816 11.2898C160.816 10.7853 160.72 10.3444 160.528 9.96701C160.337 9.58965 160.031 9.29845 159.611 9.09336C159.19 8.88418 158.635 8.77958 157.943 8.77958H155.222V20.0262H153.674ZM159.692 14.366L162.839 20.0262H161.04L157.943 14.366H159.692ZM170.973 20.0262H167.028V7.42605H171.149C172.389 7.42605 173.45 7.6783 174.333 8.1828C175.214 8.6832 175.891 9.40304 176.361 10.3423C176.832 11.2775 177.067 12.3972 177.067 13.7015C177.067 15.014 176.829 16.1441 176.354 17.0915C175.881 18.0349 175.189 18.7609 174.283 19.2695C173.375 19.774 172.273 20.0262 170.973 20.0262ZM168.577 18.6727H170.874C171.931 18.6727 172.807 18.4717 173.503 18.0698C174.197 17.6678 174.715 17.0956 175.056 16.3533C175.398 15.6109 175.568 14.727 175.568 13.7015C175.568 12.6843 175.4 11.8086 175.063 11.0744C174.726 10.3362 174.222 9.77013 173.552 9.37637C172.881 8.97851 172.047 8.77958 171.048 8.77958H168.577V18.6727Z" fill="white" stroke="white" stroke-width="0.265807" stroke-miterlimit="10"/>
<path d="M191.428 18.0001C193.72 18.0001 195.579 16.1685 195.579 13.9091C195.579 11.6498 193.72 9.81824 191.428 9.81824C189.135 9.81824 187.277 11.6498 187.277 13.9091C187.277 16.1685 189.135 18.0001 191.428 18.0001Z" fill="#40B884"/>
<path d="M191.428 18.0001C193.72 18.0001 195.579 16.1685 195.579 13.9091C195.579 11.6498 193.72 9.81824 191.428 9.81824C189.135 9.81824 187.277 11.6498 187.277 13.9091C187.277 16.1685 189.135 18.0001 191.428 18.0001Z" fill="#40B884"/>
<path opacity="0.8" d="M89.6798 33.4064H74.7678C74.5054 33.4064 74.2868 33.493 74.0681 33.7092C73.8932 33.8824 73.762 34.1419 73.762 34.4015V46.2132C73.762 46.4729 73.8495 46.6891 74.0681 46.9055C74.2431 47.0786 74.5054 47.2084 74.7678 47.2084H89.6798V49.1986H74.7678C73.9369 49.1986 73.2372 48.8958 72.6688 48.3333C72.1003 47.7709 71.7942 47.0786 71.7942 46.2566V34.3583C71.7942 33.5362 72.1003 32.844 72.6688 32.2815C73.2372 31.719 73.9369 31.4161 74.7678 31.4161H89.6798V33.4064Z" fill="white" stroke="white" stroke-width="0.265807" stroke-miterlimit="10"/>
<path opacity="0.8" d="M117.667 31.4161V33.4064H103.324V39.2906H114.868V41.3242H103.324V47.2084H117.667V49.1986H101.312V31.4595H117.667V31.4161Z" fill="white" stroke="white" stroke-width="0.265807" stroke-miterlimit="10"/>
<path opacity="0.8" d="M147.228 34.3583V39.5502C147.228 40.3724 146.923 41.0645 146.354 41.627C145.785 42.1895 145.087 42.4924 144.255 42.4924H141.5L147.141 49.1122H144.474L138.832 42.5356H132.273C132.142 42.5356 131.792 42.4924 131.311 42.449V49.1554H129.299V31.4161H144.255C145.087 31.4161 145.785 31.719 146.354 32.2815C146.923 32.844 147.228 33.5362 147.228 34.3583ZM132.273 40.502H144.211C144.474 40.502 144.692 40.4156 144.868 40.2425C145.042 40.0695 145.129 39.8531 145.129 39.5935V34.4015C145.129 34.1419 145.042 33.9256 144.868 33.7092C144.692 33.5362 144.474 33.4064 144.211 33.4064H132.273C132.011 33.4064 131.792 33.493 131.573 33.7092C131.398 33.8824 131.267 34.1419 131.267 34.4015V39.5935C131.267 39.8531 131.355 40.0695 131.573 40.2425C131.748 40.4156 132.011 40.502 132.273 40.502Z" fill="white" stroke="white" stroke-width="0.265807" stroke-miterlimit="10"/>
<path opacity="0.8" d="M157.943 31.4161H175.873V33.4064H167.913V49.1554H165.902V33.4064H157.943V31.4161Z" fill="white" stroke="white" stroke-width="0.265807" stroke-miterlimit="10"/>
<path opacity="0.8" d="M186.718 49.1554V31.4161H188.728V49.1554H186.718Z" fill="white" stroke="white" stroke-width="0.265807" stroke-miterlimit="10"/>
<path opacity="0.8" d="M215.666 31.4161H218.247L210.768 40.2858L218.29 49.1554H215.666L208.975 41.281H203.204V49.1554H201.148V31.4161H203.204V39.2906H208.975L215.666 31.4161Z" fill="white" stroke="white" stroke-width="0.265807" stroke-miterlimit="10"/>
</g>
</svg>
