<svg width="228" height="28" viewBox="0 0 405 93" fill="none" xmlns="http://www.w3.org/2000/svg">
<path d="M246.038 16.0498H235.348V27.5498H228.948V37.6398H235.348V64.0398C235.276 66.3544 235.615 68.6634 236.348 70.8598C236.955 72.4966 237.954 73.9595 239.258 75.1198C240.513 76.2644 242.016 77.103 243.648 77.5698C247.355 78.4698 251.222 78.4698 254.928 77.5698C256.401 77.1813 257.821 76.6173 259.158 75.8898V67.7698C257.156 68.6142 255.011 69.069 252.838 69.1098C251.941 69.212 251.031 69.1143 250.175 68.8239C249.32 68.5334 248.539 68.0574 247.888 67.4298C246.658 66.2698 246.008 64.7498 246.008 62.1898V37.6398H259.158V27.5498H246.038V16.0498ZM212.408 31.1298C208.518 28.2818 203.915 26.5671 199.109 26.1759C194.304 25.7846 189.484 26.7321 185.184 28.9133C180.884 31.0944 177.273 34.4239 174.75 38.5326C172.227 42.6412 170.891 47.3684 170.891 52.1898C170.891 57.0112 172.227 61.7384 174.75 65.847C177.273 69.9557 180.884 73.2852 185.184 75.4664C189.484 77.6475 194.304 78.595 199.109 78.2037C203.915 77.8125 208.518 76.0978 212.408 73.2498V76.8598H223.098V27.5098H212.408V31.1298ZM196.988 67.5598C193.938 67.5598 190.957 66.6552 188.421 64.9604C185.885 63.2656 183.908 60.8567 182.741 58.0385C181.574 55.2202 181.27 52.1193 181.866 49.1278C182.461 46.1364 183.931 43.3888 186.088 41.2327C188.246 39.0766 190.994 37.6087 193.986 37.0149C196.978 36.421 200.079 36.7278 202.896 37.8965C205.714 39.0651 208.121 41.0431 209.815 43.5802C211.508 46.1173 212.41 49.0996 212.408 52.1498C212.408 54.1743 212.01 56.179 211.234 58.0493C210.459 59.9195 209.323 61.6188 207.891 63.0499C206.459 64.4809 204.759 65.6158 202.889 66.3897C201.018 67.1635 199.013 67.5611 196.988 67.5598ZM138.408 42.5598V54.4598H154.498C153.499 58.6878 151.074 62.4429 147.633 65.0943C144.191 67.7457 139.942 69.1318 135.598 69.0198C132.169 69.013 128.795 68.1461 125.787 66.4986C122.779 64.8511 120.232 62.4754 118.379 59.5891C116.526 56.7027 115.427 53.3978 115.182 49.9768C114.936 46.5557 115.553 43.1278 116.975 40.0066C118.397 36.8855 120.579 34.1707 123.321 32.1108C126.064 30.0509 129.279 28.7116 132.673 28.2155C136.066 27.7194 139.53 28.0823 142.748 29.271C145.965 30.4597 148.833 32.4363 151.088 35.0198L160.298 27.4998C156.779 23.3512 152.272 20.1556 147.192 18.2077C142.112 16.2599 136.624 15.6225 131.233 16.3543C125.842 17.0861 120.722 19.1636 116.346 22.3951C111.969 25.6267 108.477 29.9082 106.191 34.8449C103.905 39.7816 102.899 45.2145 103.265 50.6425C103.632 56.0704 105.359 61.3187 108.288 65.9033C111.217 70.4879 115.253 74.2611 120.024 76.875C124.796 79.4889 130.148 80.8593 135.588 80.8598C139.762 80.9358 143.908 80.168 147.778 78.6026C151.648 77.0372 155.161 74.7063 158.108 71.7498C163.095 66.5874 166.192 59.8924 166.898 52.7498C167.188 49.3442 167.238 45.9224 167.048 42.5098L138.408 42.5598ZM378.888 26.0798C373.724 26.0798 368.676 27.6111 364.383 30.4801C360.089 33.3491 356.742 37.427 354.766 42.1979C352.79 46.9689 352.273 52.2188 353.28 57.2836C354.288 62.3485 356.774 67.0008 360.426 70.6524C364.077 74.3039 368.73 76.7907 373.795 77.7981C378.86 78.8056 384.109 78.2885 388.88 76.3123C393.651 74.3361 397.729 70.9895 400.598 66.6957C403.467 62.402 404.998 57.3539 404.998 52.1898C405.004 48.7576 404.332 45.3581 403.022 42.1857C401.713 39.0132 399.79 36.1302 397.365 33.7014C394.94 31.2726 392.06 29.3458 388.89 28.0311C385.719 26.7165 382.321 26.0398 378.888 26.0398V26.0798ZM378.888 67.5998C375.838 67.5998 372.857 66.6952 370.321 65.0004C367.785 63.3056 365.808 60.8967 364.641 58.0785C363.474 55.2603 363.17 52.1593 363.766 49.1678C364.361 46.1764 365.831 43.4288 367.988 41.2727C370.146 39.1165 372.894 37.6487 375.886 37.0549C378.878 36.461 381.979 36.7678 384.796 37.9364C387.614 39.1051 390.021 41.0831 391.715 43.6202C393.408 46.1573 394.31 49.1396 394.308 52.1898C394.298 56.2716 392.668 60.1824 389.777 63.064C386.886 65.9456 382.97 67.5625 378.888 67.5598V67.5998ZM335.288 76.8998H346.788V32.6098H335.288V76.8998ZM317.718 76.8998H329.218V65.3598H317.718V76.8998ZM288.578 26.0798C283.965 26.0754 279.433 27.2933 275.444 29.6095C271.454 31.9258 268.149 35.2578 265.866 39.2663C263.583 43.2748 262.402 47.8168 262.444 52.4298C262.487 57.0429 263.751 61.5623 266.107 65.5282C268.464 69.494 271.829 72.7647 275.861 75.0072C279.892 77.2498 284.446 78.3842 289.058 78.2949C293.671 78.2057 298.177 76.8959 302.119 74.4991C306.061 72.1023 309.297 68.7039 311.498 64.6498L301.848 59.9598C300.305 62.5803 298.021 64.6858 295.284 66.0115C292.546 67.3371 289.478 67.8237 286.465 67.4101C283.452 66.9964 280.628 65.701 278.35 63.6868C276.071 61.6725 274.439 59.0293 273.658 56.0898H303.498H314.418C314.988 52.3698 314.746 48.5708 313.711 44.9527C312.675 41.3347 310.87 37.9832 308.419 35.1276C305.968 32.2719 302.929 29.9797 299.51 28.4077C296.09 26.8357 292.372 26.0212 288.608 26.0198L288.578 26.0798ZM274.148 46.7498C275.251 43.8151 277.223 41.2867 279.801 39.5018C282.378 37.717 285.438 36.7608 288.573 36.7608C291.709 36.7608 294.769 37.717 297.346 39.5018C299.924 41.2867 301.896 43.8151 302.998 46.7498H274.148ZM335.288 27.5898H346.788V16.0898H335.288V27.5898Z" fill="white"/>
<path d="M46.36 71.86C39.597 71.86 33.111 69.1734 28.3288 64.3912C23.5466 59.609 20.86 53.123 20.86 46.36C20.86 39.597 23.5466 33.111 28.3288 28.3288C33.111 23.5466 39.597 20.86 46.36 20.86V0C37.1909 0 28.2276 2.71896 20.6038 7.81306C12.9799 12.9072 7.03785 20.1476 3.52897 28.6188C0.0200889 37.09 -0.897996 46.4114 0.890815 55.4044C2.67963 64.3973 7.095 72.6579 13.5786 79.1415C20.0621 85.625 28.3227 90.0404 37.3156 91.8292C46.3086 93.618 55.6301 92.6999 64.1012 89.1911C72.5724 85.6822 79.8129 79.7401 84.907 72.1162C90.0011 64.4924 92.72 55.5291 92.72 46.36H71.86C71.86 53.123 69.1734 59.609 64.3912 64.3912C59.6091 69.1734 53.123 71.86 46.36 71.86Z" fill="#2354E6"/>
<path d="M71.8594 20.8599H46.3594V46.3599H71.8594V20.8599Z" fill="#17E6A1"/>
</svg>
