<svg width="228" height="28" viewBox="0 0 228 28" fill="none" xmlns="http://www.w3.org/2000/svg">
<g clip-path="url(#clip0_4_4425)">
<path d="M44.0136 19.7487L34.35 2.6705C32.2164 -0.879471 27.0708 -0.943434 25.0314 2.83041L14.8657 20.6122C12.9832 23.8744 15.305 27.968 19.1014 27.968H39.4328C43.2606 27.968 46.1158 23.7465 44.0136 19.7487Z" fill="white"/>
<path d="M30.0516 21.092L29.4555 20.0366C28.8907 19.0451 27.667 16.9343 27.667 16.9343L19.478 2.44662C17.8465 -0.0799346 14.5207 -0.751551 12.042 0.911499C11.2576 1.42321 10.6301 2.15879 10.2222 3.02229L0.71543 19.8127C-0.759222 22.4032 0.119294 25.7293 2.69209 27.2325C3.50786 27.7122 4.41775 27.968 5.35901 27.968H39.3388C34.099 28 32.4361 25.2176 30.0516 21.092Z" fill="white"/>
<path d="M30.0515 21.0919L29.4554 20.0365C28.8906 19.0451 27.667 16.9343 27.667 16.9343L22.3959 7.46771L14.803 20.6442C12.9204 23.9063 15.2422 28 19.0387 28H39.3387C34.0676 27.968 32.4361 25.2176 30.0515 21.0919Z" fill="white"/>
<path d="M226.368 26.6248C225.208 26.6568 224.078 26.369 223.105 25.7933C222.258 25.2496 221.756 24.2901 221.819 23.2667V6.73218H223.984C224.768 6.73218 225.427 7.40379 225.427 8.20334V22.755C225.459 23.2347 225.647 23.6825 225.992 24.0343C226.337 24.3861 226.808 24.578 227.278 24.578H227.686C227.843 24.578 228 24.7059 228 24.8978V26.6888L226.368 26.6248Z" fill="white"/>
<path d="M179.901 26.6248C177.674 26.6248 175.854 26.0172 174.473 24.8019C173.814 24.2582 173.312 23.5546 172.999 22.755C172.685 21.9875 172.559 20.9001 172.559 19.4289C172.559 17.9578 172.716 16.8384 172.999 16.1028C173.312 15.3353 173.814 14.6636 174.442 14.12C175.822 12.9047 177.642 12.297 179.87 12.297C182.098 12.297 183.917 12.9047 185.298 14.12C185.925 14.6317 186.427 15.3353 186.741 16.1028C187.086 17.1902 187.243 18.3096 187.18 19.4609C187.18 20.9321 187.023 22.0514 186.741 22.787C186.427 23.5865 185.925 24.2901 185.266 24.8338C183.98 26.0172 182.129 26.6248 179.901 26.6248ZM179.901 14.4078C177.454 14.4078 176.23 16.1028 176.23 19.4929C176.23 22.8829 177.454 24.61 179.901 24.61C182.349 24.61 183.572 22.9149 183.572 19.5249C183.572 16.1348 182.317 14.4078 179.901 14.4078Z" fill="white"/>
<path d="M195.307 26.6248C193.455 26.6568 191.636 26.1131 190.067 25.0577C189.816 24.8338 189.533 24.6419 189.251 24.482C189.157 24.4181 189.094 24.3221 189.094 24.2262V6.73218H191.291C192.075 6.73218 192.734 7.40379 192.734 8.20334V13.3204L193.393 12.9366C194.177 12.5209 195.212 12.329 196.562 12.329C198.915 12.329 200.703 13.0646 201.864 14.4398C202.899 15.6871 203.433 17.3501 203.433 19.3969C203.433 21.4438 202.837 23.1068 201.644 24.3221C200.295 25.8892 198.13 26.6248 195.307 26.6248ZM195.652 14.4078C194.836 14.4078 193.895 14.7276 192.859 15.3672L192.702 15.4312V23.6505L192.859 23.7784C193.706 24.3221 194.648 24.578 195.652 24.578C196.907 24.61 198.099 23.9703 198.727 22.8829C199.354 21.8595 199.699 20.6762 199.668 19.4609C199.668 16.1028 198.319 14.4078 195.652 14.4078Z" fill="white"/>
<path d="M212.03 26.5928C207.951 26.5928 205.378 23.8744 205.378 19.4289C205.378 14.9835 207.888 12.297 211.967 12.297C213.379 12.265 214.791 12.6808 215.952 13.5123L216.171 13.6722V12.5848H219.027C219.183 12.5848 219.309 12.7128 219.309 12.8727V26.337H216.109V25.1217L215.889 25.3136C215.01 26.1451 213.599 26.5928 212.03 26.5928ZM212.751 14.7276C210.179 14.7276 208.673 16.7425 208.673 19.4289C208.673 22.1154 210.21 24.1942 212.751 24.1942C213.567 24.1942 214.979 24.1302 216.109 22.9789L216.14 22.9469V16.0389L216.109 16.0069C215.356 15.1114 214.195 14.7276 212.751 14.7276Z" fill="white"/>
<path d="M79.9701 26.4649V6.73218H96.0658V7.97947C96.0658 8.9709 95.2814 9.77044 94.3087 9.77044H83.9548V15.0474H94.3087V18.0857H83.9548V23.3947H94.3087C95.2814 23.3947 96.0658 24.1942 96.0658 25.1856V26.4329L79.9701 26.4649Z" fill="white"/>
<path d="M119.158 6.7002H115.362C114.671 6.7002 114.013 7.02001 113.573 7.5637L109.024 13.4483L104.443 7.59568C104.004 7.05199 103.345 6.73218 102.655 6.73218H98.8582L106.545 16.5825L98.8582 26.4329H102.655C103.345 26.4329 104.004 26.1131 104.443 25.5694L109.024 19.7487L113.636 25.6334C114.075 26.1771 114.734 26.4969 115.424 26.4969H119.221L111.503 16.6465L119.158 6.7002Z" fill="white"/>
<path d="M67.3571 24.3541L72.6282 14.9514V26.4009H76.6442V6.66817H74.1656C73.3812 6.66817 72.6595 7.08393 72.283 7.78753L65.9765 19.5248L59.67 7.78753C59.2935 7.08393 58.5719 6.63619 57.7875 6.66817H55.2775V26.4009H59.2935V14.9514L64.5646 24.3541H67.3571Z" fill="white"/>
<path d="M129.638 26.6888C124.147 26.8167 119.597 22.3712 119.503 16.7744V16.6145C119.503 13.5123 120.445 10.9218 122.17 9.16278C123.896 7.40379 126.437 6.47632 129.449 6.47632C132.995 6.47632 135.756 7.72361 137.764 10.1542L136.509 11.2416C135.724 11.9132 134.564 11.9452 133.716 11.3056C132.524 10.4101 131.081 9.96233 129.606 10.0263C125.653 10.0263 123.331 12.4569 123.331 16.5506C123.331 20.6442 125.747 23.2347 129.606 23.2347C131.081 23.2667 132.524 22.819 133.716 21.9555C134.564 21.3158 135.693 21.3478 136.509 22.0194L137.764 23.1068C135.787 25.4735 133.089 26.6888 129.638 26.6888Z" fill="white"/>
<path d="M154.361 26.6568C148.118 26.6568 144.259 22.787 144.259 16.5825C144.259 10.3781 148.118 6.5083 154.299 6.5083C157.279 6.5083 159.758 7.37181 161.703 9.16278L160.762 10.2182C160.103 10.9538 159.068 11.1457 158.189 10.6979C156.966 10.0903 155.648 9.77044 154.299 9.77044C150.283 9.77044 147.804 12.3929 147.804 16.5825C147.804 20.7721 150.408 23.4266 154.581 23.4266C156.589 23.4266 158.158 23.0429 159.287 22.2113L159.35 22.1793V18.1177H154.926V16.8064C154.926 15.815 155.711 15.0154 156.683 15.0154H162.143C162.3 15.0154 162.456 15.1434 162.456 15.3353V24.0982C160.542 25.7933 157.813 26.6568 154.361 26.6568Z" fill="white"/>
<path d="M169.61 26.6248C168.449 26.6568 167.32 26.369 166.347 25.7933C165.5 25.2496 164.998 24.2901 165.029 23.2667V6.73218H167.194C168.01 6.73218 168.637 7.40379 168.637 8.20334V22.755C168.669 23.2347 168.857 23.6825 169.202 24.0343C169.547 24.3861 170.018 24.578 170.489 24.578H170.896C171.053 24.578 171.21 24.7059 171.21 24.8978V26.6888L169.61 26.6248Z" fill="white"/>
</g>
<defs>
<clipPath id="clip0_4_4425">
<rect width="228" height="28" fill="white"/>
</clipPath>
</defs>
</svg>
