<svg width="188" height="40" viewBox="0 0 188 40" fill="none" xmlns="http://www.w3.org/2000/svg">
<g clip-path="url(#clip0_4_4662)">
<path d="M187.365 18.0946V14.7993H183.273V9.67726L183.135 9.71942L179.292 10.8951L179.217 10.9186V14.7993H173.151V12.6376C173.151 11.6305 173.376 10.86 173.821 10.3471C174.261 9.83886 174.891 9.58124 175.694 9.58124C176.273 9.58124 176.87 9.71708 177.472 9.98641L177.622 10.0543V6.5834L177.551 6.55764C176.989 6.35622 176.226 6.25317 175.28 6.25317C174.085 6.25317 173.001 6.51314 172.057 7.02839C171.111 7.54365 170.366 8.27905 169.844 9.21588C169.324 10.1504 169.061 11.23 169.061 12.4245V14.8017H166.211V18.097H169.061V31.9783H173.151V18.097H179.217V26.9195C179.217 30.552 180.931 32.3929 184.311 32.3929C184.866 32.3929 185.451 32.3273 186.048 32.2008C186.655 32.0697 187.07 31.9385 187.313 31.8003L187.367 31.7676V28.4418L187.201 28.5519C186.978 28.6995 186.702 28.8212 186.379 28.9102C186.053 29.0016 185.781 29.0484 185.571 29.0484C184.779 29.0484 184.193 28.8353 183.83 28.4137C183.463 27.9898 183.275 27.245 183.275 26.2075V18.097H187.367L187.365 18.0946ZM157.077 29.0461C155.592 29.0461 154.421 28.5542 153.597 27.5846C152.768 26.6103 152.346 25.2215 152.346 23.4556C152.346 21.6897 152.768 20.2095 153.597 19.2165C154.421 18.2305 155.581 17.7316 157.042 17.7316C158.503 17.7316 159.59 18.2094 160.398 19.1509C161.211 20.0994 161.623 21.5117 161.623 23.3549C161.623 25.1981 161.234 26.6525 160.471 27.6104C159.712 28.5613 158.569 29.0437 157.075 29.0437M157.257 14.3825C154.426 14.3825 152.175 15.2115 150.571 16.8486C148.969 18.4857 148.156 20.7505 148.156 23.5821C148.156 26.4136 148.95 28.4348 150.515 30.011C152.079 31.5872 154.208 32.3859 156.843 32.3859C159.478 32.3859 161.794 31.5451 163.396 29.8845C164.998 28.2264 165.811 25.9827 165.811 23.2167C165.811 20.4507 165.05 18.3054 163.544 16.7409C162.04 15.1741 159.923 14.3801 157.255 14.3801M141.559 14.3801C139.631 14.3801 138.039 14.8719 136.821 15.8439C135.596 16.8205 134.975 18.104 134.975 19.6544C134.975 20.4601 135.109 21.1768 135.373 21.7857C135.638 22.3946 136.05 22.931 136.596 23.383C137.137 23.8303 137.973 24.2987 139.083 24.7742C140.015 25.1583 140.709 25.4815 141.151 25.7368C141.582 25.9874 141.889 26.238 142.062 26.4839C142.231 26.7228 142.315 27.053 142.315 27.4582C142.315 28.6128 141.451 29.1726 139.673 29.1726C139.013 29.1726 138.261 29.0344 137.437 28.7627C136.619 28.4957 135.846 28.1046 135.146 27.601L134.975 27.4792V31.4162L135.038 31.4443C135.617 31.7113 136.348 31.9362 137.207 32.1142C138.067 32.2922 138.847 32.3812 139.523 32.3812C141.615 32.3812 143.299 31.887 144.526 30.908C145.763 29.9244 146.388 28.6105 146.388 27.0061C146.388 25.8492 146.051 24.8561 145.386 24.0552C144.725 23.2612 143.58 22.5328 141.98 21.8864C140.706 21.3758 139.891 20.9519 139.554 20.6264C139.228 20.3125 139.064 19.8676 139.064 19.3031C139.064 18.8043 139.268 18.4038 139.685 18.0782C140.107 17.7527 140.692 17.5864 141.425 17.5864C142.107 17.5864 142.805 17.6941 143.498 17.9049C144.191 18.1157 144.8 18.3991 145.308 18.7434L145.475 18.8581V15.1225L145.411 15.0944C144.943 14.893 144.325 14.7221 143.573 14.5815C142.826 14.4433 142.147 14.3731 141.559 14.3731M124.312 29.0344C122.827 29.0344 121.656 28.5425 120.831 27.5729C120.002 26.5986 119.581 25.2098 119.581 23.4439C119.581 21.678 120 20.1978 120.831 19.2048C121.656 18.2187 122.815 17.7199 124.277 17.7199C125.738 17.7199 126.822 18.1977 127.633 19.1392C128.446 20.0877 128.858 21.5 128.858 23.3432C128.858 25.1864 128.469 26.6408 127.705 27.5987C126.947 28.5496 125.804 29.032 124.309 29.032M124.492 14.3707C121.658 14.3707 119.41 15.1998 117.806 16.8369C116.204 18.474 115.389 20.7388 115.389 23.5703C115.389 26.4019 116.182 28.4231 117.747 29.9993C119.311 31.5755 121.44 32.3741 124.075 32.3741C126.71 32.3741 129.026 31.5333 130.628 29.8728C132.23 28.2146 133.043 25.971 133.043 23.205C133.043 20.439 132.282 18.2937 130.776 16.7292C129.27 15.1624 127.155 14.3684 124.487 14.3684M109.177 17.7574V14.7829H105.137V31.9596H109.177V23.1722C109.177 21.678 109.517 20.4507 110.184 19.5233C110.845 18.6075 111.723 18.1438 112.798 18.1438C113.161 18.1438 113.571 18.2047 114.014 18.3218C114.452 18.4389 114.768 18.5677 114.955 18.7036L115.126 18.8277V14.7548L115.061 14.7267C114.684 14.5675 114.152 14.4855 113.477 14.4855C112.461 14.4855 111.555 14.8111 110.775 15.4551C110.091 16.0196 109.599 16.7948 109.22 17.7597H109.177V17.7574ZM97.9004 14.3684C96.0478 14.3684 94.3943 14.7666 92.9867 15.5488C91.5768 16.3334 90.4878 17.4552 89.7453 18.8815C89.0076 20.3032 88.6329 21.966 88.6329 23.8186C88.6329 25.4417 88.9959 26.9312 89.7149 28.2428C90.4339 29.5566 91.4504 30.5872 92.7385 31.2991C94.0243 32.0111 95.5115 32.3718 97.1556 32.3718C99.0761 32.3718 100.716 31.9877 102.029 31.2312L102.083 31.2008V27.498L101.912 27.6221C101.317 28.0554 100.652 28.402 99.9356 28.6503C99.2213 28.8985 98.5702 29.025 97.9987 29.025C96.4132 29.025 95.1414 28.5285 94.2163 27.5518C93.2912 26.5729 92.8205 25.1981 92.8205 23.4673C92.8205 21.7365 93.3099 20.3149 94.2749 19.275C95.2375 18.2375 96.5115 17.7105 98.0643 17.7105C99.3923 17.7105 100.687 18.1602 101.91 19.0478L102.079 19.172V15.2724L102.025 15.242C101.563 14.9844 100.936 14.7712 100.156 14.6096C99.3782 14.448 98.6194 14.3684 97.898 14.3684M85.8482 14.7829H81.8081V31.9596H85.8482V14.7829ZM83.8691 7.46636C83.204 7.46636 82.6231 7.69354 82.1477 8.14087C81.6699 8.59055 81.4264 9.15733 81.4264 9.82481C81.4264 10.4923 81.6652 11.038 82.1407 11.476C82.6114 11.9116 83.1923 12.1341 83.8691 12.1341C84.546 12.1341 85.1291 11.9139 85.6069 11.476C86.087 11.038 86.3306 10.4806 86.3306 9.82247C86.3306 9.16435 86.0941 8.61631 85.628 8.15492C85.1619 7.69588 84.5717 7.46168 83.8715 7.46168M73.7912 13.5112V31.9549H77.9156V8.00972H72.208L64.9547 25.8117L57.9144 8.00972H51.975V31.976H55.8487V13.5323H55.9822L63.4159 31.9783H66.3412L73.6577 13.5346H73.7912V13.5112Z" fill="white"/>
<path d="M19.0081 19.0081H0V0H19.0081V19.0081Z" fill="white"/>
<path d="M39.993 19.0081H20.9872V0H39.993V19.0081Z" fill="white"/>
<path d="M19.0058 39.9999H0V20.9941H19.0058V39.9999Z" fill="white"/>
<path d="M39.993 39.9999H20.9872V20.9941H39.993V39.9999Z" fill="white"/>
</g>
<defs>
<clipPath id="clip0_4_4662">
<rect width="187.365" height="40" fill="white"/>
</clipPath>
</defs>
</svg>
