<svg width="218" height="33" viewBox="0 0 218 33" fill="none" xmlns="http://www.w3.org/2000/svg">
<g clip-path="url(#clip0_4_4470)">
<path d="M42.211 25.6518C41.6664 25.6518 41.394 25.5182 41.1217 25.3846C40.9855 25.1174 40.8494 24.8502 40.8494 24.4494V9.48581C40.8494 9.085 40.9855 8.68419 41.1217 8.55059C41.394 8.28338 41.6664 8.14978 42.211 8.14978H48.6108C51.0617 8.14978 52.8319 8.68419 54.0574 9.61942C55.1467 10.6882 55.8275 12.1579 55.8275 14.1619C55.8275 16.166 55.2828 17.6356 54.0574 18.7044C52.968 19.6397 51.0617 20.1741 48.6108 20.1741H46.1598V24.3158C46.1598 24.7166 46.0236 25.1174 45.8875 25.251C45.6151 25.5182 45.3428 25.5182 44.7981 25.5182H42.211V25.6518ZM48.2023 16.4332C48.8831 16.4332 49.4278 16.2996 49.8362 15.8988C50.2447 15.498 50.3809 14.9635 50.3809 14.1619C50.3809 13.3603 50.2447 12.8259 49.8362 12.4251C49.4278 12.0243 48.8831 11.8907 48.2023 11.8907H46.1598V16.4332H48.2023Z" fill="white"/>
<path d="M61.9551 26.0526C60.3212 26.0526 58.9595 25.5182 58.0064 24.4494C57.0532 23.3806 56.5085 21.9109 56.5085 20.0405C56.5085 18.5709 56.7809 17.3684 57.4617 16.2996C58.1425 15.2308 59.0957 14.4292 60.3212 13.7612C61.5466 13.2267 63.0445 12.8259 64.5423 12.8259C65.9039 12.8259 66.9932 12.9595 68.0826 13.2267C69.1719 13.4939 69.9889 13.8948 70.942 14.4292V24.7166C70.942 24.9838 70.942 25.251 70.8059 25.3846C70.6697 25.5182 70.3974 25.5182 70.125 25.5182H67.4017C67.2656 25.5182 66.9932 25.5182 66.9932 25.3846C66.9025 25.2956 66.8117 25.2065 66.7209 25.1174L66.3124 24.3158C65.7678 24.8502 65.2231 25.251 64.5423 25.5182C63.8615 25.919 62.9083 26.0526 61.9551 26.0526ZM63.8615 22.579C64.5423 22.579 65.0869 22.4454 65.4954 22.0446C65.9039 21.7773 66.0401 21.2429 66.0401 20.7085V16.7004C65.7678 16.5668 65.2231 16.4332 64.8146 16.4332C63.8614 16.4332 63.1806 16.7004 62.636 17.3684C62.0913 18.0365 61.819 18.8381 61.819 20.0405C61.819 21.6437 62.4998 22.579 63.8615 22.579Z" fill="white"/>
<path d="M74.6185 25.6518C74.0738 25.6518 73.8015 25.5182 73.5292 25.3846C73.2568 25.1174 73.2568 24.8502 73.2568 24.4494V14.0284C73.2568 13.7612 73.2568 13.4939 73.393 13.3603C73.5292 13.2267 73.8015 13.2267 74.0738 13.2267H76.7971C77.0695 13.2267 77.2056 13.2267 77.2056 13.3603C77.3418 13.3603 77.3418 13.4939 77.478 13.6275L77.6141 14.4292C78.1588 13.8948 78.7034 13.6276 79.5204 13.3603C80.3374 13.0931 81.1544 12.9595 82.2437 12.9595C83.6054 12.9595 84.8309 13.3603 85.6478 14.162C86.4648 14.9636 87.0095 16.0324 87.0095 17.6356V24.4494C87.0095 24.8502 86.8733 25.251 86.7372 25.3846C86.601 25.6518 86.1925 25.6518 85.6478 25.6518H83.0607C82.516 25.6518 82.2437 25.5182 81.9714 25.3846C81.6991 25.1174 81.6991 24.8502 81.6991 24.4494V17.9029C81.6991 17.3684 81.5629 16.9676 81.2906 16.834C81.0182 16.5668 80.7459 16.4332 80.2012 16.4332C79.6566 16.4332 79.2481 16.5668 78.9758 16.834C78.7034 17.1012 78.5673 17.502 78.5673 17.9029V24.3158C78.5673 24.7166 78.4311 25.1174 78.2949 25.251C78.1588 25.5182 77.7503 25.5182 77.2056 25.5182H74.6185V25.6518Z" fill="white"/>
<path d="M96.2685 26.0527C93.8175 26.0527 91.9112 25.5182 90.5496 24.3158C89.1879 23.247 88.5071 21.6437 88.5071 19.5061C88.5071 18.1701 88.7794 17.1012 89.4602 16.0324C90.0049 15.0972 90.958 14.2956 92.0474 13.7612C93.2728 13.2267 94.6345 12.9595 96.1323 12.9595C97.3578 12.9595 98.311 13.0931 99.1279 13.3603C99.9449 13.6276 100.762 13.8948 101.307 14.4292C101.443 14.5628 101.579 14.6964 101.579 14.83C101.579 14.9636 101.443 15.0972 101.307 15.3644L100.217 17.2348C100.081 17.502 99.9449 17.6356 99.8088 17.6356C99.6726 17.6356 99.5364 17.502 99.2641 17.3684C98.8556 17.1012 98.311 16.834 97.9025 16.7004C97.494 16.5668 96.9493 16.4332 96.4046 16.4332C95.5877 16.4332 94.7707 16.7004 94.226 17.2348C93.6813 17.7692 93.409 18.5709 93.409 19.5061C93.409 20.4413 93.6813 21.2429 94.226 21.7773C94.7707 22.3118 95.4515 22.579 96.4046 22.579C96.9493 22.579 97.494 22.4454 97.9025 22.3118C98.311 22.1782 98.8556 21.911 99.2641 21.6437C99.5364 21.5101 99.6726 21.3765 99.8088 21.3765C99.9449 21.3765 100.081 21.5101 100.217 21.7773L101.443 23.7814C101.579 23.915 101.579 24.0486 101.579 24.1822C101.579 24.3158 101.443 24.4494 101.307 24.583C100.626 24.9838 99.8088 25.3846 98.8556 25.6518C98.4471 25.919 97.494 26.0527 96.2685 26.0527Z" fill="white"/>
<path d="M108.659 26.0526C107.026 26.0526 105.664 25.5182 104.711 24.4494C103.758 23.3806 103.213 21.9109 103.213 20.0405C103.213 18.5709 103.485 17.3684 104.166 16.2996C104.847 15.2308 105.8 14.4292 107.026 13.7612C108.251 13.2267 109.749 12.8259 111.247 12.8259C112.608 12.8259 113.698 12.9595 114.787 13.2267C115.876 13.4939 116.693 13.8948 117.646 14.4292V24.7166C117.646 24.9838 117.646 25.251 117.51 25.3846C117.374 25.5182 117.102 25.5182 116.829 25.5182H114.106C113.97 25.5182 113.698 25.5182 113.698 25.3846L113.425 25.1174L113.017 24.3158C112.472 24.8502 111.927 25.251 111.247 25.5182C110.566 25.919 109.749 26.0526 108.659 26.0526ZM110.702 22.579C111.383 22.579 111.927 22.4454 112.336 22.0446C112.744 21.7773 112.881 21.2429 112.881 20.7085V16.7004C112.608 16.5668 112.064 16.4332 111.655 16.4332C110.702 16.4332 110.021 16.7004 109.476 17.3684C108.932 18.0365 108.659 18.8381 108.659 20.0405C108.523 21.6437 109.204 22.579 110.702 22.579Z" fill="white"/>
<path d="M134.258 24.7166C134.395 24.8502 134.395 24.9838 134.395 25.1174C134.395 25.251 134.395 25.3846 134.258 25.5182C134.122 25.6518 133.986 25.6518 133.85 25.6518H129.22C129.084 25.6518 128.948 25.5182 128.812 25.3846L125.272 20.5749V24.3158C125.272 24.7166 125.135 25.1174 124.999 25.251C124.727 25.5182 124.455 25.5182 123.91 25.5182H121.323C120.778 25.5182 120.506 25.3846 120.234 25.251C120.097 24.9838 119.961 24.7166 119.961 24.3158V9.48581C119.961 9.085 120.097 8.68419 120.234 8.55059C120.506 8.28338 120.778 8.14978 121.323 8.14978H123.91C124.455 8.14978 124.727 8.28338 124.999 8.55059C125.272 8.8178 125.272 9.085 125.272 9.48581V18.0364L128.676 13.6275C128.812 13.4939 128.948 13.3603 129.084 13.3603C129.22 13.3603 129.357 13.2267 129.629 13.2267H133.714C133.85 13.2267 133.986 13.2267 134.122 13.3603C134.258 13.4939 134.258 13.6275 134.258 13.7611C134.258 13.8947 134.258 14.0283 134.122 14.1619L129.629 19.2388L134.258 24.7166Z" fill="white"/>
<path d="M142.701 26.0527C141.203 26.0527 139.978 25.7854 138.752 25.3846C137.663 24.8502 136.71 24.1822 136.029 23.247C135.348 22.3118 135.076 21.1093 135.076 19.7733C135.076 17.6356 135.757 15.8988 136.982 14.83C138.207 13.6276 140.114 13.0931 142.429 13.0931C144.743 13.0931 146.514 13.6276 147.603 14.83C148.828 15.8988 149.373 17.502 149.373 19.5061C149.373 20.3077 148.965 20.8421 148.284 20.8421H140.114C140.114 21.6437 140.386 22.1782 140.931 22.579C141.475 22.9798 142.429 23.1134 143.518 23.1134C144.199 23.1134 144.88 23.1134 145.288 22.9798C145.833 22.8462 146.241 22.579 146.786 22.4454C147.058 22.3118 147.194 22.3118 147.194 22.3118C147.331 22.3118 147.467 22.4454 147.603 22.579L148.556 24.1822C148.692 24.3158 148.692 24.4494 148.692 24.583C148.692 24.7166 148.556 24.8502 148.42 24.9838C147.739 25.3846 146.922 25.7854 145.969 26.0527C144.88 25.9191 143.926 26.0527 142.701 26.0527ZM144.743 18.0365C144.743 17.3684 144.607 16.834 144.199 16.5668C143.79 16.166 143.246 16.0324 142.429 16.0324C141.612 16.0324 141.067 16.166 140.658 16.5668C140.25 16.9676 140.114 17.3684 140.114 18.0365H144.743Z" fill="white"/>
<path d="M158.496 26.0526C156.998 26.0526 155.637 25.919 154.275 25.6518C152.913 25.3846 151.96 24.8502 151.143 24.3158C150.871 24.1822 150.735 23.915 150.735 23.7814C150.735 23.6478 150.735 23.5141 150.871 23.3805L152.096 21.3765C152.232 21.1093 152.369 21.1093 152.505 21.1093C152.641 21.1093 152.777 21.1093 152.913 21.2429C153.594 21.6437 154.275 21.9109 155.092 22.1781C155.909 22.4453 156.726 22.5789 157.543 22.5789C158.36 22.5789 158.905 22.4453 159.313 22.1781C159.722 21.9109 159.858 21.5101 159.858 20.9757C159.858 20.4413 159.585 20.0405 159.177 19.7733C158.768 19.5061 157.951 19.1052 156.726 18.7044C154.956 18.0364 153.594 17.3684 152.641 16.5668C151.688 15.7652 151.143 14.5627 151.143 13.2267C151.143 11.4899 151.824 10.2874 153.049 9.35221C154.275 8.41698 155.909 8.01617 157.951 8.01617C159.449 8.01617 160.675 8.14978 161.628 8.41698C162.717 8.68419 163.534 9.085 164.215 9.48581C164.487 9.75302 164.623 9.88662 164.623 10.1538C164.623 10.2874 164.623 10.421 164.487 10.5546L163.262 12.5587C163.126 12.8259 162.989 12.8259 162.853 12.8259C162.717 12.8259 162.581 12.8259 162.445 12.6923C161.492 12.0243 160.266 11.7571 158.768 11.7571C157.951 11.7571 157.407 11.8907 156.998 12.1579C156.59 12.4251 156.454 12.8259 156.454 13.3603C156.454 13.7611 156.59 14.0283 156.726 14.2955C156.998 14.5627 157.271 14.6963 157.543 14.9635C157.951 15.0971 158.496 15.3644 159.177 15.6316L159.722 15.7652C160.947 16.2996 162.036 16.7004 162.717 17.2348C163.534 17.6356 164.079 18.3036 164.487 18.9716C164.896 19.6397 165.032 20.4413 165.032 21.3765C165.032 22.8461 164.487 24.1822 163.262 24.9838C162.445 25.5182 160.675 26.0526 158.496 26.0526Z" fill="white"/>
<path d="M170.887 25.6518C170.615 25.6518 170.478 25.6518 170.342 25.5182C170.206 25.3846 170.07 25.251 170.07 24.9838L166.666 13.8948V13.6276C166.666 13.3603 166.802 13.2267 167.21 13.2267H170.615C170.887 13.2267 171.023 13.2267 171.159 13.3603C171.25 13.4494 171.341 13.583 171.432 13.7612L172.793 19.6397L174.563 14.9636C174.699 14.6964 174.699 14.5628 174.836 14.5628C174.972 14.4292 175.108 14.4292 175.38 14.4292H177.014C177.287 14.4292 177.423 14.4292 177.559 14.5628C177.695 14.6964 177.695 14.83 177.831 14.9636L179.601 19.6397L181.099 13.7612C181.099 13.6276 181.235 13.494 181.372 13.3603C181.508 13.2267 181.644 13.2267 181.78 13.2267H185.32C185.729 13.2267 185.865 13.3603 185.865 13.6276V13.8948L182.461 24.9838C182.325 25.251 182.325 25.3846 182.189 25.5182C182.052 25.6518 181.916 25.6518 181.644 25.6518H179.057C178.784 25.6518 178.648 25.6518 178.512 25.5182C178.376 25.3846 178.24 25.251 178.24 24.9838L176.47 20.3077L174.7 24.9838C174.563 25.251 174.563 25.3846 174.427 25.5182C174.291 25.6518 174.155 25.6518 173.883 25.6518H170.887Z" fill="white"/>
<path d="M192.129 26.0526C190.495 26.0526 189.133 25.5182 188.18 24.4494C187.227 23.3806 186.682 21.9109 186.682 20.0405C186.682 18.5709 186.954 17.3684 187.635 16.2996C188.316 15.2308 189.269 14.4292 190.495 13.7612C191.72 13.2267 193.218 12.8259 194.716 12.8259C196.077 12.8259 197.167 12.9595 198.256 13.2267C199.345 13.4939 200.162 13.8948 201.116 14.4292V24.7166C201.116 24.9838 201.116 25.251 200.979 25.3846C200.843 25.5182 200.571 25.5182 200.299 25.5182H197.575C197.439 25.5182 197.303 25.5182 197.167 25.3846C197.031 25.251 197.031 25.251 196.894 25.1174L196.486 24.3158C195.941 24.8502 195.397 25.251 194.716 25.5182C194.035 25.919 193.218 26.0526 192.129 26.0526ZM194.171 22.579C194.852 22.579 195.397 22.4454 195.805 22.0446C196.214 21.7773 196.35 21.2429 196.35 20.7085V16.7004C196.077 16.5668 195.533 16.4332 195.124 16.4332C194.171 16.4332 193.49 16.7004 192.946 17.3684C192.401 18.0365 192.129 18.8381 192.129 20.0405C191.993 21.6437 192.673 22.579 194.171 22.579Z" fill="white"/>
<path d="M204.792 30.8624C204.247 30.8624 203.975 30.7288 203.703 30.5952C203.567 30.328 203.43 30.0608 203.43 29.6599V14.9636C204.247 14.4292 205.201 13.8948 206.426 13.6276C207.652 13.2267 208.877 13.0931 210.103 13.0931C215.413 13.0931 218 15.2308 218 19.6397C218 21.6437 217.455 23.247 216.366 24.4494C215.277 25.6518 213.643 26.1863 211.6 26.1863C211.056 26.1863 210.511 26.0527 209.966 25.919C209.422 25.7854 209.013 25.6518 208.605 25.3846V29.6599C208.605 30.0608 208.469 30.4616 208.332 30.5952C208.06 30.8624 207.788 30.8624 207.243 30.8624H204.792ZM210.511 22.579C211.328 22.579 211.873 22.3118 212.145 21.7773C212.553 21.2429 212.69 20.4413 212.69 19.5061C212.69 18.4373 212.417 17.6356 212.009 17.1012C211.6 16.7004 210.919 16.4332 209.966 16.4332C209.422 16.4332 208.877 16.5668 208.605 16.7004V20.7085C208.605 21.2429 208.741 21.7773 209.149 22.0446C209.422 22.4454 209.966 22.579 210.511 22.579Z" fill="white"/>
<path fill-rule="evenodd" clip-rule="evenodd" d="M6.12742 5.21053C5.58276 2.53846 7.7614 0 10.4847 0C12.9357 0 14.9781 2.00405 14.9781 4.40891V9.75304H18.6546V4.40891C18.6546 2.00405 20.6971 0 23.148 0C25.8713 0 28.05 2.53846 27.5053 5.21053L26.2798 11.4899C30.3648 13.2267 33.4966 16.2996 33.4966 20.1741V22.4453C33.4966 25.6518 31.3179 28.3239 28.3223 30.0607C25.3267 31.9312 21.2417 33 16.7483 33C12.2548 33 8.16989 31.9312 5.17427 30.0607C2.17864 28.3239 0 25.6518 0 22.4453V20.1741C0 16.2996 3.13179 13.2267 7.21674 11.4899L6.12742 5.21053ZM24.782 12.4251L26.1437 5.07692C26.5522 3.20648 25.0543 1.46964 23.148 1.46964C21.3779 1.46964 20.0162 2.80567 20.0162 4.54251V11.3563C19.6077 11.3563 19.0631 11.2227 18.6546 11.2227H16.8844C16.2036 11.2227 15.659 11.2227 14.9781 11.3563C14.5696 11.3563 14.025 11.4899 13.6165 11.4899V4.67611C13.6165 2.93927 12.2548 1.60324 10.4847 1.60324C8.57839 1.60324 7.08057 3.34008 7.48907 5.21053L8.85072 12.6923C4.49344 14.2955 1.49781 17.2348 1.49781 20.5749V22.8462C1.49781 27.9231 8.30606 32.0648 16.7483 32.0648C25.1905 32.0648 31.9987 27.9231 31.9987 22.8462V20.5749C32.1349 16.9676 29.1393 14.0283 24.782 12.4251Z" fill="#633001"/>
<path d="M32.135 22.5789C32.135 27.6559 25.3267 31.7976 16.8845 31.7976C8.44228 31.7976 1.63403 27.6559 1.63403 22.5789V20.3077H32.2711V22.5789H32.135Z" fill="#FEDC90"/>
<path fill-rule="evenodd" clip-rule="evenodd" d="M7.48919 4.94335C7.08069 3.0729 8.57851 1.33606 10.4848 1.33606C12.255 1.33606 13.6166 2.67209 13.6166 4.40893V11.3563C14.7059 11.2227 15.7952 11.0891 16.8846 11.0891C17.9739 11.0891 19.0632 11.2227 20.0164 11.2227V4.40893C20.0164 2.67209 21.378 1.33606 23.1482 1.33606C25.0545 1.33606 26.5523 3.0729 26.1438 4.94335L24.7821 12.2915C29.2756 13.8948 32.2712 16.834 32.2712 20.1741C32.2712 25.251 25.463 29.3927 17.0207 29.3927C8.57851 29.3927 1.77026 25.251 1.77026 20.1741C1.77026 16.834 4.76589 13.8948 9.12317 12.2915L7.48919 4.94335Z" fill="#D1884F"/>
<path d="M12.6632 19.6397C12.6632 20.9757 11.8462 22.1781 11.0292 22.1781C10.2123 22.1781 9.39526 21.1093 9.39526 19.6397C9.39526 18.3036 10.2123 17.1012 11.0292 17.1012C11.8462 17.1012 12.6632 18.17 12.6632 19.6397Z" fill="#633001"/>
<path d="M24.3734 19.6397C24.3734 20.9757 23.5564 22.1781 22.7394 22.1781C21.7863 22.1781 21.1055 21.1093 21.1055 19.6397C21.1055 18.3036 21.9225 17.1012 22.7394 17.1012C23.5564 17.1012 24.3734 18.17 24.3734 19.6397Z" fill="#633001"/>
</g>
<defs>
<clipPath id="clip0_4_4470">
<rect width="218" height="33" fill="white"/>
</clipPath>
</defs>
</svg>
